<?xml version="1.0" encoding="UTF-8"?>
<svg width="340px" height="113px" viewBox="0 0 340 113" version="1.1" xmlns="http://www.w3.org/2000/svg" xmlns:xlink="http://www.w3.org/1999/xlink">
    <!-- Generator: Sketch 54.1 (76490) - https://sketchapp.com -->
    <title>product-design-online-stamp-demo-file</title>
    <desc>Created with Sketch.</desc>
    <defs>
        <rect id="path-1" x="0" y="0" width="19" height="42"></rect>
    </defs>
    <g id="product-design-online-stamp-demo-file" stroke="none" stroke-width="1" fill="none" fill-rule="evenodd">
        <rect id="Rectangle" stroke="#979797" x="11.5" y="12.5" width="318" height="89" rx="11"></rect>
        <rect id="Rectangle" stroke="#979797" x="17.5" y="18.5" width="306" height="77" rx="7"></rect>
        <g id="product-design-online-logo" transform="translate(31.000000, 36.000000)">
            <g id="Group">
                <g id="Group-3" transform="translate(1.750000, 1.508982)" fill="#FF8300" fill-rule="nonzero">
                    <g id="Group-2" transform="translate(0.128000, 0.033491)">
                        <g id="Group">
                            <ellipse id="Oval" cx="16.992" cy="17.0954774" rx="16.992" ry="17.0954774"></ellipse>
                        </g>
                    </g>
                </g>
                <g id="Group-3-Copy-2" transform="translate(9.500000, 21.000000) scale(-1, 1) translate(-9.500000, -21.000000) ">
                    <g id="Mask" fill="#97E9FF" fill-rule="nonzero">
                        <rect id="path-1" x="0" y="0" width="19" height="42"></rect>
                    </g>
                    <g id="Group-3-Clipped">
                        <mask id="mask-2" fill="white">
                            <use xlink:href="#path-1"></use>
                        </mask>
                        <g id="path-1"></g>
                        <g id="Group-3" mask="url(#mask-2)">
                            <g transform="translate(-17.250000, 1.508982)" id="Group-2">
                                <g transform="translate(0.150000, 0.179460)">
                                    <g id="Group" fill="#FFE400" fill-rule="nonzero">
                                        <ellipse id="Oval" cx="17.1" cy="17.0954774" rx="17.1" ry="17.0954774"></ellipse>
                                    </g>
                                </g>
                            </g>
                        </g>
                    </g>
                </g>
            </g>
            <path d="M50.5648087,12.2345679 C52.3414326,12.2345679 53.706379,12.6361726 54.6596896,13.439394 C55.6129998,14.2426153 56.0896478,15.397673 56.0896478,16.9046016 C56.0896478,18.3404486 55.6129998,19.452858 54.6596896,20.241863 C53.706379,21.0308681 52.3414326,21.4253647 50.5648087,21.4253647 L47.7265581,21.4253647 L47.7265581,26.308642 L44,26.308642 L44,12.2345679 L50.5648087,12.2345679 Z M49.9916123,18.654321 C50.7862412,18.654321 51.3715615,18.502647 51.7475911,18.1992945 C52.123621,17.895942 52.3116329,17.4268109 52.3116329,16.7918871 C52.3116329,16.1710727 52.123621,15.7089962 51.7475911,15.4056437 C51.3715615,15.1022913 50.7862412,14.9506173 49.9916123,14.9506173 L47.7780149,14.9506173 L47.7780149,18.654321 L49.9916123,18.654321 Z M65.002849,15.4444444 C65.4903968,15.4444444 65.8775614,15.5225523 66.1643543,15.6787703 L65.7771859,18.7463084 C65.6337893,18.6610986 65.4402071,18.5865411 65.1964332,18.5226338 C64.9526593,18.4587264 64.6945493,18.4267732 64.4220963,18.4267732 C63.7337933,18.4267732 63.1602161,18.6433449 62.7013475,19.0764948 C62.2424789,19.5096447 62.0130478,20.130957 62.0130478,20.9404504 L62.0130478,26.308642 L58.3564568,26.308642 L58.3564568,15.6574679 L61.5828606,15.6574679 L61.7334261,17.9581215 C61.9915398,17.1486282 62.3966287,16.527316 62.948705,16.094166 C63.5007815,15.6610161 64.185489,15.4444444 65.002849,15.4444444 Z M72.5869797,15.4444444 C74.3758214,15.4444444 75.7675195,15.9323313 76.7621157,16.9081197 C77.7567116,17.883908 78.2540021,19.2478546 78.2540021,21 C78.2540021,22.7521454 77.7567116,24.1160921 76.7621157,25.0918802 C75.7675195,26.0676686 74.3758214,26.5555556 72.5869797,26.5555556 C70.798138,26.5555556 69.40644,26.0676686 68.4118438,25.0918802 C67.4172478,24.1160921 66.9199573,22.7521454 66.9199573,21 C66.9199573,19.2478546 67.4172478,17.883908 68.4118438,16.9081197 C69.40644,15.9323313 70.798138,15.4444444 72.5869797,15.4444444 Z M72.7129136,17.9135802 C72.0269726,17.9135802 71.5196698,18.148057 71.1909899,18.6170175 C70.8623099,19.085978 70.6979723,19.8391457 70.6979723,20.8765432 C70.6979723,21.9139407 70.8623099,22.6671084 71.1909899,23.1360689 C71.5196698,23.6050294 72.0269726,23.8395062 72.7129136,23.8395062 C73.3988545,23.8395062 73.9061573,23.6050294 74.2348373,23.1360689 C74.5635173,22.6671084 74.7278549,21.9139407 74.7278549,20.8765432 C74.7278549,19.8391457 74.5635173,19.085978 74.2348373,18.6170175 C73.9061573,18.148057 73.3988545,17.9135802 72.7129136,17.9135802 Z M91.3511206,11 L91.3511206,26.3401047 L88.0668234,26.3401047 L87.9380276,24.293321 C87.6231913,24.9971309 87.1616771,25.550116 86.5534711,25.9522931 C85.9452648,26.3544701 85.2404716,26.5555556 84.4390705,26.5555556 C83.0509293,26.5555556 81.9669075,26.0672049 81.1869724,25.0904894 C80.4070374,24.1137738 80.0170758,22.7492649 80.0170758,20.9969222 C80.0170758,19.2158523 80.410615,17.8297987 81.1977054,16.8387196 C81.9847959,15.8476405 83.0723952,15.3521083 84.4605364,15.3521083 C85.2190054,15.3521083 85.8701342,15.531649 86.4139419,15.8907356 C86.9577499,16.2498222 87.3870654,16.7453544 87.7019017,17.3773469 L87.7019017,11 L91.3511206,11 Z M85.8208072,23.8395062 C86.4098481,23.8395062 86.8803555,23.6236877 87.2323436,23.192044 C87.5843314,22.7604002 87.7818727,22.1348921 87.8249733,21.3155007 L87.8249733,20.4375857 C87.7818727,19.6328264 87.5843314,19.010976 87.2323436,18.5720165 C86.8803555,18.1330568 86.4098481,17.9135802 85.8208072,17.9135802 C85.1742986,17.9135802 84.6750579,18.1550044 84.3230701,18.6378601 C83.971082,19.1207158 83.7950907,19.866936 83.7950907,20.8765432 C83.7950907,21.8861504 83.971082,22.6323706 84.3230701,23.1152264 C84.6750579,23.598082 85.1742986,23.8395062 85.8208072,23.8395062 Z M104.951974,15.691358 L104.951974,26.3425321 L101.666132,26.3425321 L101.558045,24.3614136 C100.880697,25.8241822 99.634107,26.5555556 97.8182377,26.5555556 C96.6653046,26.5555556 95.7609864,26.2537753 95.105256,25.6502057 C94.4495253,25.0466363 94.1216649,24.0986911 94.1216649,22.8063422 L94.1216649,15.691358 L97.7966201,15.691358 L97.7966201,21.8903412 C97.7966201,22.5862215 97.9191175,23.0761706 98.1641157,23.3602035 C98.4091139,23.644236 98.7838116,23.7862504 99.2882197,23.7862504 C99.8935096,23.7862504 100.376293,23.58388 100.736584,23.1791333 C101.096876,22.7743867 101.277019,22.1601751 101.277019,21.3364802 L101.277019,15.691358 L104.951974,15.691358 Z M112.738426,15.4444444 C114.391617,15.4444444 115.635149,15.7507092 116.46906,16.3632479 C117.30297,16.9757865 117.822328,17.7734994 118.027148,18.7564102 L114.559853,19.8675215 C114.413553,18.642444 113.850306,18.0299145 112.870095,18.0299145 C111.421724,18.0299145 110.69755,19.034178 110.69755,21.0427351 C110.69755,22.9943119 111.421724,23.9700854 112.870095,23.9700854 C113.908826,23.9700854 114.515962,23.3931681 114.691522,22.2393163 L118.049093,23.2863247 C117.888163,24.2549906 117.357833,25.0420198 116.458087,25.6474358 C115.558342,26.2528521 114.369671,26.5555556 112.89204,26.5555556 C110.990139,26.5555556 109.52716,26.0712299 108.503059,25.1025642 C107.478958,24.1338983 106.966916,22.7663906 106.966916,21 C106.966916,19.2478546 107.475301,17.883908 108.492087,16.9081197 C109.508872,15.9323313 110.924304,15.4444444 112.738426,15.4444444 Z M127.871932,25.7421064 C127.514453,25.9847153 127.060463,26.18094 126.509946,26.3307867 C125.95943,26.4806333 125.405347,26.5555556 124.847681,26.5555556 C123.575059,26.5555556 122.602733,26.2844086 121.930674,25.7421064 C121.258615,25.1998042 120.915441,24.3292795 120.901142,23.1305062 L120.901142,18.2284043 L119.056564,18.2284043 L119.056564,15.6382107 L120.901142,15.6382107 L120.901142,13.2406761 L124.547401,12.2345679 L124.547401,15.6382107 L127.764689,15.6382107 L127.764689,18.2284043 L124.547401,18.2284043 L124.547401,22.5311225 C124.547401,23.4872869 125.019265,23.965362 125.963008,23.965362 C126.549272,23.965362 127.064033,23.8083822 127.507306,23.4944178 L127.871932,25.7421064 Z M141.926147,12.2345679 C144.138396,12.2345679 145.833239,12.8423059 147.010726,14.0578002 C148.188213,15.2732945 148.776948,17.011212 148.776948,19.2716049 C148.776948,21.5319978 148.188213,23.2699153 147.010726,24.4854096 C145.833239,25.700904 144.138396,26.308642 141.926147,26.308642 L135.931697,26.308642 L135.931697,12.2345679 L141.926147,12.2345679 Z M141.458793,23.345679 C142.675493,23.345679 143.569681,22.9958884 144.141383,22.2962963 C144.713086,21.5967042 144.998933,20.5473321 144.998933,19.1481481 C144.998933,17.7489642 144.713086,16.699592 144.141383,16 C143.569681,15.300408 142.675493,14.9506173 141.458793,14.9506173 L139.457844,14.9506173 L139.457844,23.345679 L141.458793,23.345679 Z M161.622199,20.8504274 C161.622199,21.3347602 161.586053,21.7336168 161.513762,22.0470086 L154.118415,22.0470086 C154.234081,22.7165277 154.483482,23.2079756 154.866625,23.5213674 C155.249768,23.8347595 155.759413,23.9914531 156.395575,23.9914531 C156.930529,23.9914531 157.367884,23.891739 157.707653,23.6923077 C158.047421,23.4928765 158.275135,23.2008565 158.3908,22.8162393 L161.383639,23.7564104 C161.080016,24.6680958 160.490852,25.3625333 159.616129,25.8397437 C158.741406,26.3169541 157.667899,26.5555556 156.395575,26.5555556 C154.501547,26.5555556 153.052131,26.0712299 152.047284,25.1025642 C151.042437,24.1338983 150.540021,22.7663906 150.540021,21 C150.540021,19.2336094 151.031594,17.8661017 152.014753,16.8974359 C152.997913,15.9287701 154.393111,15.4444444 156.20039,15.4444444 C157.949836,15.4444444 159.290816,15.9180864 160.223372,16.8653846 C161.155927,17.8126828 161.622199,19.141017 161.622199,20.8504274 Z M156.123981,17.9135802 C154.966456,17.9135802 154.280525,18.6543136 154.066169,20.1358025 L158.096051,20.1358025 C157.924566,18.6543136 157.267216,17.9135802 156.123981,17.9135802 Z M168.225512,26.5555556 C165.714123,26.5555556 163.932816,25.9287812 162.881537,24.6752136 L164.808872,22.6239316 C165.436719,23.6353326 166.517184,24.1410257 168.050299,24.1410257 C168.561338,24.1410257 168.962862,24.0733625 169.254884,23.9380341 C169.546906,23.8027059 169.692914,23.6210837 169.692914,23.3931625 C169.692914,23.1937311 169.543255,23.0192316 169.243933,22.869658 C168.944611,22.7200847 168.42993,22.5740748 167.699875,22.431624 C166.064552,22.1182321 164.900132,21.6908859 164.20658,21.1495726 C163.513028,20.6082595 163.166257,19.8888933 163.166257,18.9914531 C163.166257,18.3789143 163.363369,17.801997 163.757598,17.2606838 C164.151828,16.7193705 164.746814,16.2813407 165.542573,15.9465812 C166.338333,15.6118217 167.305641,15.4444444 168.444527,15.4444444 C169.700221,15.4444444 170.725933,15.6118217 171.521693,15.9465812 C172.317453,16.2813407 172.963541,16.7834724 173.459979,17.4529915 L171.532643,19.2905983 C171.182217,18.7920203 170.766092,18.4287761 170.284256,18.2008547 C169.80242,17.9729333 169.225685,17.8589744 168.554035,17.8589744 C168.028395,17.8589744 167.619571,17.9373212 167.327549,18.0940171 C167.035527,18.250713 166.889518,18.4430188 166.889518,18.6709402 C166.889518,18.8846164 167.039177,19.0662385 167.338499,19.2158119 C167.637822,19.3653854 168.159803,19.5113953 168.904459,19.6538462 C170.51058,19.9245027 171.667699,20.3269205 172.375853,20.8611111 C173.084006,21.3953017 173.438077,22.1253516 173.438077,23.051282 C173.438077,24.0911733 172.99275,24.935182 172.102084,25.5833333 C171.211416,26.2314847 169.919239,26.5555556 168.225512,26.5555556 Z M176.860192,14.4567901 C176.110522,14.4567901 175.566298,14.318944 175.227505,14.0432478 C174.888711,13.7675515 174.719317,13.3328061 174.719317,12.7389987 C174.719317,12.131053 174.888711,11.6892387 175.227505,11.4135424 C175.566298,11.1378461 176.110522,11 176.860192,11 C177.609863,11 178.154086,11.1378461 178.49288,11.4135424 C178.831673,11.6892387 179.001067,12.131053 179.001067,12.7389987 C179.001067,13.3328061 178.831673,13.7675515 178.49288,14.0432478 C178.154086,14.318944 177.609863,14.4567901 176.860192,14.4567901 Z M178.7492,26.308642 L175.223052,26.308642 L175.223052,15.691358 L178.7492,15.691358 L178.7492,26.308642 Z M188.171489,24.0870007 C189.42286,24.0870007 190.390141,24.3556012 191.073361,24.8928104 C191.756581,25.4300198 192.098186,26.2216844 192.098186,27.2678286 C192.098186,28.4694807 191.555214,29.3919116 190.469254,30.0351489 C189.383294,30.6783862 187.905404,31 186.035539,31 C184.15129,31 182.7597,30.7808785 181.860727,30.3426289 C180.961753,29.9043793 180.512273,29.2894254 180.512273,28.4977486 C180.512273,28.0312249 180.677682,27.6212558 181.008504,27.2678286 C181.339326,26.9144015 181.842744,26.6599378 182.518772,26.5044299 C181.411237,26.0379062 180.857477,25.3027889 180.857477,24.2990558 C180.857477,23.804258 181.015694,23.3660151 181.332133,22.9843138 C181.648572,22.6026126 182.080072,22.3198751 182.626648,22.1360928 C181.447195,21.5140612 180.857477,20.5456857 180.857477,19.2309368 C180.857477,18.0858331 181.317745,17.1987444 182.238294,16.5696441 C183.158842,15.9405439 184.453345,15.6259985 186.12184,15.6259985 C186.898553,15.6259985 187.617721,15.7037513 188.279365,15.8592593 C188.423201,15.0110342 188.746827,14.3183276 189.250252,13.7811184 C189.753677,13.2439092 190.45127,12.9753086 191.343052,12.9753086 L191.688256,12.9965142 L192.098186,15.3927378 C191.810514,15.3644637 191.609147,15.3503268 191.494079,15.3503268 C191.005037,15.3503268 190.598707,15.435148 190.275077,15.604793 C189.951446,15.774438 189.717716,16.0076964 189.573881,16.3045752 C190.782101,16.9266068 191.386202,17.902051 191.386202,19.2309368 C191.386202,20.3760405 190.925935,21.2595951 190.005386,21.8816267 C189.084837,22.5036585 187.790335,22.8146696 186.12184,22.8146696 C185.345127,22.8146696 184.654725,22.7510536 184.050615,22.62382 C183.604724,22.7369165 183.381782,22.9843119 183.381782,23.3660131 C183.381782,23.8466738 183.75575,24.0870007 184.503696,24.0870007 L188.171489,24.0870007 Z M186.305229,17.6666667 C185.85595,17.6666667 185.491766,17.8028935 185.212668,18.0753512 C184.933571,18.3478089 184.794023,18.70881 184.794023,19.1583652 C184.794023,19.6079205 184.933571,19.9655158 185.212668,20.2311622 C185.491766,20.4968084 185.85595,20.6296296 186.305229,20.6296296 C186.754509,20.6296296 187.118692,20.4968084 187.397791,20.2311622 C187.676888,19.9655158 187.816435,19.6079205 187.816435,19.1583652 C187.816435,18.70881 187.676888,18.3478089 187.397791,18.0753512 C187.118692,17.8028935 186.754509,17.6666667 186.305229,17.6666667 Z M186.349352,28.7777778 C187.320059,28.7777778 188.059108,28.6817568 188.566523,28.4897119 C189.073938,28.2976672 189.327641,28.0451674 189.327641,27.7322054 C189.327641,27.5045968 189.224689,27.3338928 189.018782,27.2200884 C188.812874,27.106284 188.467249,27.0493827 187.981896,27.0493827 L184.959484,27.0493827 C184.356469,27.0493827 183.926276,27.1098405 183.668892,27.2307575 C183.411508,27.3516746 183.282818,27.5401602 183.282818,27.79622 C183.282818,28.4505951 184.304986,28.7777778 186.349352,28.7777778 Z M200.951761,15.4444444 C202.090283,15.4444444 202.998204,15.7710772 203.675552,16.4243525 C204.3529,17.0776277 204.691569,18.007821 204.691569,19.21496 L204.691569,26.308642 L201.016614,26.308642 L201.016614,20.2161704 C201.016614,19.4918869 200.883308,18.9770854 200.616692,18.6717502 C200.350076,18.366415 199.971776,18.2137497 199.481779,18.2137497 C198.905313,18.2137497 198.436941,18.41612 198.076649,18.8208666 C197.716358,19.2256133 197.536215,19.8469254 197.536215,20.684822 L197.536215,26.308642 L193.861259,26.308642 L193.861259,15.6574679 L197.147102,15.6574679 L197.255189,17.7024933 C197.601068,16.9498066 198.091058,16.3853 198.725171,16.0089567 C199.359284,15.6326133 200.101473,15.4444444 200.951761,15.4444444 Z M220.066396,11.9876543 C221.519736,11.9876543 222.773222,12.2768671 223.826893,12.8553014 C224.880564,13.4337357 225.690789,14.2692393 226.257591,15.3618373 C226.824394,16.4544354 227.107791,17.7576782 227.107791,19.2716049 C227.107791,20.7855316 226.824394,22.0887746 226.257591,23.1813726 C225.690789,24.2739706 224.880564,25.1094743 223.826893,25.6879084 C222.773222,26.2663427 221.519736,26.5555556 220.066396,26.5555556 C218.613057,26.5555556 217.355937,26.2663427 216.294999,25.6879084 C215.234061,25.1094743 214.420203,24.2739706 213.853401,23.1813726 C213.286599,22.0887746 213.003202,20.7855316 213.003202,19.2716049 C213.003202,17.7576782 213.286599,16.4544354 213.853401,15.3618373 C214.420203,14.2692393 215.234061,13.4337357 216.294999,12.8553014 C217.355937,12.2768671 218.613057,11.9876543 220.066396,11.9876543 Z M220.066596,14.9506173 C219.001062,14.9506173 218.187125,15.3159654 217.62476,16.0466727 C217.062395,16.77738 216.781217,17.8523466 216.781217,19.2716049 C216.781217,20.6908632 217.062395,21.7658299 217.62476,22.4965373 C218.187125,23.2272444 219.001062,23.5925926 220.066596,23.5925926 C221.132129,23.5925926 221.942366,23.2272444 222.497332,22.4965373 C223.052297,21.7658299 223.329776,20.6908632 223.329776,19.2716049 C223.329776,17.8523466 223.052297,16.77738 222.497332,16.0466727 C221.942366,15.3159654 221.132129,14.9506173 220.066596,14.9506173 Z M236.213235,15.4444444 C237.351755,15.4444444 238.259677,15.7710772 238.937025,16.4243525 C239.614373,17.0776277 239.953042,18.007821 239.953042,19.21496 L239.953042,26.308642 L236.278086,26.308642 L236.278086,20.2161704 C236.278086,19.4918869 236.14478,18.9770854 235.878165,18.6717502 C235.611549,18.366415 235.233248,18.2137497 234.743252,18.2137497 C234.166786,18.2137497 233.698413,18.41612 233.338122,18.8208666 C232.97783,19.2256133 232.797687,19.8469254 232.797687,20.684822 L232.797687,26.308642 L229.122732,26.308642 L229.122732,15.6574679 L232.408574,15.6574679 L232.516661,17.7024933 C232.862541,16.9498066 233.35253,16.3853 233.986644,16.0089567 C234.620757,15.6326133 235.362946,15.4444444 236.213235,15.4444444 Z M246.160116,22.612804 C246.160116,23.1011617 246.232437,23.4458798 246.377083,23.6469684 C246.521725,23.8480568 246.782081,23.9485995 247.158154,23.9485995 C247.505301,23.9485995 247.874136,23.8839649 248.264674,23.7546938 L248.026012,26.0169284 C247.765654,26.1749264 247.425746,26.3041956 247.006281,26.40474 C246.586813,26.5052842 246.174583,26.5555556 245.76958,26.5555556 C244.61243,26.5555556 243.773509,26.2862447 243.25279,25.7476146 C242.732074,25.2089847 242.471718,24.3435988 242.471718,23.1514311 L242.471718,11 L246.160116,11 L246.160116,22.612804 Z M251.664888,14.4567901 C250.915216,14.4567901 250.370993,14.318944 250.032201,14.0432478 C249.693406,13.7675515 249.524013,13.3328061 249.524013,12.7389987 C249.524013,12.131053 249.693406,11.6892387 250.032201,11.4135424 C250.370993,11.1378461 250.915216,11 251.664888,11 C252.414559,11 252.958782,11.1378461 253.297575,11.4135424 C253.636369,11.6892387 253.805763,12.131053 253.805763,12.7389987 C253.805763,13.3328061 253.636369,13.7675515 253.297575,14.0432478 C252.958782,14.318944 252.414559,14.4567901 251.664888,14.4567901 Z M253.302028,26.308642 L249.77588,26.308642 L249.77588,15.691358 L253.302028,15.691358 L253.302028,26.308642 Z M263.163075,15.4444444 C264.301595,15.4444444 265.209517,15.7710772 265.886865,16.4243525 C266.564213,17.0776277 266.902882,18.007821 266.902882,19.21496 L266.902882,26.308642 L263.227926,26.308642 L263.227926,20.2161704 C263.227926,19.4918869 263.09462,18.9770854 262.828005,18.6717502 C262.561388,18.366415 262.183088,18.2137497 261.693092,18.2137497 C261.116625,18.2137497 260.648254,18.41612 260.287963,18.8208666 C259.927671,19.2256133 259.747528,19.8469254 259.747528,20.684822 L259.747528,26.308642 L256.072572,26.308642 L256.072572,15.6574679 L259.358415,15.6574679 L259.466501,17.7024933 C259.812381,16.9498066 260.30237,16.3853 260.936484,16.0089567 C261.570596,15.6326133 262.312785,15.4444444 263.163075,15.4444444 Z M280,20.8504274 C280,21.3347602 279.963854,21.7336168 279.891563,22.0470086 L272.496218,22.0470086 C272.611883,22.7165277 272.861282,23.2079756 273.244426,23.5213674 C273.627569,23.8347595 274.137213,23.9914531 274.773376,23.9914531 C275.30833,23.9914531 275.745686,23.891739 276.085455,23.6923077 C276.425222,23.4928765 276.652936,23.2008565 276.768601,22.8162393 L279.761441,23.7564104 C279.457817,24.6680958 278.868653,25.3625333 277.993932,25.8397437 C277.119208,26.3169541 276.0457,26.5555556 274.773376,26.5555556 C272.879349,26.5555556 271.429933,26.0712299 270.425085,25.1025642 C269.420238,24.1338983 268.917823,22.7663906 268.917823,21 C268.917823,19.2336094 269.409395,17.8661017 270.392556,16.8974359 C271.375714,15.9287701 272.770912,15.4444444 274.578191,15.4444444 C276.327636,15.4444444 277.668617,15.9180864 278.601172,16.8653846 C279.53373,17.8126828 280,19.141017 280,20.8504274 Z M274.501782,17.9135802 C273.344258,17.9135802 272.658327,18.6543136 272.44397,20.1358025 L276.473853,20.1358025 C276.302369,18.6543136 275.645017,17.9135802 274.501782,17.9135802 Z" id="ProductDesignOnline" fill="#111111" fill-rule="nonzero"></path>
        </g>
    </g>
</svg>