  0
SECTION
  2
HEADER
  9
$ACADVER
  1
AC1032
  9
$ACADMAINTVER
 90
        4
  9
$DWGCODEPAGE
  3
ANSI_1252
  9
$LASTSAVEDBY
  1
SYED
  9
$REQUIREDVERSIONS
160
                 0
  9
$INSBASE
 10
0.0
 20
0.0
 30
0.0
  9
$EXTMIN
 10
1.756025218613957
 20
0.8068266553551131
 30
0.0
  9
$EXTMAX
 10
2.145632618613957
 20
1.183774555355113
 30
0.0
  9
$LIMMIN
 10
0.0
 20
0.0
  9
$LIMMAX
 10
12.0
 20
9.0
  9
$ORTHOMODE
 70
     0
  9
$REGENMODE
 70
     1
  9
$FILLMODE
 70
     1
  9
$QTEXTMODE
 70
     0
  9
$MIRRTEXT
 70
     0
  9
$LTSCALE
 40
1.0
  9
$ATTMODE
 70
     1
  9
$TEXTSIZE
 40
0.2
  9
$TRACEWID
 40
0.05
  9
$TEXTSTYLE
  7
Standard
  9
$CLAYER
  8
0
  9
$CELTYPE
  6
Continuous
  9
$CECOLOR
 62
   256
  9
$CELTSCALE
 40
1.0
  9
$DISPSILH
 70
     0
  9
$DIMSCALE
 40
1.0
  9
$DIMASZ
 40
0.18
  9
$DIMEXO
 40
0.0625
  9
$DIMDLI
 40
0.38
  9
$DIMRND
 40
0.0
  9
$DIMDLE
 40
0.0
  9
$DIMEXE
 40
0.18
  9
$DIMTP
 40
0.0
  9
$DIMTM
 40
0.0
  9
$DIMTXT
 40
0.18
  9
$DIMCEN
 40
0.09
  9
$DIMTSZ
 40
0.0
  9
$DIMTOL
 70
     0
  9
$DIMLIM
 70
     0
  9
$DIMTIH
 70
     1
  9
$DIMTOH
 70
     1
  9
$DIMSE1
 70
     0
  9
$DIMSE2
 70
     0
  9
$DIMTAD
 70
     0
  9
$DIMZIN
 70
     0
  9
$DIMBLK
  1

  9
$DIMASO
 70
     1
  9
$DIMSHO
 70
     1
  9
$DIMPOST
  1

  9
$DIMAPOST
  1

  9
$DIMALT
 70
     0
  9
$DIMALTD
 70
     2
  9
$DIMALTF
 40
25.4
  9
$DIMLFAC
 40
1.0
  9
$DIMTOFL
 70
     0
  9
$DIMTVP
 40
0.0
  9
$DIMTIX
 70
     0
  9
$DIMSOXD
 70
     0
  9
$DIMSAH
 70
     0
  9
$DIMBLK1
  1

  9
$DIMBLK2
  1

  9
$DIMSTYLE
  2
Standard
  9
$DIMCLRD
 70
     0
  9
$DIMCLRE
 70
     0
  9
$DIMCLRT
 70
     0
  9
$DIMTFAC
 40
1.0
  9
$DIMGAP
 40
0.09
  9
$DIMJUST
 70
     0
  9
$DIMSD1
 70
     0
  9
$DIMSD2
 70
     0
  9
$DIMTOLJ
 70
     1
  9
$DIMTZIN
 70
     0
  9
$DIMALTZ
 70
     0
  9
$DIMALTTZ
 70
     0
  9
$DIMUPT
 70
     0
  9
$DIMDEC
 70
     4
  9
$DIMTDEC
 70
     4
  9
$DIMALTU
 70
     2
  9
$DIMALTTD
 70
     2
  9
$DIMTXSTY
  7
Standard
  9
$DIMAUNIT
 70
     0
  9
$DIMADEC
 70
     0
  9
$DIMALTRND
 40
0.0
  9
$DIMAZIN
 70
     0
  9
$DIMDSEP
 70
    46
  9
$DIMATFIT
 70
     3
  9
$DIMFRAC
 70
     0
  9
$DIMLDRBLK
  1

  9
$DIMLUNIT
 70
     2
  9
$DIMLWD
 70
    -2
  9
$DIMLWE
 70
    -2
  9
$DIMTMOVE
 70
     0
  9
$DIMFXL
 40
1.0
  9
$DIMFXLON
 70
     0
  9
$DIMJOGANG
 40
0.7853981633974483
  9
$DIMTFILL
 70
     0
  9
$DIMTFILLCLR
 70
     0
  9
$DIMARCSYM
 70
     0
  9
$DIMLTYPE
  6

  9
$DIMLTEX1
  6

  9
$DIMLTEX2
  6

  9
$DIMTXTDIRECTION
 70
     0
  9
$LUNITS
 70
     2
  9
$LUPREC
 70
     4
  9
$SKETCHINC
 40
0.1
  9
$FILLETRAD
 40
0.0
  9
$AUNITS
 70
     0
  9
$AUPREC
 70
     0
  9
$MENU
  1
.
  9
$ELEVATION
 40
0.0
  9
$PELEVATION
 40
0.0
  9
$THICKNESS
 40
0.0
  9
$LIMCHECK
 70
     0
  9
$CHAMFERA
 40
0.0
  9
$CHAMFERB
 40
0.0
  9
$CHAMFERC
 40
0.0
  9
$CHAMFERD
 40
0.0
  9
$SKPOLY
 70
     0
  9
$TDCREATE
 40
2459463.118402778
  9
$TDUCREATE
 40
2459462.951736111
  9
$TDUPDATE
 40
2459463.124884259
  9
$TDUUPDATE
 40
2459462.958217593
  9
$TDINDWG
 40
0.0064814815
  9
$TDUSRTIMER
 40
0.0064814815
  9
$USRTIMER
 70
     1
  9
$ANGBASE
 50
0.0
  9
$ANGDIR
 70
     0
  9
$PDMODE
 70
     0
  9
$PDSIZE
 40
0.0
  9
$PLINEWID
 40
0.0
  9
$SPLFRAME
 70
     0
  9
$SPLINETYPE
 70
     6
  9
$SPLINESEGS
 70
     8
  9
$HANDSEED
  5
10C9
  9
$SURFTAB1
 70
     6
  9
$SURFTAB2
 70
     6
  9
$SURFTYPE
 70
     6
  9
$SURFU
 70
     6
  9
$SURFV
 70
     6
  9
$UCSBASE
  2

  9
$UCSNAME
  2

  9
$UCSORG
 10
0.0
 20
0.0
 30
0.0
  9
$UCSXDIR
 10
1.0
 20
0.0
 30
0.0
  9
$UCSYDIR
 10
0.0
 20
1.0
 30
0.0
  9
$UCSORTHOREF
  2

  9
$UCSORTHOVIEW
 70
     0
  9
$UCSORGTOP
 10
0.0
 20
0.0
 30
0.0
  9
$UCSORGBOTTOM
 10
0.0
 20
0.0
 30
0.0
  9
$UCSORGLEFT
 10
0.0
 20
0.0
 30
0.0
  9
$UCSORGRIGHT
 10
0.0
 20
0.0
 30
0.0
  9
$UCSORGFRONT
 10
0.0
 20
0.0
 30
0.0
  9
$UCSORGBACK
 10
0.0
 20
0.0
 30
0.0
  9
$PUCSBASE
  2

  9
$PUCSNAME
  2

  9
$PUCSORG
 10
0.0
 20
0.0
 30
0.0
  9
$PUCSXDIR
 10
1.0
 20
0.0
 30
0.0
  9
$PUCSYDIR
 10
0.0
 20
1.0
 30
0.0
  9
$PUCSORTHOREF
  2

  9
$PUCSORTHOVIEW
 70
     0
  9
$PUCSORGTOP
 10
0.0
 20
0.0
 30
0.0
  9
$PUCSORGBOTTOM
 10
0.0
 20
0.0
 30
0.0
  9
$PUCSORGLEFT
 10
0.0
 20
0.0
 30
0.0
  9
$PUCSORGRIGHT
 10
0.0
 20
0.0
 30
0.0
  9
$PUCSORGFRONT
 10
0.0
 20
0.0
 30
0.0
  9
$PUCSORGBACK
 10
0.0
 20
0.0
 30
0.0
  9
$USERI1
 70
     0
  9
$USERI2
 70
     0
  9
$USERI3
 70
     0
  9
$USERI4
 70
     0
  9
$USERI5
 70
     0
  9
$USERR1
 40
0.0
  9
$USERR2
 40
0.0
  9
$USERR3
 40
0.0
  9
$USERR4
 40
0.0
  9
$USERR5
 40
0.0
  9
$WORLDVIEW
 70
     1
  9
$SHADEDGE
 70
     3
  9
$SHADEDIF
 70
    70
  9
$TILEMODE
 70
     1
  9
$MAXACTVP
 70
    64
  9
$PINSBASE
 10
0.0
 20
0.0
 30
0.0
  9
$PLIMCHECK
 70
     0
  9
$PEXTMIN
 10
1.000000000000000E+20
 20
1.000000000000000E+20
 30
1.000000000000000E+20
  9
$PEXTMAX
 10
-1.000000000000000E+20
 20
-1.000000000000000E+20
 30
-1.000000000000000E+20
  9
$PLIMMIN
 10
0.0
 20
0.0
  9
$PLIMMAX
 10
12.0
 20
9.0
  9
$UNITMODE
 70
     0
  9
$VISRETAIN
 70
     1
  9
$PLINEGEN
 70
     0
  9
$PSLTSCALE
 70
     1
  9
$TREEDEPTH
 70
  3020
  9
$CMLSTYLE
  2
Standard
  9
$CMLJUST
 70
     0
  9
$CMLSCALE
 40
1.0
  9
$PROXYGRAPHICS
 70
     1
  9
$MEASUREMENT
 70
     0
  9
$CELWEIGHT
370
    -1
  9
$ENDCAPS
280
     0
  9
$JOINSTYLE
280
     0
  9
$LWDISPLAY
290
     0
  9
$INSUNITS
 70
     0
  9
$HYPERLINKBASE
  1

  9
$STYLESHEET
  1

  9
$XEDIT
290
     1
  9
$CEPSNTYPE
380
     0
  9
$PSTYLEMODE
290
     1
  9
$FINGERPRINTGUID
  2
{A633DFC4-92F9-B741-B572-1B939CB5103A}
  9
$VERSIONGUID
  2
{33A3B34E-D1B9-9C40-A3CA-02659D610F56}
  9
$EXTNAMES
290
     1
  9
$PSVPSCALE
 40
0.0
  9
$OLESTARTUP
290
     0
  9
$SORTENTS
280
   127
  9
$INDEXCTL
280
     0
  9
$HIDETEXT
280
     0
  9
$XCLIPFRAME
280
     2
  9
$HALOGAP
280
     0
  9
$OBSCOLOR
 70
   257
  9
$OBSLTYPE
280
     0
  9
$INTERSECTIONDISPLAY
280
     0
  9
$INTERSECTIONCOLOR
 70
   257
  9
$DIMASSOC
280
     1
  9
$PROJECTNAME
  1

  9
$CAMERADISPLAY
290
     0
  9
$LENSLENGTH
 40
50.0
  9
$CAMERAHEIGHT
 40
0.0
  9
$STEPSPERSEC
 40
2.0
  9
$STEPSIZE
 40
6.0
  9
$3DDWFPREC
 40
2.0
  9
$PSOLWIDTH
 40
0.25
  9
$PSOLHEIGHT
 40
4.0
  9
$LOFTANG1
 40
1.570796326794896
  9
$LOFTANG2
 40
1.570796326794896
  9
$LOFTMAG1
 40
0.0
  9
$LOFTMAG2
 40
0.0
  9
$LOFTPARAM
 70
     7
  9
$LOFTNORMALS
280
     1
  9
$LATITUDE
 40
37.795
  9
$LONGITUDE
 40
-122.394
  9
$NORTHDIRECTION
 40
0.0
  9
$TIMEZONE
 70
 -8000
  9
$LIGHTGLYPHDISPLAY
280
     1
  9
$TILEMODELIGHTSYNCH
280
     1
  9
$CMATERIAL
347
11
  9
$SOLIDHIST
280
     0
  9
$SHOWHIST
280
     1
  9
$DWFFRAME
280
     2
  9
$DGNFRAME
280
     0
  9
$REALWORLDSCALE
290
     1
  9
$INTERFERECOLOR
 62
     1
  9
$INTERFEREOBJVS
345
33
  9
$INTERFEREVPVS
346
30
  9
$CSHADOW
280
     0
  9
$SHADOWPLANELOCATION
 40
0.0
  0
ENDSEC
  0
SECTION
  2
CLASSES
  0
CLASS
  1
ACDBDICTIONARYWDFLT
  2
AcDbDictionaryWithDefault
  3
ObjectDBX Classes
 90
        0
 91
        1
280
     0
281
     0
  0
CLASS
  1
MATERIAL
  2
AcDbMaterial
  3
ObjectDBX Classes
 90
     1153
 91
        3
280
     0
281
     0
  0
CLASS
  1
VISUALSTYLE
  2
AcDbVisualStyle
  3
ObjectDBX Classes
 90
     4095
 91
       24
280
     0
281
     0
  0
CLASS
  1
SCALE
  2
AcDbScale
  3
ObjectDBX Classes
 90
     1153
 91
       17
280
     0
281
     0
  0
CLASS
  1
TABLESTYLE
  2
AcDbTableStyle
  3
ObjectDBX Classes
 90
     4095
 91
        1
280
     0
281
     0
  0
CLASS
  1
MLEADERSTYLE
  2
AcDbMLeaderStyle
  3
ACDB_MLEADERSTYLE_CLASS
 90
     4095
 91
        1
280
     0
281
     0
  0
CLASS
  1
ACDBSECTIONVIEWSTYLE
  2
AcDbSectionViewStyle
  3
ObjectDBX Classes
 90
     1025
 91
        1
280
     0
281
     0
  0
CLASS
  1
ACDBDETAILVIEWSTYLE
  2
AcDbDetailViewStyle
  3
ObjectDBX Classes
 90
     1025
 91
        1
280
     0
281
     0
  0
CLASS
  1
DICTIONARYVAR
  2
AcDbDictionaryVar
  3
ObjectDBX Classes
 90
        0
 91
        9
280
     0
281
     0
  0
CLASS
  1
CELLSTYLEMAP
  2
AcDbCellStyleMap
  3
ObjectDBX Classes
 90
     1152
 91
        5
280
     0
281
     0
  0
CLASS
  1
SORTENTSTABLE
  2
AcDbSortentsTable
  3
ObjectDBX Classes
 90
        0
 91
        1
280
     0
281
     0
  0
ENDSEC
  0
SECTION
  2
TABLES
  0
TABLE
  2
VPORT
  5
8
330
0
100
AcDbSymbolTable
 70
     1
  0
VPORT
  5
76
330
8
100
AcDbSymbolTableRecord
100
AcDbViewportTableRecord
  2
*Active
 70
     0
 10
0.0
 20
0.0
 11
1.0
 21
1.0
 12
2.221728773295296
 22
0.8600858178804005
 13
0.0
 23
0.0
 14
1.0
 24
1.0
 15
0.0
 25
0.0
 16
0.0
 26
0.0
 36
1.0
 17
0.0
 27
0.0
 37
0.0
 40
1.233198616820766
 41
2.242530755711774
 42
50.0
 43
0.0
 44
0.0
 50
0.0
 51
0.0
 71
     0
 72
   100
 73
     1
 74
     1
 75
     0
 76
     0
 77
     0
 78
     0
281
     0
 65
     1
110
0.0
120
0.0
130
0.0
111
1.0
121
0.0
131
0.0
112
0.0
122
1.0
132
0.0
 79
     0
146
0.0
348
2F
 60
     3
 61
     5
292
     1
282
     1
141
0.0
142
0.0
 63
   250
421
  3355443
1001
ACAD_NAV_VCDISPLAY
1070
     3
  0
ENDTAB
  0
TABLE
  2
LTYPE
  5
5
330
0
100
AcDbSymbolTable
 70
     2
  0
LTYPE
  5
5A
330
5
100
AcDbSymbolTableRecord
100
AcDbLinetypeTableRecord
  2
ByBlock
 70
     0
  3

 72
    65
 73
     0
 40
0.0
  0
LTYPE
  5
5B
330
5
100
AcDbSymbolTableRecord
100
AcDbLinetypeTableRecord
  2
ByLayer
 70
     0
  3

 72
    65
 73
     0
 40
0.0
  0
LTYPE
  5
5C
330
5
100
AcDbSymbolTableRecord
100
AcDbLinetypeTableRecord
  2
Continuous
 70
     0
  3
Solid line
 72
    65
 73
     0
 40
0.0
  0
ENDTAB
  0
TABLE
  2
LAYER
  5
2
102
{ACAD_XDICTIONARY
360
C74
102
}
330
0
100
AcDbSymbolTable
 70
     3
  0
LAYER
  5
54
102
{ACAD_XDICTIONARY
360
C57
102
}
330
2
100
AcDbSymbolTableRecord
100
AcDbLayerTableRecord
  2
0
 70
     0
 62
     7
  6
Continuous
370
    -3
390
F
347
21
348
0
  0
LAYER
  5
73
102
{ACAD_XDICTIONARY
360
C59
102
}
330
2
100
AcDbSymbolTableRecord
100
AcDbLayerTableRecord
  2
C7
 70
     0
 62
     7
  6
Continuous
370
    -3
390
F
347
21
348
0
  0
LAYER
  5
74
102
{ACAD_XDICTIONARY
360
C5B
102
}
330
2
100
AcDbSymbolTableRecord
100
AcDbLayerTableRecord
  2
C18
 70
     0
 62
    18
  6
Continuous
370
    -3
390
F
347
21
348
0
  0
ENDTAB
  0
TABLE
  2
STYLE
  5
3
330
0
100
AcDbSymbolTable
 70
     2
  0
STYLE
  5
55
330
3
100
AcDbSymbolTableRecord
100
AcDbTextStyleTableRecord
  2
Standard
 70
     0
 40
0.0
 41
1.0
 50
0.0
 71
     0
 42
0.2
  3
txt
  4

  0
STYLE
  5
59
330
3
100
AcDbSymbolTableRecord
100
AcDbTextStyleTableRecord
  2
Annotative
 70
     0
 40
0.0
 41
1.0
 50
0.0
 71
     0
 42
0.2
  3
txt
  4

1001
AcadAnnotative
1000
AnnotativeData
1002
{
1070
     1
1070
     1
1002
}
  0
ENDTAB
  0
TABLE
  2
VIEW
  5
6
330
0
100
AcDbSymbolTable
 70
     4
  0
ENDTAB
  0
TABLE
  2
UCS
  5
7
330
0
100
AcDbSymbolTable
 70
     0
  0
ENDTAB
  0
TABLE
  2
APPID
  5
9
330
0
100
AcDbSymbolTable
 70
     3
  0
APPID
  5
56
330
9
100
AcDbSymbolTableRecord
100
AcDbRegAppTableRecord
  2
ACAD
 70
     0
  0
APPID
  5
5D
330
9
100
AcDbSymbolTableRecord
100
AcDbRegAppTableRecord
  2
AcadAnnotative
 70
     0
  0
APPID
  5
C67
330
9
100
AcDbSymbolTableRecord
100
AcDbRegAppTableRecord
  2
ACAD_NAV_VCDISPLAY
 70
     0
  0
ENDTAB
  0
TABLE
  2
DIMSTYLE
  5
A
330
0
100
AcDbSymbolTable
 70
     3
100
AcDbDimStyleTable
 71
     1
340
57
  0
DIMSTYLE
105
57
330
A
100
AcDbSymbolTableRecord
100
AcDbDimStyleTableRecord
  2
Standard
 70
     0
340
55
  0
DIMSTYLE
105
58
330
A
100
AcDbSymbolTableRecord
100
AcDbDimStyleTableRecord
  2
Annotative
 70
     0
340
55
1001
AcadAnnotative
1000
AnnotativeData
1002
{
1070
     1
1070
     1
1002
}
  0
ENDTAB
  0
TABLE
  2
BLOCK_RECORD
  5
1
330
0
100
AcDbSymbolTable
 70
     1
  0
BLOCK_RECORD
  5
6F
102
{ACAD_XDICTIONARY
360
C88
102
}
330
1
100
AcDbSymbolTableRecord
100
AcDbBlockTableRecord
  2
*Model_Space
340
72
 70
     0
280
     1
281
     0
  0
BLOCK_RECORD
  5
6B
330
1
100
AcDbSymbolTableRecord
100
AcDbBlockTableRecord
  2
*Paper_Space
340
6E
 70
     0
280
     1
281
     0
  0
ENDTAB
  0
ENDSEC
  0
SECTION
  2
BLOCKS
  0
BLOCK
  5
70
330
6F
100
AcDbEntity
  8
0
100
AcDbBlockBegin
  2
*Model_Space
 70
     0
 10
0.0
 20
0.0
 30
0.0
  3
*Model_Space
  1

  0
ENDBLK
  5
71
330
6F
100
AcDbEntity
  8
0
100
AcDbBlockEnd
  0
BLOCK
  5
6C
330
6B
100
AcDbEntity
 67
     1
  8
0
100
AcDbBlockBegin
  2
*Paper_Space
 70
     0
 10
0.0
 20
0.0
 30
0.0
  3
*Paper_Space
  1

  0
ENDBLK
  5
6D
330
6B
100
AcDbEntity
 67
     1
  8
0
100
AcDbBlockEnd
  0
ENDSEC
  0
SECTION
  2
ENTITIES
  0
LWPOLYLINE
  5
2A7
330
6F
100
AcDbEntity
  8
C7
100
AcDbPolyline
 90
     1495
 70
     0
 43
0.0
 10
2.133791518554289
 20
0.9568266577970845
 10
2.133655418613957
 20
0.9578744553551132
 10
2.133441718613957
 20
0.9588992553551133
 10
2.133164618613957
 20
0.9599051553551131
 10
2.132838618613957
 20
0.9608965553551131
 10
2.132478318613957
 20
0.9618777553551131
 10
2.132098018613957
 20
0.962853155355113
 10
2.131712318613957
 20
0.9638271553551131
 10
2.131335618613957
 20
0.9648039553551132
 10
2.130982318613957
 20
0.9657879553551131
 10
2.130667018613957
 20
0.9667835553551132
 10
2.130404118613957
 20
0.9677949553551133
 10
2.130208118613957
 20
0.9688266553551132
 10
2.130078818613957
 20
0.9698161553551132
 10
2.129986318613957
 20
0.9708093553551131
 10
2.129925918613957
 20
0.9718055553551131
 10
2.129892518613957
 20
0.9728043553551131
 10
2.129881418613957
 20
0.9738053553551132
 10
2.129887518613957
 20
0.9748079553551132
 10
2.129905918613957
 20
0.9758118553551131
 10
2.129931918613957
 20
0.9768165553551131
 10
2.129960518613957
 20
0.9778215553551133
 10
2.129986718613957
 20
0.9788263553551132
 10
2.130005818613957
 20
0.9798306553551132
 10
2.130012818613957
 20
0.9808337553551131
 10
2.130002718613957
 20
0.9818354553551133
 10
2.129970718613957
 20
0.9828350553551132
 10
2.129912018613957
 20
0.9838322553551131
 10
2.129821518613957
 20
0.9848266553551132
 10
2.129709118613957
 20
0.9857220553551131
 10
2.129565518613957
 20
0.9866336553551132
 10
2.129391418613957
 20
0.9875593553551132
 10
2.129187918613957
 20
0.9884972553551133
 10
2.128955718613957
 20
0.9894453553551132
 10
2.128695918613957
 20
0.990401655355113
 10
2.128409218613957
 20
0.9913641553551132
 10
2.128096718613957
 20
0.9923309553551131
 10
2.127759118613957
 20
0.993299955355113
 10
2.127397418613957
 20
0.9942692553551133
 10
2.127012518613957
 20
0.9952367553551132
 10
2.126605318613957
 20
0.9962006553551132
 10
2.126176618613957
 20
0.9971587553551131
 10
2.125727418613957
 20
0.9981092553551132
 10
2.125258618613957
 20
0.9990500553551131
 10
2.124771118613957
 20
0.9999791553551132
 10
2.124265718613957
 20
1.000894655355113
 10
2.123743418613957
 20
1.001794555355113
 10
2.123205018613957
 20
1.002676755355113
 10
2.122651518613957
 20
1.003539455355113
 10
2.122083818613957
 20
1.004380555355113
 10
2.121502718613957
 20
1.005198055355113
 10
2.120909118613957
 20
1.005990055355113
 10
2.120304018613957
 20
1.006754455355113
 10
2.119688318613957
 20
1.007489355355113
 10
2.119062818613957
 20
1.008192755355113
 10
2.118428418613957
 20
1.008862655355113
 10
2.117786018613957
 20
1.009497155355113
 10
2.117038218613957
 20
1.010160155355113
 10
2.116253818613957
 20
1.010762055355113
 10
2.115435418613957
 20
1.011305855355113
 10
2.114585918613957
 20
1.011794755355113
 10
2.113707918613957
 20
1.012232055355113
 10
2.112804118613957
 20
1.012620755355113
 10
2.111877218613957
 20
1.012964155355113
 10
2.110929918613957
 20
1.013265455355113
 10
2.109965018613957
 20
1.013527655355113
 10
2.108985118613957
 20
1.013754055355113
 10
2.107993018613957
 20
1.013947855355113
 10
2.106991418613957
 20
1.014112055355113
 10
2.105982918613957
 20
1.014250055355113
 10
2.104970318613957
 20
1.014364855355113
 10
2.103956418613957
 20
1.014459755355113
 10
2.102943818613957
 20
1.014537755355113
 10
2.101935118613957
 20
1.014602255355113
 10
2.100933318613957
 20
1.014656155355113
 10
2.099940818613957
 20
1.014702955355113
 10
2.098960618613957
 20
1.014745555355113
 10
2.097995218613957
 20
1.014787255355113
 10
2.097026918613957
 20
1.014819655355113
 10
2.096062218613957
 20
1.014838955355113
 10
2.095105118613957
 20
1.014855855355113
 10
2.094160018613957
 20
1.014881555355113
 10
2.093231118613957
 20
1.014926955355113
 10
2.092322718613957
 20
1.015003055355113
 10
2.091439018613957
 20
1.015120855355113
 10
2.090584218613957
 20
1.015291255355113
 10
2.089762718613957
 20
1.015525455355113
 10
2.088978718613957
 20
1.015834255355113
 10
2.088236418613957
 20
1.016228655355113
 10
2.087540118613957
 20
1.016719755355113
 10
2.086894018613957
 20
1.017318555355113
 10
2.086302518613957
 20
1.018035955355113
 10
2.085769718613957
 20
1.018882855355113
 10
2.085299918613957
 20
1.019870555355113
 10
2.084925818613957
 20
1.020816755355113
 10
2.084571118613957
 20
1.021792655355113
 10
2.084240418613957
 20
1.022790055355113
 10
2.083938718613957
 20
1.023800455355113
 10
2.083670618613957
 20
1.024815555355113
 10
2.083440918613957
 20
1.025827055355113
 10
2.083254418613957
 20
1.026826655355113
 10
2.083107518613957
 20
1.027887955355113
 10
2.083022218613957
 20
1.028909155355113
 10
2.082995818613957
 20
1.029892055355113
 10
2.083026018613957
 20
1.030838555355113
 10
2.083110118613957
 20
1.031750355355113
 10
2.083245718613957
 20
1.032629355355113
 10
2.083430318613957
 20
1.033477455355113
 10
2.083661518613957
 20
1.034296355355113
 10
2.083936618613957
 20
1.035087955355113
 10
2.084253318613957
 20
1.035854155355113
 10
2.084609018613957
 20
1.036596655355113
 10
2.085001218613957
 20
1.037317455355113
 10
2.085427418613957
 20
1.038018155355113
 10
2.085885218613957
 20
1.038700855355113
 10
2.086372118613957
 20
1.039367155355113
 10
2.086885418613957
 20
1.040018955355113
 10
2.087422918613957
 20
1.040658255355113
 10
2.087981918613957
 20
1.041286655355113
 10
2.088560018613957
 20
1.041906155355113
 10
2.089154618613957
 20
1.042518455355113
 10
2.089763318613957
 20
1.043125455355113
 10
2.090383618613957
 20
1.043729055355113
 10
2.091013018613957
 20
1.044330955355113
 10
2.091648918613957
 20
1.044933055355113
 10
2.092289018613957
 20
1.045537255355113
 10
2.092930618613957
 20
1.046145255355113
 10
2.093571418613957
 20
1.046758955355113
 10
2.094208818613957
 20
1.047380155355113
 10
2.094840318613957
 20
1.048010755355113
 10
2.095463418613957
 20
1.048652555355113
 10
2.096075618613957
 20
1.049307455355113
 10
2.096674518613957
 20
1.049977155355113
 10
2.097257518613957
 20
1.050663555355113
 10
2.097822118613957
 20
1.051368455355113
 10
2.098365918613957
 20
1.052093755355113
 10
2.098886418613957
 20
1.052841255355113
 10
2.099399618613957
 20
1.053642255355113
 10
2.099886518613957
 20
1.054470355355113
 10
2.100347018613957
 20
1.055323755355113
 10
2.100781318613957
 20
1.056200755355113
 10
2.101189518613957
 20
1.057099555355113
 10
2.101571418613957
 20
1.058018455355113
 10
2.101927418613957
 20
1.058955655355113
 10
2.102257318613957
 20
1.059909255355113
 10
2.102561218613957
 20
1.060877755355113
 10
2.102839318613957
 20
1.061859155355113
 10
2.103091618613957
 20
1.062851855355113
 10
2.103318118613957
 20
1.063854055355113
 10
2.103518818613957
 20
1.064863955355113
 10
2.103694018613957
 20
1.065879755355113
 10
2.103843618613957
 20
1.066899855355113
 10
2.103967618613957
 20
1.067922355355113
 10
2.104066218613957
 20
1.068945455355113
 10
2.104139418613957
 20
1.069967555355113
 10
2.104187318613957
 20
1.070986755355113
 10
2.104209918613957
 20
1.072001355355113
 10
2.104207318613957
 20
1.073009655355113
 10
2.104179518613957
 20
1.074009755355113
 10
2.104126718613957
 20
1.074999955355113
 10
2.104048818613957
 20
1.075978455355113
 10
2.103946018613957
 20
1.076943655355113
 10
2.103818218613957
 20
1.077893555355113
 10
2.103665718613957
 20
1.078826655355113
 10
2.103468818613957
 20
1.079797455355113
 10
2.103229318613957
 20
1.080754655355113
 10
2.102950018613957
 20
1.081698955355113
 10
2.102633818613957
 20
1.082630855355113
 10
2.102283618613957
 20
1.083551255355113
 10
2.101902218613957
 20
1.084460855355113
 10
2.101492518613957
 20
1.085360255355113
 10
2.101057318613957
 20
1.086250155355113
 10
2.100599418613957
 20
1.087131355355113
 10
2.100121818613957
 20
1.088004555355113
 10
2.099627318613957
 20
1.088870455355113
 10
2.099118718613957
 20
1.089729655355113
 10
2.098599018613957
 20
1.090582955355113
 10
2.098070918613957
 20
1.091430955355113
 10
2.097537318613957
 20
1.092274555355113
 10
2.097001118613957
 20
1.093114255355113
 10
2.096465118613957
 20
1.093950855355113
 10
2.095932218613957
 20
1.094785155355113
 10
2.095405318613957
 20
1.095617655355113
 10
2.094887118613957
 20
1.096449155355113
 10
2.094380618613957
 20
1.097280455355113
 10
2.093888718613957
 20
1.098112055355113
 10
2.093452418613957
 20
1.098886855355113
 10
2.093018918613957
 20
1.099703955355113
 10
2.092589018613957
 20
1.100559155355113
 10
2.092163318613957
 20
1.101448155355113
 10
2.091742618613957
 20
1.102366755355113
 10
2.091327718613957
 20
1.103310855355113
 10
2.090919318613957
 20
1.104276055355113
 10
2.090518218613957
 20
1.105258155355113
 10
2.090125018613957
 20
1.106253055355113
 10
2.089740718613957
 20
1.107256355355113
 10
2.089365818613957
 20
1.108263955355113
 10
2.089001218613957
 20
1.109271555355113
 10
2.088647618613957
 20
1.110274955355113
 10
2.088305818613957
 20
1.111269955355113
 10
2.087976518613957
 20
1.112252355355113
 10
2.087660418613957
 20
1.113217855355113
 10
2.087358418613957
 20
1.114162255355113
 10
2.087071118613957
 20
1.115081355355113
 10
2.086799318613957
 20
1.115970855355113
 10
2.086543818613957
 20
1.116826655355113
 10
2.086291018613957
 20
1.117765155355113
 10
2.086080518613957
 20
1.118716655355113
 10
2.085909418613957
 20
1.119680155355113
 10
2.085774418613957
 20
1.120654555355113
 10
2.085672618613957
 20
1.121638855355113
 10
2.085600718613957
 20
1.122631955355113
 10
2.085555718613957
 20
1.123632955355113
 10
2.085534618613957
 20
1.124640755355113
 10
2.085534118613957
 20
1.125654455355113
 10
2.085551318613957
 20
1.126672855355113
 10
2.085583118613957
 20
1.127694955355113
 10
2.085626218613957
 20
1.128719855355113
 10
2.085677818613957
 20
1.129746455355113
 10
2.085734518613957
 20
1.130773755355113
 10
2.085793518613957
 20
1.131800655355113
 10
2.085851518613957
 20
1.132826255355113
 10
2.085905518613957
 20
1.133849455355113
 10
2.085952318613957
 20
1.134869255355113
 10
2.085989018613957
 20
1.135884655355113
 10
2.086012418613957
 20
1.136894555355113
 10
2.086019318613957
 20
1.137898055355113
 10
2.086006818613957
 20
1.138893955355113
 10
2.085971718613957
 20
1.139881355355113
 10
2.085911018613957
 20
1.140859255355113
 10
2.085821518613957
 20
1.141826655355113
 10
2.085685818613957
 20
1.142833355355113
 10
2.085502918613957
 20
1.143815255355113
 10
2.085275218613957
 20
1.144773555355113
 10
2.085005018613957
 20
1.145709555355113
 10
2.084694818613957
 20
1.146624455355113
 10
2.084347018613957
 20
1.147519655355113
 10
2.083963918613957
 20
1.148396255355113
 10
2.083548018613957
 20
1.149255655355113
 10
2.083101618613957
 20
1.150099055355113
 10
2.082627218613957
 20
1.150927855355113
 10
2.082127118613957
 20
1.151743055355113
 10
2.081603718613957
 20
1.152546255355113
 10
2.081059618613957
 20
1.153338455355113
 10
2.080496918613957
 20
1.154121055355113
 10
2.079918218613957
 20
1.154895255355113
 10
2.079325818613957
 20
1.155662455355113
 10
2.078722118613957
 20
1.156423755355113
 10
2.078109618613957
 20
1.157180555355113
 10
2.077490618613957
 20
1.157934055355113
 10
2.076867518613957
 20
1.158685555355113
 10
2.076242818613957
 20
1.159436355355113
 10
2.075618718613957
 20
1.160187555355113
 10
2.074997818613957
 20
1.160940655355113
 10
2.074382418613957
 20
1.161696755355113
 10
2.073774918613957
 20
1.162457255355113
 10
2.073177718613957
 20
1.163223355355113
 10
2.072593218613957
 20
1.163996355355113
 10
2.072024118613957
 20
1.164817555355113
 10
2.071492318613957
 20
1.165677255355113
 10
2.070982918613957
 20
1.166560955355113
 10
2.070480718613957
 20
1.167454555355113
 10
2.069970818613957
 20
1.168343755355113
 10
2.069438318613957
 20
1.169214155355113
 10
2.068868118613957
 20
1.170051555355113
 10
2.068245418613957
 20
1.170841755355113
 10
2.067555018613957
 20
1.171570355355113
 10
2.066782218613957
 20
1.172223255355113
 10
2.065937318613957
 20
1.172761355355113
 10
2.065036518613957
 20
1.173174255355113
 10
2.064089218613957
 20
1.173477455355113
 10
2.063105218613957
 20
1.173686655355113
 10
2.062094018613957
 20
1.173817255355113
 10
2.061065218613957
 20
1.173885055355113
 10
2.060028518613957
 20
1.173905555355113
 10
2.058993618613957
 20
1.173894355355113
 10
2.057969918613957
 20
1.173867055355113
 10
2.056967218613957
 20
1.173839255355113
 10
2.055995218613957
 20
1.173826655355113
 10
2.055014718613957
 20
1.173821755355113
 10
2.054027818613957
 20
1.173808255355113
 10
2.053035218613957
 20
1.173787555355113
 10
2.052037518613957
 20
1.173761055355113
 10
2.051035418613957
 20
1.173730455355113
 10
2.050029718613957
 20
1.173697155355113
 10
2.049020918613957
 20
1.173662655355113
 10
2.048009818613957
 20
1.173628655355113
 10
2.046997018613957
 20
1.173596355355113
 10
2.045983418613957
 20
1.173567555355113
 10
2.044969418613957
 20
1.173543655355113
 10
2.043955918613957
 20
1.173526055355113
 10
2.042943518613957
 20
1.173516455355113
 10
2.041932918613957
 20
1.173516355355113
 10
2.040924818613957
 20
1.173527055355113
 10
2.039919818613957
 20
1.173550355355113
 10
2.038918718613957
 20
1.173587555355113
 10
2.037922218613957
 20
1.173640355355113
 10
2.036930918613957
 20
1.173710055355113
 10
2.035945518613957
 20
1.173798255355113
 10
2.034966718613957
 20
1.173906555355113
 10
2.033995218613957
 20
1.174036455355113
 10
2.032974818613957
 20
1.174230855355113
 10
2.031988718613957
 20
1.174503255355113
 10
2.031031718613957
 20
1.174841555355113
 10
2.030098918613957
 20
1.175233755355113
 10
2.029185318613957
 20
1.175667855355113
 10
2.028285718613957
 20
1.176131955355113
 10
2.027395218613957
 20
1.176613955355113
 10
2.026508818613957
 20
1.177102055355113
 10
2.025621418613957
 20
1.177584055355113
 10
2.024728018613957
 20
1.178048055355113
 10
2.023823518613957
 20
1.178482155355113
 10
2.022903118613957
 20
1.178874355355113
 10
2.021961518613957
 20
1.179212555355113
 10
2.020993918613957
 20
1.179484855355113
 10
2.019995218613957
 20
1.179679255355113
 10
2.018954118613957
 20
1.179818855355113
 10
2.017919118613957
 20
1.179927755355113
 10
2.016889618613957
 20
1.180007555355113
 10
2.015865518613957
 20
1.180059755355113
 10
2.014846318613957
 20
1.180085955355113
 10
2.013831718613957
 20
1.180087855355113
 10
2.012821418613957
 20
1.180067055355113
 10
2.011815118613957
 20
1.180025055355113
 10
2.010812418613957
 20
1.179963655355113
 10
2.009813118613957
 20
1.179884255355113
 10
2.008816718613957
 20
1.179788655355113
 10
2.007822918613957
 20
1.179678255355113
 10
2.006831518613957
 20
1.179554855355113
 10
2.005842118613957
 20
1.179420055355113
 10
2.004854318613957
 20
1.179275355355113
 10
2.003867818613957
 20
1.179122455355113
 10
2.002882418613957
 20
1.178962955355113
 10
2.001897618613957
 20
1.178798355355113
 10
2.000913118613957
 20
1.178630355355113
 10
1.999928618613957
 20
1.178460655355113
 10
1.998943918613957
 20
1.178290655355113
 10
1.997958418613957
 20
1.178122155355113
 10
1.996972018613957
 20
1.177956655355113
 10
1.995984218613957
 20
1.177795855355113
 10
1.994994818613957
 20
1.177641255355113
 10
1.994003518613957
 20
1.177494555355113
 10
1.993009818613957
 20
1.177357355355113
 10
1.992013418613957
 20
1.177231255355113
 10
1.991014218613957
 20
1.177117855355113
 10
1.990011618613957
 20
1.177018655355113
 10
1.989005318613957
 20
1.176935455355113
 10
1.987995218613957
 20
1.176869855355113
 10
1.987017218613957
 20
1.176821155355113
 10
1.986035618613957
 20
1.176783355355113
 10
1.985050518613957
 20
1.176755855355113
 10
1.984062218613957
 20
1.176738055355113
 10
1.983070818613957
 20
1.176729255355113
 10
1.982076418613957
 20
1.176728855355113
 10
1.981079318613957
 20
1.176736155355113
 10
1.980079718613957
 20
1.176750555355113
 10
1.979077718613957
 20
1.176771455355113
 10
1.978073618613957
 20
1.176798155355113
 10
1.977067418613957
 20
1.176830055355113
 10
1.976059518613957
 20
1.176866455355113
 10
1.975049918613957
 20
1.176906855355113
 10
1.974038918613957
 20
1.176950455355113
 10
1.973026718613957
 20
1.176996755355113
 10
1.972013418613957
 20
1.177044955355113
 10
1.970999218613957
 20
1.177094655355113
 10
1.969984318613957
 20
1.177144955355113
 10
1.968968918613957
 20
1.177195455355113
 10
1.967953218613957
 20
1.177245355355113
 10
1.966937418613957
 20
1.177294055355113
 10
1.965921618613957
 20
1.177340955355113
 10
1.964906018613957
 20
1.177385455355113
 10
1.963890818613957
 20
1.177426755355113
 10
1.962876318613957
 20
1.177464455355113
 10
1.961862518613957
 20
1.177497655355113
 10
1.960849718613957
 20
1.177525955355113
 10
1.959838018613957
 20
1.177548555355113
 10
1.958827718613957
 20
1.177564855355113
 10
1.957818918613957
 20
1.177574255355113
 10
1.956811818613957
 20
1.177576055355113
 10
1.955806618613957
 20
1.177569755355113
 10
1.954803418613957
 20
1.177554555355113
 10
1.953802618613957
 20
1.177529855355113
 10
1.952804218613957
 20
1.177495155355113
 10
1.951808418613957
 20
1.177449655355113
 10
1.950815418613957
 20
1.177392755355113
 10
1.949825418613957
 20
1.177323855355113
 10
1.948838618613957
 20
1.177242355355113
 10
1.947855218613957
 20
1.177147455355113
 10
1.946875418613957
 20
1.177038755355113
 10
1.945899218613957
 20
1.176915355355113
 10
1.944927018613957
 20
1.176776855355113
 10
1.943958918613957
 20
1.176622455355113
 10
1.942995218613957
 20
1.176451655355113
 10
1.942045018613957
 20
1.176282655355113
 10
1.941054018613957
 20
1.176117955355113
 10
1.940031718613957
 20
1.175952855355113
 10
1.938987618613957
 20
1.175782455355113
 10
1.937931218613957
 20
1.175601955355113
 10
1.936872218613957
 20
1.175406655355113
 10
1.935819918613957
 20
1.175191555355113
 10
1.934784118613957
 20
1.174951955355113
 10
1.933774118613957
 20
1.174683055355113
 10
1.932799718613957
 20
1.174379955355113
 10
1.931870118613957
 20
1.174037955355113
 10
1.930995218613957
 20
1.173652255355113
 10
1.930121518613957
 20
1.173204755355113
 10
1.929263218613957
 20
1.172720455355113
 10
1.928418218613957
 20
1.172204155355113
 10
1.927584418613957
 20
1.171660755355113
 10
1.926759718613957
 20
1.171095155355113
 10
1.925942018613957
 20
1.170512155355113
 10
1.925129318613957
 20
1.169916655355113
 10
1.924319318613957
 20
1.169313555355113
 10
1.923510118613957
 20
1.168707555355113
 10
1.922699418613957
 20
1.168103755355113
 10
1.921885318613957
 20
1.167506855355113
 10
1.921065618613957
 20
1.166921655355113
 10
1.920238318613957
 20
1.166353255355113
 10
1.919401118613957
 20
1.165806355355113
 10
1.918552118613957
 20
1.165285855355113
 10
1.917689018613957
 20
1.164796555355113
 10
1.916810018613957
 20
1.164343455355113
 10
1.915912718613957
 20
1.163931255355113
 10
1.914995218613957
 20
1.163565055355113
 10
1.914070218613957
 20
1.163267755355113
 10
1.913114718613957
 20
1.163039355355113
 10
1.912133418613957
 20
1.162871855355113
 10
1.911131318613957
 20
1.162757555355113
 10
1.910113418613957
 20
1.162688455355113
 10
1.909084718613957
 20
1.162656855355113
 10
1.908050118613957
 20
1.162654955355113
 10
1.907014518613957
 20
1.162674755355113
 10
1.905982818613957
 20
1.162708555355113
 10
1.904960118613957
 20
1.162748455355113
 10
1.903951318613957
 20
1.162786655355113
 10
1.902961418613957
 20
1.162815355355113
 10
1.901995218613957
 20
1.162826655355113
 10
1.901937418613957
 20
1.163850755355113
 10
1.901819218613957
 20
1.164840655355113
 10
1.901646918613957
 20
1.165799555355113
 10
1.901427518613957
 20
1.166731155355113
 10
1.901167518613957
 20
1.167638855355113
 10
1.900873518613957
 20
1.168526255355113
 10
1.900552318613957
 20
1.169396855355113
 10
1.900210518613957
 20
1.170254155355113
 10
1.899854818613957
 20
1.171101655355113
 10
1.899491818613957
 20
1.171942955355113
 10
1.899128218613957
 20
1.172781355355113
 10
1.898770618613957
 20
1.173620555355113
 10
1.898425918613957
 20
1.174464055355113
 10
1.898100418613957
 20
1.175315255355113
 10
1.897801118613957
 20
1.176177855355113
 10
1.897534518613957
 20
1.177055155355113
 10
1.897307318613957
 20
1.177950755355113
 10
1.897126118613957
 20
1.178868255355113
 10
1.896997618613957
 20
1.179811055355113
 10
1.896928518613957
 20
1.180782655355113
 10
1.896925518613957
 20
1.181786755355113
 10
1.896995218613957
 20
1.182826655355113
 10
1.895996718613957
 20
1.183047855355113
 10
1.894996318613957
 20
1.183237455355113
 10
1.893994218613957
 20
1.183396555355113
 10
1.892990418613957
 20
1.183526355355113
 10
1.891985218613957
 20
1.183627855355113
 10
1.890978818613957
 20
1.183702355355113
 10
1.889971318613957
 20
1.183750855355113
 10
1.888963118613957
 20
1.183774555355113
 10
1.887954118613957
 20
1.183774555355113
 10
1.886944718613957
 20
1.183752155355113
 10
1.885934918613957
 20
1.183708255355113
 10
1.884925118613957
 20
1.183644155355113
 10
1.883915418613957
 20
1.183560955355113
 10
1.882905918613957
 20
1.183459755355113
 10
1.881896918613957
 20
1.183341855355113
 10
1.880888618613957
 20
1.183208155355113
 10
1.879881118613957
 20
1.183059955355113
 10
1.878874518613957
 20
1.182898255355113
 10
1.877869218613957
 20
1.182724355355113
 10
1.876865318613957
 20
1.182539355355113
 10
1.875863018613957
 20
1.182344355355113
 10
1.874862518613957
 20
1.182140455355113
 10
1.873863918613957
 20
1.181928955355113
 10
1.872867418613957
 20
1.181710755355113
 10
1.871873318613957
 20
1.181487155355113
 10
1.870881618613957
 20
1.181259355355113
 10
1.869892718613957
 20
1.181028355355113
 10
1.868906718613957
 20
1.180795355355113
 10
1.867923718613957
 20
1.180561455355113
 10
1.866944018613957
 20
1.180327755355113
 10
1.865967818613957
 20
1.180095555355113
 10
1.864995218613957
 20
1.179865955355113
 10
1.863983718613957
 20
1.179649555355113
 10
1.862961718613957
 20
1.179464455355113
 10
1.861933218613957
 20
1.179298655355113
 10
1.860902218613957
 20
1.179139955355113
 10
1.859872718613957
 20
1.178976255355113
 10
1.858848818613957
 20
1.178795555355113
 10
1.857834618613957
 20
1.178585855355113
 10
1.856834018613957
 20
1.178334955355113
 10
1.855851318613957
 20
1.178030855355113
 10
1.854890318613957
 20
1.177661355355113
 10
1.853955118613957
 20
1.177214655355113
 10
1.853049918613957
 20
1.176678455355113
 10
1.852272618613957
 20
1.176118955355113
 10
1.851546118613957
 20
1.175502955355113
 10
1.850865018613957
 20
1.174836155355113
 10
1.850224218613957
 20
1.174124055355113
 10
1.849618518613957
 20
1.173372455355113
 10
1.849042618613957
 20
1.172587055355113
 10
1.848491418613957
 20
1.171773455355113
 10
1.847959718613957
 20
1.170937455355113
 10
1.847442218613957
 20
1.170084555355113
 10
1.846933718613957
 20
1.169220555355113
 10
1.846429118613957
 20
1.168351155355113
 10
1.845923018613957
 20
1.167481855355113
 10
1.845410418613957
 20
1.166618555355113
 10
1.844886018613957
 20
1.165766855355113
 10
1.844344618613957
 20
1.164932355355113
 10
1.843781018613957
 20
1.164120855355113
 10
1.843190018613957
 20
1.163337855355113
 10
1.842566318613957
 20
1.162589255355113
 10
1.841904918613957
 20
1.161880655355113
 10
1.841197918613957
 20
1.161188955355113
 10
1.840468318613957
 20
1.160513655355113
 10
1.839717518613957
 20
1.159853955355113
 10
1.838946618613957
 20
1.159209255355113
 10
1.838157018613957
 20
1.158578855355113
 10
1.837350018613957
 20
1.157962055355113
 10
1.836526818613957
 20
1.157358255355113
 10
1.835688718613957
 20
1.156766755355113
 10
1.834836918613957
 20
1.156186955355113
 10
1.833972818613957
 20
1.155618055355113
 10
1.833097618613957
 20
1.155059555355113
 10
1.832212618613957
 20
1.154510555355113
 10
1.831319118613957
 20
1.153970655355113
 10
1.830418418613957
 20
1.153438955355113
 10
1.829511718613957
 20
1.152914955355113
 10
1.828600318613957
 20
1.152397955355113
 10
1.827685518613957
 20
1.151887255355113
 10
1.826768518613957
 20
1.151382155355113
 10
1.825850718613957
 20
1.150881955355113
 10
1.824933218613957
 20
1.150386155355113
 10
1.824017518613957
 20
1.149893955355113
 10
1.823104718613957
 20
1.149404755355113
 10
1.822196218613957
 20
1.148917755355113
 10
1.821293218613957
 20
1.148432455355113
 10
1.820397018613957
 20
1.147948155355113
 10
1.819508818613957
 20
1.147464155355113
 10
1.818630018613957
 20
1.146979655355113
 10
1.817761818613957
 20
1.146494255355113
 10
1.816905618613957
 20
1.146007155355113
 10
1.816039818613957
 20
1.145509755355113
 10
1.815172218613957
 20
1.145011555355113
 10
1.814302718613957
 20
1.144512655355113
 10
1.813431218613957
 20
1.144013255355113
 10
1.812557918613957
 20
1.143513655355113
 10
1.811682618613957
 20
1.143014055355113
 10
1.810805418613957
 20
1.142514855355113
 10
1.809926318613957
 20
1.142016055355113
 10
1.809045418613957
 20
1.141518055355113
 10
1.808162518613957
 20
1.141021055355113
 10
1.807277818613957
 20
1.140525355355113
 10
1.806391118613957
 20
1.140031055355113
 10
1.805502618613957
 20
1.139538555355113
 10
1.804612318613957
 20
1.139048055355113
 10
1.803720018613957
 20
1.138559755355113
 10
1.802825918613957
 20
1.138073955355113
 10
1.801930018613957
 20
1.137590755355113
 10
1.801032118613957
 20
1.137110555355113
 10
1.800132518613957
 20
1.136633655355113
 10
1.799230918613957
 20
1.136160055355113
 10
1.798327618613957
 20
1.135690255355113
 10
1.797422418613957
 20
1.135224255355113
 10
1.796515318613957
 20
1.134762555355113
 10
1.795606418613957
 20
1.134305155355113
 10
1.794695718613957
 20
1.133852455355113
 10
1.793783218613957
 20
1.133404655355113
 10
1.792868818613957
 20
1.132962055355113
 10
1.791952718613957
 20
1.132524755355113
 10
1.791034718613957
 20
1.132093155355113
 10
1.790114918613957
 20
1.131667355355113
 10
1.789193318613957
 20
1.131247655355113
 10
1.788270018613957
 20
1.130834355355113
 10
1.787344818613957
 20
1.130427655355113
 10
1.786417818613957
 20
1.130027855355113
 10
1.785489018613957
 20
1.129635055355113
 10
1.784558518613957
 20
1.129249655355113
 10
1.783626218613957
 20
1.128871755355113
 10
1.782692118613957
 20
1.128501655355113
 10
1.781756218613957
 20
1.128139755355113
 10
1.780818618613957
 20
1.127786055355113
 10
1.779879218613957
 20
1.127440855355113
 10
1.778938118613957
 20
1.127104555355113
 10
1.777995218613957
 20
1.126777255355113
 10
1.777143818613957
 20
1.126499855355113
 10
1.776268718613957
 20
1.126238755355113
 10
1.775373618613957
 20
1.125989755355113
 10
1.774462018613957
 20
1.125749055355113
 10
1.773537818613957
 20
1.125512655355113
 10
1.772604418613957
 20
1.125276855355113
 10
1.771665618613957
 20
1.125037555355113
 10
1.770725018613957
 20
1.124790955355113
 10
1.769786218613957
 20
1.124533155355113
 10
1.768853018613957
 20
1.124260055355113
 10
1.767928818613957
 20
1.123967955355113
 10
1.767017518613957
 20
1.123652955355113
 10
1.766122618613957
 20
1.123310955355113
 10
1.765247818613957
 20
1.122938155355113
 10
1.764396718613957
 20
1.122530755355113
 10
1.763573018613957
 20
1.122084655355113
 10
1.762780418613957
 20
1.121596055355113
 10
1.762022418613957
 20
1.121060955355113
 10
1.761302818613957
 20
1.120475655355113
 10
1.760625118613957
 20
1.119835955355113
 10
1.759993018613957
 20
1.119138255355113
 10
1.759410318613957
 20
1.118378355355113
 10
1.758880418613957
 20
1.117552555355113
 10
1.758407218613957
 20
1.116656855355113
 10
1.758069418613957
 20
1.115796555355113
 10
1.757879418613957
 20
1.114959755355113
 10
1.757826318613957
 20
1.114145455355113
 10
1.757899018613957
 20
1.113352555355113
 10
1.758086318613957
 20
1.112580255355113
 10
1.758377318613957
 20
1.111827455355113
 10
1.758760918613957
 20
1.111093155355113
 10
1.759226018613957
 20
1.110376255355113
 10
1.759761518613957
 20
1.109675955355113
 10
1.760356518613957
 20
1.108991055355113
 10
1.760999918613957
 20
1.108320755355113
 10
1.761680518613957
 20
1.107663855355113
 10
1.762387318613957
 20
1.107019555355113
 10
1.763109418613957
 20
1.106386655355113
 10
1.763835618613957
 20
1.105764255355113
 10
1.764554818613957
 20
1.105151355355113
 10
1.765256018613957
 20
1.104547055355113
 10
1.765928218613957
 20
1.103950155355113
 10
1.766560318613957
 20
1.103359755355113
 10
1.767141318613957
 20
1.102774855355113
 10
1.767660018613957
 20
1.102194455355113
 10
1.768105518613957
 20
1.101617455355113
 10
1.768644318613957
 20
1.100754355355113
 10
1.769081918613957
 20
1.099850855355113
 10
1.769425918613957
 20
1.098912355355113
 10
1.769683918613957
 20
1.097944355355113
 10
1.769863718613957
 20
1.096952255355113
 10
1.769972918613957
 20
1.095941555355113
 10
1.770019218613957
 20
1.094917755355113
 10
1.770010318613957
 20
1.093886155355113
 10
1.769953818613957
 20
1.092852455355113
 10
1.769857418613957
 20
1.091821855355113
 10
1.769728918613957
 20
1.090800055355113
 10
1.769575718613957
 20
1.089792355355113
 10
1.769405718613957
 20
1.088804255355113
 10
1.769226618613957
 20
1.087841255355113
 10
1.769029418613957
 20
1.086924055355113
 10
1.768793218613957
 20
1.086021755355113
 10
1.768520418613957
 20
1.085133355355113
 10
1.768213718613957
 20
1.084258055355113
 10
1.767875618613957
 20
1.083394855355113
 10
1.767508818613957
 20
1.082542955355113
 10
1.767115818613957
 20
1.081701455355113
 10
1.766699318613957
 20
1.080869355355113
 10
1.766261818613957
 20
1.080045955355113
 10
1.765806018613957
 20
1.079230255355113
 10
1.765334518613957
 20
1.078421455355113
 10
1.764849718613957
 20
1.077618455355113
 10
1.764354418613957
 20
1.076820655355113
 10
1.763851218613957
 20
1.076026955355113
 10
1.763342618613957
 20
1.075236555355113
 10
1.762831218613957
 20
1.074448555355113
 10
1.762319718613957
 20
1.073662055355113
 10
1.761810618613957
 20
1.072876255355113
 10
1.761306518613957
 20
1.072090055355113
 10
1.760810118613957
 20
1.071302855355113
 10
1.760323818613957
 20
1.070513555355113
 10
1.759850518613957
 20
1.069721255355113
 10
1.759392518613957
 20
1.068925255355113
 10
1.758952618613957
 20
1.068124555355113
 10
1.758533318613957
 20
1.067318255355113
 10
1.758137218613957
 20
1.066505455355113
 10
1.757766918613957
 20
1.065685255355113
 10
1.757425118613957
 20
1.064856855355113
 10
1.757114218613957
 20
1.064019355355113
 10
1.756837018613957
 20
1.063171855355113
 10
1.756596018613957
 20
1.062313455355113
 10
1.756393818613957
 20
1.061443155355113
 10
1.756233018613957
 20
1.060560255355113
 10
1.756116318613957
 20
1.059663755355113
 10
1.756046118613957
 20
1.058752855355113
 10
1.756025218613957
 20
1.057826655355113
 10
1.756061818613957
 20
1.056938355355113
 10
1.756160818613957
 20
1.056095455355113
 10
1.756319118613957
 20
1.055295555355113
 10
1.756533418613957
 20
1.054536155355113
 10
1.756800618613957
 20
1.053815055355113
 10
1.757117618613957
 20
1.053129655355113
 10
1.757481318613957
 20
1.052477655355113
 10
1.757888418613957
 20
1.051856755355113
 10
1.758335818613957
 20
1.051264255355113
 10
1.758820418613957
 20
1.050698055355113
 10
1.759338918613957
 20
1.050155655355113
 10
1.759888418613957
 20
1.049634655355113
 10
1.760465518613957
 20
1.049132555355113
 10
1.761067218613957
 20
1.048647155355113
 10
1.761690318613957
 20
1.048175855355113
 10
1.762331618613957
 20
1.047716455355113
 10
1.762988118613957
 20
1.047266355355113
 10
1.763656418613957
 20
1.046823255355113
 10
1.764333618613957
 20
1.046384855355113
 10
1.765016418613957
 20
1.045948555355113
 10
1.765701718613957
 20
1.045512055355113
 10
1.766386418613957
 20
1.045072955355113
 10
1.767067218613957
 20
1.044628955355113
 10
1.767741018613957
 20
1.044177455355113
 10
1.768404718613957
 20
1.043716255355113
 10
1.769055218613957
 20
1.043242755355113
 10
1.769689218613957
 20
1.042754755355113
 10
1.770303718613957
 20
1.042249655355113
 10
1.770895418613957
 20
1.041725255355113
 10
1.771461218613957
 20
1.041179055355113
 10
1.771998018613957
 20
1.040608655355113
 10
1.772502718613957
 20
1.040011655355113
 10
1.772971918613957
 20
1.039385755355113
 10
1.773402718613957
 20
1.038728355355113
 10
1.773791918613957
 20
1.038037255355113
 10
1.774136218613957
 20
1.037309855355113
 10
1.774432618613957
 20
1.036543955355113
 10
1.774678018613957
 20
1.035737055355113
 10
1.774892618613957
 20
1.034800855355113
 10
1.775052418613957
 20
1.033843255355113
 10
1.775163818613957
 20
1.032867455355113
 10
1.775233218613957
 20
1.031876155355113
 10
1.775266718613957
 20
1.030872655355113
 10
1.775270918613957
 20
1.029859955355113
 10
1.775252118613957
 20
1.028840855355113
 10
1.775216518613957
 20
1.027818655355113
 10
1.775170718613957
 20
1.026796155355113
 10
1.775120918613957
 20
1.025776555355113
 10
1.775073418613957
 20
1.024762755355113
 10
1.775034718613957
 20
1.023757855355113
 10
1.775011118613957
 20
1.022764855355113
 10
1.775008918613957
 20
1.021786755355113
 10
1.775034518613957
 20
1.020826655355113
 10
1.775073918613957
 20
1.019850555355113
 10
1.775107118613957
 20
1.018870155355113
 10
1.775134718613957
 20
1.017885755355113
 10
1.775157118613957
 20
1.016897455355113
 10
1.775174718613957
 20
1.015905655355113
 10
1.775188018613957
 20
1.014910555355113
 10
1.775197418613957
 20
1.013912355355113
 10
1.775203418613957
 20
1.012911255355113
 10
1.775206418613957
 20
1.011907655355113
 10
1.775207018613957
 20
1.010901755355113
 10
1.775205518613957
 20
1.009893755355113
 10
1.775202418613957
 20
1.008883855355113
 10
1.775198218613957
 20
1.007872455355113
 10
1.775193318613957
 20
1.006859655355113
 10
1.775188218613957
 20
1.005845755355113
 10
1.775183318613957
 20
1.004830955355113
 10
1.775179218613957
 20
1.003815655355113
 10
1.775176118613957
 20
1.002799955355113
 10
1.775174718613957
 20
1.001784155355113
 10
1.775175418613957
 20
1.000768555355113
 10
1.775178518613957
 20
0.9997532553551133
 10
1.775184618613957
 20
0.9987386553551132
 10
1.775194218613957
 20
0.9977248553551131
 10
1.775207618613957
 20
0.9967122553551131
 10
1.775225318613957
 20
0.9957010553551132
 10
1.775247918613957
 20
0.9946914553551133
 10
1.775275718613957
 20
0.9936836553551133
 10
1.775309218613957
 20
0.9926780553551132
 10
1.775348818613957
 20
0.9916747553551131
 10
1.775395118613957
 20
0.9906741553551132
 10
1.775448418613957
 20
0.9896763553551132
 10
1.775509318613957
 20
0.9886816553551131
 10
1.775578118613957
 20
0.9876903553551132
 10
1.775655418613957
 20
0.9867025553551131
 10
1.775741518613957
 20
0.985718655355113
 10
1.775837018613957
 20
0.9847389553551131
 10
1.775942318613957
 20
0.9837634553551131
 10
1.776057918613957
 20
0.9827926553551133
 10
1.776184218613957
 20
0.9818266553551133
 10
1.776349618613957
 20
0.9808635553551132
 10
1.776575218613957
 20
0.9799254553551131
 10
1.776855718613957
 20
0.9790099553551133
 10
1.777185618613957
 20
0.9781148553551131
 10
1.777559418613957
 20
0.9772378553551131
 10
1.777971918613957
 20
0.9763767553551133
 10
1.778417618613957
 20
0.9755291553551131
 10
1.778891118613957
 20
0.9746929553551131
 10
1.779387018613957
 20
0.9738658553551132
 10
1.779899818613957
 20
0.9730456553551132
 10
1.780424318613957
 20
0.9722299553551131
 10
1.780954918613957
 20
0.9714165553551133
 10
1.781486318613957
 20
0.9706031553551131
 10
1.782013118613957
 20
0.9697875553551131
 10
1.782529818613957
 20
0.9689674553551132
 10
1.783031118613957
 20
0.9681407553551132
 10
1.783511618613957
 20
0.967304955355113
 10
1.783965818613957
 20
0.9664578553551132
 10
1.784388418613957
 20
0.9655973553551133
 10
1.784774018613957
 20
0.9647209553551132
 10
1.785117118613957
 20
0.9638266553551131
 10
1.785430818613957
 20
0.9628175553551132
 10
1.785674118613957
 20
0.9618031553551132
 10
1.785868018613957
 20
0.9607859553551133
 10
1.786033218613957
 20
0.9597689553551131
 10
1.786190718613957
 20
0.9587548553551133
 10
1.786361418613957
 20
0.9577462553551132
 10
1.786566118613957
 20
0.9567461553551131
 10
1.786825718613957
 20
0.9557570553551132
 10
1.787161218613957
 20
0.9547819553551132
 10
1.787593418613957
 20
0.9538234553551133
 10
1.788143318613957
 20
0.9528844553551131
 10
1.788684218613957
 20
0.9521403553551131
 10
1.789271918613957
 20
0.9514626553551131
 10
1.789902918613957
 20
0.9508463553551131
 10
1.790574018613957
 20
0.9502865553551131
 10
1.791281618613957
 20
0.9497784553551131
 10
1.792022518613957
 20
0.9493168553551132
 10
1.792793218613957
 20
0.9488971553551131
 10
1.793590518613957
 20
0.9485141553551132
 10
1.794410818613957
 20
0.9481631553551132
 10
1.795250818613957
 20
0.9478391553551132
 10
1.796107218613957
 20
0.9475371553551132
 10
1.796976618613957
 20
0.9472522553551133
 10
1.797855518613957
 20
0.9469796553551132
 10
1.798740618613957
 20
0.9467142553551132
 10
1.799628618613957
 20
0.9464513553551132
 10
1.800516018613957
 20
0.9461858553551131
 10
1.801399518613957
 20
0.9459128553551131
 10
1.802275618613957
 20
0.9456274553551132
 10
1.803141118613957
 20
0.9453248553551132
 10
1.803992518613957
 20
0.9449998553551132
 10
1.804826518613957
 20
0.9446478553551131
 10
1.805639618613957
 20
0.9442637553551131
 10
1.806428518613957
 20
0.9438425553551132
 10
1.807189818613957
 20
0.9433795553551131
 10
1.807920218613957
 20
0.9428696553551132
 10
1.808616318613957
 20
0.9423080553551132
 10
1.809355518613957
 20
0.9416484553551132
 10
1.810074418613957
 20
0.9409738553551132
 10
1.810773718613957
 20
0.9402847553551133
 10
1.811454318613957
 20
0.9395818553551132
 10
1.812116918613957
 20
0.9388656553551133
 10
1.812762518613957
 20
0.9381367553551132
 10
1.813391718613957
 20
0.9373959553551131
 10
1.814005418613957
 20
0.9366437553551133
 10
1.814604518613957
 20
0.9358808553551131
 10
1.815189818613957
 20
0.9351077553551132
 10
1.815762018613957
 20
0.9343251553551132
 10
1.816322118613957
 20
0.9335335553551132
 10
1.816870718613957
 20
0.9327338553551133
 10
1.817408818613957
 20
0.9319263553551133
 10
1.817937118613957
 20
0.9311119553551133
 10
1.818456518613957
 20
0.9302910553551132
 10
1.818967818613957
 20
0.9294643553551132
 10
1.819471818613957
 20
0.9286325553551131
 10
1.819969318613957
 20
0.9277961553551133
 10
1.820461118613957
 20
0.9269558553551132
 10
1.820948118613957
 20
0.9261122553551132
 10
1.821431118613957
 20
0.9252658553551132
 10
1.821910818613957
 20
0.9244175553551132
 10
1.822388218613957
 20
0.9235676553551131
 10
1.822864018613957
 20
0.9227170553551131
 10
1.823339018613957
 20
0.9218662553551132
 10
1.823814218613957
 20
0.9210157553551132
 10
1.824290118613957
 20
0.9201663553551131
 10
1.824767818613957
 20
0.9193186553551132
 10
1.825248018613957
 20
0.9184732553551132
 10
1.825731618613957
 20
0.9176306553551132
 10
1.826219318613957
 20
0.9167916553551131
 10
1.826711918613957
 20
0.9159567553551132
 10
1.827210418613957
 20
0.9151266553551131
 10
1.827715518613957
 20
0.9143018553551131
 10
1.828227918613957
 20
0.9134831553551132
 10
1.828748718613957
 20
0.9126710553551131
 10
1.829278518613957
 20
0.9118662553551132
 10
1.829818118613957
 20
0.9110692553551132
 10
1.830368518613957
 20
0.9102807553551132
 10
1.830930418613957
 20
0.9095013553551131
 10
1.831504618613957
 20
0.9087316553551133
 10
1.832091918613957
 20
0.9079723553551131
 10
1.832693318613957
 20
0.9072240553551132
 10
1.833309418613957
 20
0.9064873553551132
 10
1.833941118613957
 20
0.9057627553551132
 10
1.834589318613957
 20
0.9050511553551132
 10
1.835277718613957
 20
0.9043770553551132
 10
1.836015818613957
 20
0.9037705553551131
 10
1.836797618613957
 20
0.9032238553551131
 10
1.837617218613957
 20
0.9027291553551131
 10
1.838468518613957
 20
0.9022785553551132
 10
1.839345718613957
 20
0.9018644553551132
 10
1.840242818613957
 20
0.9014788553551131
 10
1.841153918613957
 20
0.9011140553551133
 10
1.842072918613957
 20
0.9007621553551132
 10
1.842994018613957
 20
0.9004155553551132
 10
1.843911118613957
 20
0.9000662553551132
 10
1.844818318613957
 20
0.8997066553551132
 10
1.845709718613957
 20
0.8993287553551132
 10
1.846579318613957
 20
0.8989248553551131
 10
1.847421118613957
 20
0.8984871553551132
 10
1.848229218613957
 20
0.898007855355113
 10
1.848997718613957
 20
0.8974791553551131
 10
1.849720518613957
 20
0.8968932553551132
 10
1.850391818613957
 20
0.8962424553551132
 10
1.850963518613957
 20
0.8955440553551133
 10
1.851395418613957
 20
0.8948259553551132
 10
1.851698918613957
 20
0.8940897553551131
 10
1.851885118613957
 20
0.8933370553551132
 10
1.851965518613957
 20
0.8925695553551131
 10
1.851951218613957
 20
0.8917888553551131
 10
1.851853518613957
 20
0.8909966553551132
 10
1.851683818613957
 20
0.8901943553551133
 10
1.851453318613957
 20
0.8893837553551133
 10
1.851173218613957
 20
0.8885665553551131
 10
1.850855018613957
 20
0.8877441553551131
 10
1.850509818613957
 20
0.8869183553551131
 10
1.850148918613957
 20
0.8860906553551131
 10
1.849783718613957
 20
0.8852627553551132
 10
1.849425418613957
 20
0.8844363553551131
 10
1.849085318613957
 20
0.8836129553551131
 10
1.848774618613957
 20
0.8827941553551131
 10
1.848504718613957
 20
0.8819817553551132
 10
1.848286918613957
 20
0.8811771553551132
 10
1.848132318613957
 20
0.8803821553551131
 10
1.848052418613957
 20
0.8795983553551131
 10
1.848058418613957
 20
0.8788273553551132
 10
1.848170918613957
 20
0.8779637553551131
 10
1.848382618613957
 20
0.8771337553551131
 10
1.848687218613957
 20
0.8763364553551131
 10
1.849078018613957
 20
0.8755711553551131
 10
1.849548518613957
 20
0.8748370553551133
 10
1.850092318613957
 20
0.8741334553551132
 10
1.850702918613957
 20
0.8734596553551131
 10
1.851373718613957
 20
0.8728147553551131
 10
1.852098318613957
 20
0.8721981553551131
 10
1.852870118613957
 20
0.8716090553551133
 10
1.853682718613957
 20
0.8710466553551132
 10
1.854529518613957
 20
0.8705101553551132
 10
1.855404018613957
 20
0.8699990553551131
 10
1.856299818613957
 20
0.8695122553551131
 10
1.857210418613957
 20
0.8690493553551132
 10
1.858129118613957
 20
0.8686093553551131
 10
1.859049618613957
 20
0.8681915553551132
 10
1.859965318613957
 20
0.8677952553551131
 10
1.860869718613957
 20
0.8674197553551133
 10
1.861756418613957
 20
0.8670641553551131
 10
1.862618718613957
 20
0.8667277553551132
 10
1.863450318613957
 20
0.8664099553551132
 10
1.864244618613957
 20
0.8661097553551131
 10
1.864995218613957
 20
0.8658266553551133
 10
1.865372918613957
 20
0.8667670553551133
 10
1.865787118613957
 20
0.8676651553551131
 10
1.866233718613957
 20
0.8685249553551132
 10
1.866708418613957
 20
0.8693503553551131
 10
1.867207418613957
 20
0.8701454553551132
 10
1.867726318613957
 20
0.8709140553551131
 10
1.868261218613957
 20
0.8716601553551132
 10
1.868807918613957
 20
0.8723877553551131
 10
1.869362318613957
 20
0.8731007553551132
 10
1.869920418613957
 20
0.8738030553551132
 10
1.870478018613957
 20
0.8744988553551131
 10
1.871031018613957
 20
0.8751918553551131
 10
1.871575318613957
 20
0.8758861553551131
 10
1.872106818613957
 20
0.8765856553551131
 10
1.872621518613957
 20
0.8772942553551132
 10
1.873115218613957
 20
0.8780160553551132
 10
1.873583718613957
 20
0.8787549553551132
 10
1.874023118613957
 20
0.8795148553551131
 10
1.874429218613957
 20
0.8802997553551131
 10
1.874797918613957
 20
0.8811136553551131
 10
1.875125118613957
 20
0.8819604553551132
 10
1.875406718613957
 20
0.8828440553551132
 10
1.875638718613957
 20
0.8837685553551132
 10
1.875816818613957
 20
0.8847378553551131
 10
1.875937018613957
 20
0.8857558553551132
 10
1.875995218613957
 20
0.8868266553551132
 10
1.876965218613957
 20
0.8868286553551133
 10
1.877959518613957
 20
0.8868335553551132
 10
1.878971218613957
 20
0.8868314553551131
 10
1.879993218613957
 20
0.8868125553551132
 10
1.881018718613957
 20
0.8867669553551131
 10
1.882040618613957
 20
0.8866848553551132
 10
1.883052118613957
 20
0.8865564553551132
 10
1.884046118613957
 20
0.8863719553551131
 10
1.885015818613957
 20
0.8861213553551133
 10
1.885954218613957
 20
0.8857950553551132
 10
1.886854318613957
 20
0.8853829553551133
 10
1.887709318613957
 20
0.8848753553551132
 10
1.888512118613957
 20
0.8842625553551132
 10
1.889276818613957
 20
0.8835257553551132
 10
1.889915118613957
 20
0.8827543553551132
 10
1.890439018613957
 20
0.8819509553551132
 10
1.890860118613957
 20
0.8811184553551132
 10
1.891190418613957
 20
0.8802594553551131
 10
1.891441718613957
 20
0.8793768553551132
 10
1.891625718613957
 20
0.8784734553551132
 10
1.891754418613957
 20
0.8775518553551131
 10
1.891839618613957
 20
0.8766150553551131
 10
1.891893118613957
 20
0.8756655553551132
 10
1.891926718613957
 20
0.8747063553551132
 10
1.891952318613957
 20
0.8737400553551132
 10
1.891981718613957
 20
0.8727694553551131
 10
1.892026718613957
 20
0.8717973553551132
 10
1.892099318613957
 20
0.8708266553551132
 10
1.892219318613957
 20
0.869753255355113
 10
1.892368718613957
 20
0.8687193553551132
 10
1.892537118613957
 20
0.8677172553551132
 10
1.892714218613957
 20
0.8667397553551133
 10
1.892889618613957
 20
0.8657793553551131
 10
1.893053118613957
 20
0.8648287553551131
 10
1.893194318613957
 20
0.8638805553551131
 10
1.893302918613957
 20
0.8629272553551132
 10
1.893368618613957
 20
0.8619615553551131
 10
1.893380918613957
 20
0.8609759553551132
 10
1.893329718613957
 20
0.8599632553551131
 10
1.893204618613957
 20
0.8589159553551132
 10
1.892995218613957
 20
0.8578266553551133
 10
1.893807018613957
 20
0.8578408553551131
 10
1.894664718613957
 20
0.8578812553551131
 10
1.895563618613957
 20
0.8579440553551131
 10
1.896499218613957
 20
0.8580253553551131
 10
1.897467118613957
 20
0.8581216553551131
 10
1.898462818613957
 20
0.8582289553551131
 10
1.899481618613957
 20
0.8583437553551132
 10
1.900519118613957
 20
0.8584621553551132
 10
1.901570818613957
 20
0.8585803553551132
 10
1.902632118613957
 20
0.8586948553551131
 10
1.903698618613957
 20
0.858801755355113
 10
1.904765718613957
 20
0.8588972553551132
 10
1.905829018613957
 20
0.8589777553551131
 10
1.906883818613957
 20
0.8590394553551131
 10
1.907925618613957
 20
0.8590785553551132
 10
1.908950118613957
 20
0.8590914553551131
 10
1.909952618613957
 20
0.859074255355113
 10
1.910928618613957
 20
0.8590232553551132
 10
1.911873618613957
 20
0.8589348553551131
 10
1.912783118613957
 20
0.8588050553551131
 10
1.913652618613957
 20
0.8586303553551132
 10
1.914477618613957
 20
0.8584069553551131
 10
1.915253518613957
 20
0.8581309553551131
 10
1.915975918613957
 20
0.8577988553551133
 10
1.916863918613957
 20
0.8572798553551132
 10
1.917631118613957
 20
0.8567170553551132
 10
1.918287818613957
 20
0.8561136553551131
 10
1.918844518613957
 20
0.8554732553551131
 10
1.919311418613957
 20
0.8547991553551131
 10
1.919698918613957
 20
0.8540947553551132
 10
1.920017418613957
 20
0.8533634553551133
 10
1.920277118613957
 20
0.8526087553551132
 10
1.920488518613957
 20
0.8518340553551132
 10
1.920661818613957
 20
0.851042655355113
 10
1.920807518613957
 20
0.8502380553551132
 10
1.920935918613957
 20
0.8494237553551132
 10
1.921057318613957
 20
0.8486029553551132
 10
1.921182118613957
 20
0.8477792553551132
 10
1.921320518613957
 20
0.8469558553551131
 10
1.921483118613957
 20
0.8461364553551131
 10
1.921680118613957
 20
0.8453242553551131
 10
1.921921818613957
 20
0.8445226553551131
 10
1.922218618613957
 20
0.8437352553551132
 10
1.922580918613957
 20
0.8429652553551132
 10
1.923019118613957
 20
0.8422162553551132
 10
1.923573018613957
 20
0.8414645553551132
 10
1.924200918613957
 20
0.8407822553551131
 10
1.924892418613957
 20
0.8401592553551131
 10
1.925636918613957
 20
0.8395853553551132
 10
1.926424218613957
 20
0.8390504553551132
 10
1.927243718613957
 20
0.8385444553551131
 10
1.928084918613957
 20
0.8380571553551131
 10
1.928937518613957
 20
0.8375784553551131
 10
1.929791118613957
 20
0.8370982553551131
 10
1.930635118613957
 20
0.8366062553551131
 10
1.931459118613957
 20
0.8360925553551131
 10
1.932252818613957
 20
0.8355468553551132
 10
1.933005618613957
 20
0.8349590553551131
 10
1.933707118613957
 20
0.8343190553551131
 10
1.934347018613957
 20
0.8336167553551131
 10
1.934955818613957
 20
0.8328329553551132
 10
1.935512318613957
 20
0.8320298553551131
 10
1.936018818613957
 20
0.8312083553551131
 10
1.936477618613957
 20
0.8303696553551132
 10
1.936890818613957
 20
0.8295146553551131
 10
1.937260718613957
 20
0.8286444553551131
 10
1.937589618613957
 20
0.8277600553551131
 10
1.937879718613957
 20
0.8268625553551132
 10
1.938133318613957
 20
0.8259529553551132
 10
1.938352618613957
 20
0.8250322553551132
 10
1.938539918613957
 20
0.8241016553551132
 10
1.938697418613957
 20
0.8231620553551131
 10
1.938827318613957
 20
0.8222144553551132
 10
1.938931918613957
 20
0.8212600553551132
 10
1.939013518613957
 20
0.8202997553551131
 10
1.939074318613957
 20
0.8193347553551133
 10
1.939116618613957
 20
0.8183659553551132
 10
1.939142518613957
 20
0.8173944553551132
 10
1.939154418613957
 20
0.8164212553551132
 10
1.939154518613957
 20
0.8154474553551132
 10
1.939145018613957
 20
0.8144740553551132
 10
1.939128318613957
 20
0.8135020553551132
 10
1.939106418613957
 20
0.8125326553551131
 10
1.939081818613957
 20
0.8115666553551131
 10
1.939056618613957
 20
0.8106053553551133
 10
1.939033118613957
 20
0.8096496553551132
 10
1.939013518613957
 20
0.8087005553551131
 10
1.939000118613957
 20
0.8077592553551131
 10
1.938995218613957
 20
0.8068266553551131
 10
1.940101018613957
 20
0.8069306553551133
 10
1.941136018613957
 20
0.8070933553551132
 10
1.942105118613957
 20
0.8073114553551132
 10
1.943013118613957
 20
0.8075815553551132
 10
1.943864618613957
 20
0.8079000553551132
 10
1.944664618613957
 20
0.8082637553551132
 10
1.945417818613957
 20
0.8086692553551133
 10
1.946129018613957
 20
0.8091129553551132
 10
1.946803018613957
 20
0.8095917553551132
 10
1.947444618613957
 20
0.8101019553551132
 10
1.948058618613957
 20
0.8106403553551132
 10
1.948649818613957
 20
0.8112034553551131
 10
1.949222918613957
 20
0.8117879553551132
 10
1.949782818613957
 20
0.8123903553551132
 10
1.950334318613957
 20
0.8130073553551133
 10
1.950882118613957
 20
0.8136354553551131
 10
1.951431118613957
 20
0.8142712553551131
 10
1.951986018613957
 20
0.8149114553551132
 10
1.952551618613957
 20
0.8155526553551132
 10
1.953132818613957
 20
0.8161913553551132
 10
1.953734318613957
 20
0.8168241553551132
 10
1.954360918613957
 20
0.8174477553551131
 10
1.955017418613957
 20
0.8180587553551131
 10
1.955708618613957
 20
0.8186535553551131
 10
1.956439318613957
 20
0.8192290553551131
 10
1.957214318613957
 20
0.8197816553551131
 10
1.958038418613957
 20
0.8203080553551131
 10
1.958993818613957
 20
0.8208357553551131
 10
1.959956418613957
 20
0.8212809553551132
 10
1.960927018613957
 20
0.8216564553551132
 10
1.961906118613957
 20
0.8219751553551132
 10
1.962894418613957
 20
0.8222500553551132
 10
1.963892418613957
 20
0.8224941553551131
 10
1.964900918613957
 20
0.8227202553551132
 10
1.965920418613957
 20
0.8229414553551132
 10
1.966951618613957
 20
0.8231706553551132
 10
1.967995218613957
 20
0.8234207553551131
 10
1.968961118613957
 20
0.8236667553551132
 10
1.969932518613957
 20
0.8239184553551131
 10
1.970909118613957
 20
0.8241743553551131
 10
1.971890518613957
 20
0.8244334553551132
 10
1.972876318613957
 20
0.8246944553551131
 10
1.973866218613957
 20
0.8249562553551131
 10
1.974859918613957
 20
0.8252175553551131
 10
1.975857118613957
 20
0.8254771553551131
 10
1.976857318613957
 20
0.8257340553551133
 10
1.977860218613957
 20
0.8259867553551131
 10
1.978865518613957
 20
0.8262343553551133
 10
1.979872818613957
 20
0.8264754553551131
 10
1.980881818613957
 20
0.8267089553551132
 10
1.981892118613957
 20
0.8269336553551131
 10
1.982903518613957
 20
0.8271483553551131
 10
1.983915518613957
 20
0.8273518553551133
 10
1.984927718613957
 20
0.8275429553551132
 10
1.985940018613957
 20
0.8277203553551132
 10
1.986951818613957
 20
0.8278830553551131
 10
1.987962918613957
 20
0.8280297553551132
 10
1.988972918613957
 20
0.8281592553551131
 10
1.989981518613957
 20
0.8282704553551132
 10
1.990988318613957
 20
0.8283619553551131
 10
1.991993018613957
 20
0.8284327553551131
 10
1.992995218613957
 20
0.8284816553551131
 10
1.993954618613957
 20
0.8284675553551132
 10
1.994882518613957
 20
0.8283584553551131
 10
1.995782318613957
 20
0.8281638553551131
 10
1.996657218613957
 20
0.8278933553551132
 10
1.997510618613957
 20
0.8275562553551132
 10
1.998345918613957
 20
0.8271620553551132
 10
1.999166218613957
 20
0.8267202553551131
 10
1.999975118613957
 20
0.8262404553551132
 10
2.000775818613957
 20
0.8257318553551131
 10
2.001571618613957
 20
0.8252041553551132
 10
2.002365918613957
 20
0.8246667553551132
 10
2.003161918613957
 20
0.8241290553551131
 10
2.003963218613957
 20
0.8236006553551131
 10
2.004772818613957
 20
0.8230909553551132
 10
2.005594318613957
 20
0.8226094553551131
 10
2.006430918613957
 20
0.8221655553551132
 10
2.007286018613957
 20
0.8217688553551132
 10
2.008162818613957
 20
0.821428755355113
 10
2.009064718613957
 20
0.8211546553551132
 10
2.009995218613957
 20
0.8209562553551132
 10
2.010975118613957
 20
0.8207889553551131
 10
2.011960218613957
 20
0.8206137553551132
 10
2.012949918613957
 20
0.8204322553551131
 10
2.013943618613957
 20
0.8202459553551133
 10
2.014941018613957
 20
0.8200564553551132
 10
2.015941518613957
 20
0.8198651553551131
 10
2.016944518613957
 20
0.8196736553551131
 10
2.017949718613957
 20
0.8194834553551132
 10
2.018956518613957
 20
0.8192961553551132
 10
2.019964418613957
 20
0.8191133553551132
 10
2.020972918613957
 20
0.8189363553551132
 10
2.021981618613957
 20
0.8187669553551131
 10
2.022989818613957
 20
0.8186065553551131
 10
2.023997218613957
 20
0.8184567553551131
 10
2.025003218613957
 20
0.8183190553551131
 10
2.026007318613957
 20
0.8181949553551131
 10
2.027009118613957
 20
0.8180861553551132
 10
2.028008018613957
 20
0.8179939553551133
 10
2.029003518613957
 20
0.8179200553551131
 10
2.029995218613957
 20
0.8178659553551131
 10
2.030988018613957
 20
0.8178269553551132
 10
2.031982318613957
 20
0.8177974553551131
 10
2.032978118613957
 20
0.8177767553551131
 10
2.033975118613957
 20
0.8177640553551132
 10
2.034973318613957
 20
0.8177587553551132
 10
2.035972718613957
 20
0.8177603553551131
 10
2.036973018613957
 20
0.8177679553551131
 10
2.037974318613957
 20
0.8177811553551132
 10
2.038976418613957
 20
0.8177990553551131
 10
2.039979218613957
 20
0.8178211553551133
 10
2.040982718613957
 20
0.8178468553551132
 10
2.041986718613957
 20
0.8178753553551132
 10
2.042991118613957
 20
0.8179060553551131
 10
2.043995918613957
 20
0.8179382553551132
 10
2.045000918613957
 20
0.8179714553551132
 10
2.046006118613957
 20
0.8180048553551133
 10
2.047011318613957
 20
0.8180378553551131
 10
2.048016518613957
 20
0.8180698553551131
 10
2.049021618613957
 20
0.8181000553551132
 10
2.050026418613957
 20
0.8181279553551132
 10
2.051030918613957
 20
0.8181527553551132
 10
2.052035018613957
 20
0.8181739553551132
 10
2.053038618613957
 20
0.8181907553551132
 10
2.054041618613957
 20
0.8182026553551132
 10
2.055043818613957
 20
0.8182088553551132
 10
2.056045318613957
 20
0.8182087553551131
 10
2.057045918613957
 20
0.8182017553551132
 10
2.058045518613957
 20
0.8181871553551133
 10
2.059044018613957
 20
0.8181643553551133
 10
2.060041318613957
 20
0.8181325553551131
 10
2.061037418613957
 20
0.8180912553551131
 10
2.062032118613957
 20
0.8180397553551131
 10
2.063025318613957
 20
0.8179773553551131
 10
2.064016918613957
 20
0.8179034553551131
 10
2.065006918613957
 20
0.8178173553551133
 10
2.065995218613957
 20
0.8177185553551131
 10
2.066994618613957
 20
0.817567955355113
 10
2.067950518613957
 20
0.8173411553551131
 10
2.068868618613957
 20
0.8170472553551132
 10
2.069754518613957
 20
0.8166957553551132
 10
2.070613918613957
 20
0.8162957553551132
 10
2.071452518613957
 20
0.8158565553551133
 10
2.072275818613957
 20
0.8153874553551132
 10
2.073089718613957
 20
0.8148976553551131
 10
2.073899618613957
 20
0.8143965553551131
 10
2.074711418613957
 20
0.8138932553551132
 10
2.075530618613957
 20
0.8133971553551132
 10
2.076362918613957
 20
0.8129175553551132
 10
2.077214018613957
 20
0.8124636553551132
 10
2.078089518613957
 20
0.8120446553551131
 10
2.078995218613957
 20
0.8116699553551132
 10
2.079956818613957
 20
0.8113562553551131
 10
2.080936718613957
 20
0.8111277553551131
 10
2.081931118613957
 20
0.8109712553551132
 10
2.082936418613957
 20
0.8108740553551132
 10
2.083948718613957
 20
0.8108232553551133
 10
2.084964518613957
 20
0.8108059553551132
 10
2.085980018613957
 20
0.8108093553551132
 10
2.086991418613957
 20
0.8108205553551131
 10
2.087995218613957
 20
0.8108266553551132
 10
2.087988518613957
 20
0.8117515553551132
 10
2.087968418613957
 20
0.8126894553551132
 10
2.087934318613957
 20
0.8136388553551132
 10
2.087885818613957
 20
0.8145986553551132
 10
2.087822418613957
 20
0.8155673553551132
 10
2.087743918613957
 20
0.8165437553551132
 10
2.087649718613957
 20
0.8175265553551131
 10
2.087539318613957
 20
0.8185144553551133
 10
2.087412518613957
 20
0.8195061553551131
 10
2.087268718613957
 20
0.8205003553551131
 10
2.087107518613957
 20
0.8214957553551132
 10
2.086928618613957
 20
0.8224910553551133
 10
2.086731318613957
 20
0.8234849553551132
 10
2.086515518613957
 20
0.8244761553551132
 10
2.086280518613957
 20
0.8254633553551132
 10
2.086026018613957
 20
0.826445255355113
 10
2.085751618613957
 20
0.8274206553551131
 10
2.085456818613957
 20
0.8283880553551131
 10
2.085141218613957
 20
0.8293463553551132
 10
2.084804418613957
 20
0.8302941553551132
 10
2.084445918613957
 20
0.8312301553551131
 10
2.084065418613957
 20
0.8321530553551131
 10
2.083662318613957
 20
0.8330616553551132
 10
2.083236318613957
 20
0.8339545553551131
 10
2.082786918613957
 20
0.8348304553551132
 10
2.082313818613957
 20
0.8356880553551132
 10
2.081816418613957
 20
0.8365261553551132
 10
2.081294418613957
 20
0.8373433553551132
 10
2.080747318613957
 20
0.8381383553551131
 10
2.080174718613957
 20
0.8389099553551131
 10
2.079576218613957
 20
0.8396568553551132
 10
2.079068118613957
 20
0.8402327553551131
 10
2.078519218613957
 20
0.8407944553551132
 10
2.077933318613957
 20
0.8413433553551131
 10
2.077314418613957
 20
0.8418809553551131
 10
2.076666418613957
 20
0.8424086553551132
 10
2.075993118613957
 20
0.8429278553551132
 10
2.075298618613957
 20
0.8434400553551132
 10
2.074586818613957
 20
0.8439467553551132
 10
2.073861518613957
 20
0.8444492553551132
 10
2.073126718613957
 20
0.8449492553551131
 10
2.072386318613957
 20
0.8454479553551131
 10
2.071644218613957
 20
0.8459468553551131
 10
2.070904518613957
 20
0.8464475553551132
 10
2.070170818613957
 20
0.8469513553551133
 10
2.069447318613957
 20
0.8474597553551131
 10
2.068737918613957
 20
0.8479742553551131
 10
2.068046318613957
 20
0.8484962553551131
 10
2.067376718613957
 20
0.8490271553551131
 10
2.066732818613957
 20
0.849568455355113
 10
2.066118618613957
 20
0.8501215553551132
 10
2.065538118613957
 20
0.8506880553551132
 10
2.064995218613957
 20
0.8512692553551131
 10
2.064493718613957
 20
0.8518666553551131
 10
2.064037618613957
 20
0.8524816553551131
 10
2.063630918613957
 20
0.8531158553551133
 10
2.063277418613957
 20
0.8537705553551131
 10
2.062981118613957
 20
0.8544472553551132
 10
2.062745818613957
 20
0.8551473553551131
 10
2.062575618613957
 20
0.8558723553551132
 10
2.062474418613957
 20
0.8566237553551133
 10
2.062445918613957
 20
0.8574029553551131
 10
2.062494318613957
 20
0.8582113553551131
 10
2.062623418613957
 20
0.8590504553551133
 10
2.062837118613957
 20
0.8599217553551131
 10
2.063139418613957
 20
0.8608266553551132
 10
2.063478118613957
 20
0.8616917553551132
 10
2.063839418613957
 20
0.8625517553551132
 10
2.064222618613957
 20
0.8634068553551131
 10
2.064627418613957
 20
0.8642566553551132
 10
2.065052918613957
 20
0.8651014553551132
 10
2.065498818613957
 20
0.8659408553551132
 10
2.065964418613957
 20
0.8667751553551131
 10
2.066449218613957
 20
0.8676040553551132
 10
2.066952618613957
 20
0.8684275553551131
 10
2.067474118613957
 20
0.8692456553551132
 10
2.068013018613957
 20
0.8700583553551131
 10
2.068568918613957
 20
0.8708654553551131
 10
2.069141118613957
 20
0.8716670553551132
 10
2.069729218613957
 20
0.8724629553551132
 10
2.070332518613957
 20
0.8732532553551132
 10
2.070950518613957
 20
0.8740378553551131
 10
2.071582618613957
 20
0.874816755355113
 10
2.072228318613957
 20
0.8755897553551131
 10
2.072886918613957
 20
0.8763569553551132
 10
2.073558018613957
 20
0.8771181553551132
 10
2.074241018613957
 20
0.8778735553551133
 10
2.074935318613957
 20
0.8786228553551131
 10
2.075640318613957
 20
0.8793661553551132
 10
2.076355618613957
 20
0.8801033553551132
 10
2.077080418613957
 20
0.8808343553551132
 10
2.077814318613957
 20
0.8815591553551131
 10
2.078556718613957
 20
0.8822777553551132
 10
2.079307118613957
 20
0.8829900553551132
 10
2.080064818613957
 20
0.8836960553551131
 10
2.080829418613957
 20
0.8843956553551132
 10
2.081600218613957
 20
0.8850887553551132
 10
2.082376718613957
 20
0.8857754553551131
 10
2.083158318613957
 20
0.8864555553551131
 10
2.083944518613957
 20
0.8871290553551132
 10
2.084734718613957
 20
0.8877959553551132
 10
2.085528318613957
 20
0.8884561553551131
 10
2.086324818613957
 20
0.8891096553551133
 10
2.087123718613957
 20
0.8897563553551131
 10
2.087924318613957
 20
0.8903962553551131
 10
2.088726118613957
 20
0.8910292553551132
 10
2.089528518613957
 20
0.8916553553551132
 10
2.090331018613957
 20
0.8922744553551131
 10
2.091133018613957
 20
0.8928865553551132
 10
2.091934018613957
 20
0.8934916553551131
 10
2.092733418613957
 20
0.8940895553551133
 10
2.093530518613957
 20
0.8946802553551131
 10
2.094325018613957
 20
0.8952637553551133
 10
2.095116118613957
 20
0.8958400553551133
 10
2.095903418613957
 20
0.8964089553551131
 10
2.096686218613957
 20
0.8969705553551133
 10
2.097464118613957
 20
0.8975247553551131
 10
2.098236418613957
 20
0.8980714553551132
 10
2.099002618613957
 20
0.8986106553551131
 10
2.099762218613957
 20
0.8991423553551133
 10
2.100514518613957
 20
0.8996664553551132
 10
2.101259018613957
 20
0.9001828553551131
 10
2.101995218613957
 20
0.9006915553551133
 10
2.102788118613957
 20
0.9012689553551131
 10
2.103576518613957
 20
0.9018968553551133
 10
2.104362118613957
 20
0.9025653553551132
 10
2.105146318613957
 20
0.9032648553551132
 10
2.105931018613957
 20
0.9039856553551132
 10
2.106717818613957
 20
0.9047179553551131
 10
2.107508218613957
 20
0.9054520553551132
 10
2.108304118613957
 20
0.9061783553551132
 10
2.109107018613957
 20
0.9068868553551132
 10
2.109918618613957
 20
0.9075681553551133
 10
2.110740518613957
 20
0.9082123553551133
 10
2.111574518613957
 20
0.9088096553551132
 10
2.112422118613957
 20
0.9093505553551132
 10
2.113285018613957
 20
0.909825255355113
 10
2.114164918613957
 20
0.9102239553551132
 10
2.114823118613957
 20
0.9104664553551131
 10
2.115501518613957
 20
0.9106745553551132
 10
2.116198618613957
 20
0.9108506553551132
 10
2.116913218613957
 20
0.9109969553551131
 10
2.117643918613957
 20
0.9111157553551132
 10
2.118389518613957
 20
0.9112093553551133
 10
2.119148618613957
 20
0.9112801553551131
 10
2.119919918613957
 20
0.9113303553551132
 10
2.120702218613957
 20
0.9113623553551132
 10
2.121494118613957
 20
0.9113784553551131
 10
2.122294418613957
 20
0.9113808553551132
 10
2.123101618613957
 20
0.9113720553551132
 10
2.123914618613957
 20
0.9113541553551131
 10
2.124732018613957
 20
0.9113295553551132
 10
2.125552518613957
 20
0.9113006553551132
 10
2.126374718613957
 20
0.9112696553551131
 10
2.127197518613957
 20
0.9112388553551131
 10
2.128019518613957
 20
0.9112106553551132
 10
2.128839318613957
 20
0.9111872553551132
 10
2.129655718613957
 20
0.9111710553551132
 10
2.130467418613957
 20
0.9111643553551132
 10
2.131273018613957
 20
0.9111693553551132
 10
2.132071318613957
 20
0.9111884553551131
 10
2.132860918613957
 20
0.9112239553551132
 10
2.133640618613957
 20
0.9112782553551131
 10
2.134409118613957
 20
0.9113534553551133
 10
2.135164918613957
 20
0.9114520553551132
 10
2.135906918613957
 20
0.9115762553551132
 10
2.136633818613957
 20
0.9117283553551132
 10
2.137344118613957
 20
0.9119107553551131
 10
2.138036718613957
 20
0.9121257553551131
 10
2.138710118613957
 20
0.9123755553551132
 10
2.139363218613957
 20
0.9126625553551132
 10
2.139994618613957
 20
0.9129890553551131
 10
2.140603018613957
 20
0.9133572553551132
 10
2.141187018613957
 20
0.9137696553551132
 10
2.141745518613957
 20
0.9142284553551132
 10
2.142277018613957
 20
0.9147360553551132
 10
2.142780318613957
 20
0.9152945553551132
 10
2.143254018613957
 20
0.9159064553551132
 10
2.143696918613957
 20
0.9165740553551131
 10
2.144107718613957
 20
0.9172995553551132
 10
2.144485018613957
 20
0.9180852553551131
 10
2.144827618613957
 20
0.9189336553551132
 10
2.145134118613957
 20
0.9198468553551132
 10
2.145403318613957
 20
0.9208273553551132
 10
2.145592518613957
 20
0.9218907553551131
 10
2.145632618613957
 20
0.9229027553551132
 10
2.145538618613957
 20
0.9238683553551132
 10
2.145325518613957
 20
0.9247928553551131
 10
2.145008118613957
 20
0.9256812553551132
 10
2.144601518613957
 20
0.9265388553551133
 10
2.144120618613957
 20
0.9273706553551132
 10
2.143580518613957
 20
0.9281820553551131
 10
2.142996018613957
 20
0.9289780553551132
 10
2.142382218613957
 20
0.9297639553551132
 10
2.141754018613957
 20
0.9305447553551131
 10
2.141126518613957
 20
0.9313257553551132
 10
2.140514518613957
 20
0.9321120553551132
 10
2.139965918613957
 20
0.9328398553551132
 10
2.139400618613957
 20
0.9336006553551133
 10
2.138823218613957
 20
0.9343911553551132
 10
2.138238818613957
 20
0.9352077553551133
 10
2.137652318613957
 20
0.936047355355113
 10
2.137068918613957
 20
0.9369063553551132
 10
2.136493418613957
 20
0.9377815553551132
 10
2.135930818613957
 20
0.9386694553551132
 10
2.135386118613957
 20
0.9395666553551132
 10
2.134864318613957
 20
0.9404699553551132
 10
2.134370418613957
 20
0.9413758553551133
 10
2.133909318613957
 20
0.9422809553551132
 10
2.133486218613957
 20
0.9431819553551132
 10
2.133105818613957
 20
0.9440755553551131
 10
2.132773318613957
 20
0.9449581553551132
 10
2.132493618613957
 20
0.9458266553551132
 10
2.132300018613957
 20
0.9467412553551131
 10
2.132240018613957
 20
0.9476520553551132
 10
2.132289918613957
 20
0.9485604553551132
 10
2.132426218613957
 20
0.9494675553551132
 10
2.132625318613957
 20
0.9503746553551131
 10
2.132863518613957
 20
0.9512829553551132
 10
2.133117118613957
 20
0.9521936553551132
 10
2.133362718613957
 20
0.9531080553551131
 10
2.133576518613957
 20
0.9540272553551131
 10
2.133735018613957
 20
0.9549526553551132
 10
2.133814518613957
 20
0.9558853553551131
 10
2.133791518613957
 20
0.9568266553551133
  0
ENDSEC
  0
SECTION
  2
OBJECTS
  0
DICTIONARY
  5
C
330
0
100
AcDbDictionary
281
     1
  3
ACAD_CIP_PREVIOUS_PRODUCT_INFO
350
C56
  3
ACAD_COLOR
350
62
  3
ACAD_DETAILVIEWSTYLE
350
69
  3
ACAD_GROUP
350
D
  3
ACAD_LAYOUT
350
61
  3
ACAD_MATERIAL
350
10
  3
ACAD_MLEADERSTYLE
350
65
  3
ACAD_MLINESTYLE
350
5E
  3
ACAD_PLOTSETTINGS
350
60
  3
ACAD_PLOTSTYLENAME
350
E
  3
ACAD_SCALELIST
350
42
  3
ACAD_SECTIONVIEWSTYLE
350
67
  3
ACAD_TABLESTYLE
350
63
  3
ACAD_VISUALSTYLE
350
29
  3
ACDB_RECOMPOSE_DATA
350
10C8
  3
AcDbVariableDictionary
350
C5D
  0
DICTIONARY
  5
C74
330
2
100
AcDbDictionary
280
     1
281
     1
  3
ACAD_LAYERSTATES
360
C75
  0
DICTIONARY
  5
C57
330
54
100
AcDbDictionary
280
     1
281
     1
  3
ADSK_XREC_LAYER_RECONCILED
360
C58
  0
DICTIONARY
  5
C59
330
73
100
AcDbDictionary
280
     1
281
     1
  3
ADSK_XREC_LAYER_RECONCILED
360
C5A
  0
DICTIONARY
  5
C5B
330
74
100
AcDbDictionary
280
     1
281
     1
  3
ADSK_XREC_LAYER_RECONCILED
360
C5C
  0
DICTIONARY
  5
C88
330
6F
100
AcDbDictionary
280
     1
281
     1
  3
ACAD_SORTENTS
360
C89
  0
XRECORD
  5
C56
102
{ACAD_REACTORS
330
C
102
}
330
C
100
AcDbXrecord
280
     1
300
ACD
300
2018
300
ACD_F_S
  0
DICTIONARY
  5
62
102
{ACAD_REACTORS
330
C
102
}
330
C
100
AcDbDictionary
281
     1
  0
DICTIONARY
  5
69
102
{ACAD_REACTORS
330
C
102
}
330
C
100
AcDbDictionary
281
     1
  3
Imperial24
350
6A
  0
DICTIONARY
  5
D
102
{ACAD_REACTORS
330
C
102
}
330
C
100
AcDbDictionary
281
     1
  0
DICTIONARY
  5
61
102
{ACAD_REACTORS
330
C
102
}
330
C
100
AcDbDictionary
281
     1
  3
Layout1
350
6E
  3
Model
350
72
  0
DICTIONARY
  5
10
102
{ACAD_REACTORS
330
C
102
}
330
C
100
AcDbDictionary
281
     1
  3
ByBlock
350
19
  3
ByLayer
350
11
  3
Global
350
21
  0
DICTIONARY
  5
65
102
{ACAD_REACTORS
330
C
102
}
330
C
100
AcDbDictionary
281
     1
  3
Standard
350
66
  0
DICTIONARY
  5
5E
102
{ACAD_REACTORS
330
C
102
}
330
C
100
AcDbDictionary
281
     1
  3
Standard
350
5F
  0
DICTIONARY
  5
60
102
{ACAD_REACTORS
330
C
102
}
330
C
100
AcDbDictionary
281
     1
  0
ACDBDICTIONARYWDFLT
  5
E
102
{ACAD_REACTORS
330
C
102
}
330
C
100
AcDbDictionary
281
     1
  3
Normal
350
F
100
AcDbDictionaryWithDefault
340
F
  0
DICTIONARY
  5
42
102
{ACAD_REACTORS
330
C
102
}
330
C
100
AcDbDictionary
281
     1
  3
A0
350
43
  3
A1
350
44
  3
A2
350
45
  3
A3
350
46
  3
A4
350
47
  3
A5
350
48
  3
A6
350
49
  3
A7
350
4A
  3
A8
350
4B
  3
A9
350
4C
  3
B0
350
4D
  3
B1
350
4E
  3
B2
350
4F
  3
B3
350
50
  3
B4
350
51
  3
B5
350
52
  3
B6
350
53
  0
DICTIONARY
  5
67
102
{ACAD_REACTORS
330
C
102
}
330
C
100
AcDbDictionary
281
     1
  3
Imperial24
350
68
  0
DICTIONARY
  5
63
102
{ACAD_REACTORS
330
C
102
}
330
C
100
AcDbDictionary
281
     1
  3
Standard
350
64
  0
DICTIONARY
  5
29
102
{ACAD_REACTORS
330
C
102
}
330
C
100
AcDbDictionary
281
     1
  3
2dWireframe
350
2F
  3
Basic
350
2E
  3
Brighten
350
35
  3
ColorChange
350
39
  3
Conceptual
350
32
  3
Dim
350
34
  3
EdgeColorOff
350
41
  3
Facepattern
350
38
  3
Flat
350
2A
  3
FlatWithEdges
350
2B
  3
Gouraud
350
2C
  3
GouraudWithEdges
350
2D
  3
Hidden
350
31
  3
JitterOff
350
3F
  3
Linepattern
350
37
  3
OverhangOff
350
40
  3
Realistic
350
33
  3
Shaded
350
3E
  3
Shaded with edges
350
3D
  3
Shades of Gray
350
3A
  3
Sketchy
350
3B
  3
Thicken
350
36
  3
Wireframe
350
30
  3
X-Ray
350
3C
  0
XRECORD
  5
10C8
102
{ACAD_REACTORS
330
C
102
}
330
C
100
AcDbXrecord
280
     1
 90
        1
330
64
  0
DICTIONARY
  5
C5D
102
{ACAD_REACTORS
330
C
102
}
330
C
100
AcDbDictionary
281
     1
  3
CANNOSCALE
350
C63
  3
CMLEADERSTYLE
350
C5F
  3
CTABLESTYLE
350
C5E
  3
CVIEWDETAILSTYLE
350
C60
  3
CVIEWSECTIONSTYLE
350
C61
  3
LAYEREVAL
350
C65
  3
LAYERNOTIFY
350
C66
  3
LIGHTINGUNITS
350
C64
  3
MSLTSCALE
350
C62
  0
DICTIONARY
  5
C75
102
{ACAD_REACTORS
330
C74
102
}
330
C74
100
AcDbDictionary
281
     1
  0
XRECORD
  5
C58
102
{ACAD_REACTORS
330
C57
102
}
330
C57
100
AcDbXrecord
280
     1
290
     1
  0
XRECORD
  5
C5A
102
{ACAD_REACTORS
330
C59
102
}
330
C59
100
AcDbXrecord
280
     1
290
     1
  0
XRECORD
  5
C5C
102
{ACAD_REACTORS
330
C5B
102
}
330
C5B
100
AcDbXrecord
280
     1
290
     1
  0
SORTENTSTABLE
  5
C89
102
{ACAD_REACTORS
330
C88
102
}
330
C88
100
AcDbSortentsTable
330
6F
331
2A7
  5
C87
  0
ACDBDETAILVIEWSTYLE
  5
6A
102
{ACAD_REACTORS
330
69
102
}
330
69
100
AcDbModelDocViewStyle
 70
     0
  3
Imperial24
290
     0
300
Imperial24
 90
        0
100
AcDbDetailViewStyle
 70
     0
 71
     0
 90
        3
 71
     1
340
55
 62
   256
 40
0.24
340
0
 62
   256
 40
0.24
300

 40
0.36
280
     3
 71
     2
340
5C
 90
       25
 62
   256
 71
     3
340
55
 62
   256
 40
0.24
 90
        1
 40
0.75
 90
        1
300
%<\AcVar ViewType \f "%tc1">% %<\AcVar ViewDetailId>%\PSCALE %<\AcVar ViewScale \f "%sn">%
 71
     4
340
5C
 90
       25
 62
   256
340
5C
 90
       25
 62
   256
280
     0
  0
LAYOUT
  5
6E
102
{ACAD_REACTORS
330
61
102
}
330
61
100
AcDbPlotSettings
  1

  2
HP LaserJet 700 M712 PCL 6
  4

  6

 40
0.0
 41
0.0
 42
0.0
 43
0.0
 44
0.0
 45
0.0
 46
0.0
 47
0.0
 48
0.0
 49
0.0
140
0.0
141
0.0
142
1.0
143
1.0
 70
   688
 72
     0
 73
     0
 74
     5
  7

 75
    16
147
1.0
 76
     0
 77
     2
 78
   300
148
0.0
149
0.0
100
AcDbLayout
  1
Layout1
 70
     1
 71
     1
 10
0.0
 20
0.0
 11
12.0
 21
9.0
 12
0.0
 22
0.0
 32
0.0
 14
1.000000000000000E+20
 24
1.000000000000000E+20
 34
1.000000000000000E+20
 15
-1.000000000000000E+20
 25
-1.000000000000000E+20
 35
-1.000000000000000E+20
146
0.0
 13
0.0
 23
0.0
 33
0.0
 16
1.0
 26
0.0
 36
0.0
 17
0.0
 27
1.0
 37
0.0
 76
     0
330
6B
  0
LAYOUT
  5
72
102
{ACAD_REACTORS
330
61
102
}
330
61
100
AcDbPlotSettings
  1

  2
HP LaserJet 700 M712 PCL 6
  4

  6

 40
0.0
 41
0.0
 42
0.0
 43
0.0
 44
0.0
 45
0.0
 46
0.0
 47
0.0
 48
0.0
 49
0.0
140
0.0
141
0.0
142
1.0
143
1.0
 70
  1712
 72
     0
 73
     0
 74
     0
  7

 75
     0
147
1.0
 76
     0
 77
     2
 78
   300
148
0.0
149
0.0
100
AcDbLayout
  1
Model
 70
     1
 71
     0
 10
0.0
 20
0.0
 11
12.0
 21
9.0
 12
0.0
 22
0.0
 32
0.0
 14
0.0
 24
0.0
 34
0.0
 15
0.0
 25
0.0
 35
0.0
146
0.0
 13
0.0
 23
0.0
 33
0.0
 16
1.0
 26
0.0
 36
0.0
 17
0.0
 27
1.0
 37
0.0
 76
     0
330
6F
331
76
  0
MATERIAL
  5
19
102
{ACAD_XDICTIONARY
360
1A
102
}
102
{ACAD_REACTORS
330
10
102
}
330
10
100
AcDbMaterial
  1
ByBlock
 72
     0
 43
0.0208333333333333
 43
0.0
 43
0.0
 43
0.0
 43
0.0
 43
0.0208333333333333
 43
0.0
 43
0.0
 43
0.0
 43
0.0
 43
1.0
 43
0.0
 43
0.0
 43
0.0
 43
0.0
 43
1.0
 77
     0
 47
0.0208333333333333
 47
0.0
 47
0.0
 47
0.0
 47
0.0
 47
0.0208333333333333
 47
0.0
 47
0.0
 47
0.0
 47
0.0
 47
1.0
 47
0.0
 47
0.0
 47
0.0
 47
0.0
 47
1.0
171
     0
 49
0.0208333333333333
 49
0.0
 49
0.0
 49
0.0
 49
0.0
 49
0.0208333333333333
 49
0.0
 49
0.0
 49
0.0
 49
0.0
 49
1.0
 49
0.0
 49
0.0
 49
0.0
 49
0.0
 49
1.0
175
     0
142
0.0208333333333333
142
0.0
142
0.0
142
0.0
142
0.0
142
0.0208333333333333
142
0.0
142
0.0
142
0.0
142
0.0
142
1.0
142
0.0
142
0.0
142
0.0
142
0.0
142
1.0
179
     0
144
0.0208333333333333
144
0.0
144
0.0
144
0.0
144
0.0
144
0.0208333333333333
144
0.0
144
0.0
144
0.0
144
0.0
144
1.0
144
0.0
144
0.0
144
0.0
144
0.0
144
1.0
147
0.0208333333333333
147
0.0
147
0.0
147
0.0
147
0.0
147
0.0208333333333333
147
0.0
147
0.0
147
0.0
147
0.0
147
1.0
147
0.0
147
0.0
147
0.0
147
0.0
147
1.0
  0
MATERIAL
  5
11
102
{ACAD_XDICTIONARY
360
12
102
}
102
{ACAD_REACTORS
330
10
102
}
330
10
100
AcDbMaterial
  1
ByLayer
 72
     0
 43
0.0208333333333333
 43
0.0
 43
0.0
 43
0.0
 43
0.0
 43
0.0208333333333333
 43
0.0
 43
0.0
 43
0.0
 43
0.0
 43
1.0
 43
0.0
 43
0.0
 43
0.0
 43
0.0
 43
1.0
 77
     0
 47
0.0208333333333333
 47
0.0
 47
0.0
 47
0.0
 47
0.0
 47
0.0208333333333333
 47
0.0
 47
0.0
 47
0.0
 47
0.0
 47
1.0
 47
0.0
 47
0.0
 47
0.0
 47
0.0
 47
1.0
171
     0
 49
0.0208333333333333
 49
0.0
 49
0.0
 49
0.0
 49
0.0
 49
0.0208333333333333
 49
0.0
 49
0.0
 49
0.0
 49
0.0
 49
1.0
 49
0.0
 49
0.0
 49
0.0
 49
0.0
 49
1.0
175
     0
142
0.0208333333333333
142
0.0
142
0.0
142
0.0
142
0.0
142
0.0208333333333333
142
0.0
142
0.0
142
0.0
142
0.0
142
1.0
142
0.0
142
0.0
142
0.0
142
0.0
142
1.0
179
     0
144
0.0208333333333333
144
0.0
144
0.0
144
0.0
144
0.0
144
0.0208333333333333
144
0.0
144
0.0
144
0.0
144
0.0
144
1.0
144
0.0
144
0.0
144
0.0
144
0.0
144
1.0
147
0.0208333333333333
147
0.0
147
0.0
147
0.0
147
0.0
147
0.0208333333333333
147
0.0
147
0.0
147
0.0
147
0.0
147
1.0
147
0.0
147
0.0
147
0.0
147
0.0
147
1.0
  0
MATERIAL
  5
21
102
{ACAD_XDICTIONARY
360
22
102
}
102
{ACAD_REACTORS
330
10
102
}
330
10
100
AcDbMaterial
  1
Global
 72
     0
 43
0.0208333333333333
 43
0.0
 43
0.0
 43
0.0
 43
0.0
 43
0.0208333333333333
 43
0.0
 43
0.0
 43
0.0
 43
0.0
 43
1.0
 43
0.0
 43
0.0
 43
0.0
 43
0.0
 43
1.0
 77
     0
 47
0.0208333333333333
 47
0.0
 47
0.0
 47
0.0
 47
0.0
 47
0.0208333333333333
 47
0.0
 47
0.0
 47
0.0
 47
0.0
 47
1.0
 47
0.0
 47
0.0
 47
0.0
 47
0.0
 47
1.0
171
     0
 49
0.0208333333333333
 49
0.0
 49
0.0
 49
0.0
 49
0.0
 49
0.0208333333333333
 49
0.0
 49
0.0
 49
0.0
 49
0.0
 49
1.0
 49
0.0
 49
0.0
 49
0.0
 49
0.0
 49
1.0
175
     0
142
0.0208333333333333
142
0.0
142
0.0
142
0.0
142
0.0
142
0.0208333333333333
142
0.0
142
0.0
142
0.0
142
0.0
142
1.0
142
0.0
142
0.0
142
0.0
142
0.0
142
1.0
179
     0
144
0.0208333333333333
144
0.0
144
0.0
144
0.0
144
0.0
144
0.0208333333333333
144
0.0
144
0.0
144
0.0
144
0.0
144
1.0
144
0.0
144
0.0
144
0.0
144
0.0
144
1.0
147
0.0208333333333333
147
0.0
147
0.0
147
0.0
147
0.0
147
0.0208333333333333
147
0.0
147
0.0
147
0.0
147
0.0
147
1.0
147
0.0
147
0.0
147
0.0
147
0.0
147
1.0
  0
MLEADERSTYLE
  5
66
102
{ACAD_REACTORS
330
65
102
}
330
65
100
AcDbMLeaderStyle
179
     2
170
     2
171
     1
172
     0
 90
        2
 40
0.0
 41
0.0
173
     1
 91
-1056964608
340
5A
 92
       -2
290
     1
 42
0.09
291
     1
 43
0.36
  3
Standard
 44
0.18
300

342
55
174
     1
178
     6
175
     1
176
     0
 93
-1056964608
 45
0.18
292
     0
297
     0
 46
0.18
 94
-1056964608
 47
1.0
 49
1.0
140
1.0
293
     1
141
0.0
294
     1
177
     0
142
1.0
295
     0
296
     0
143
0.125
271
     0
272
     9
273
     9
298
     0
  0
MLINESTYLE
  5
5F
102
{ACAD_REACTORS
330
5E
102
}
330
5E
100
AcDbMlineStyle
  2
STANDARD
 70
     0
  3

 62
   256
 51
90.0
 52
90.0
 71
     2
 49
0.5
 62
   256
  6
BYLAYER
 49
-0.5
 62
   256
  6
BYLAYER
  0
ACDBPLACEHOLDER
  5
F
102
{ACAD_REACTORS
330
E
102
}
330
E
  0
SCALE
  5
43
102
{ACAD_REACTORS
330
42
102
}
330
42
100
AcDbScale
 70
     0
300
1:1
140
1.0
141
1.0
290
     1
  0
SCALE
  5
44
102
{ACAD_REACTORS
330
42
102
}
330
42
100
AcDbScale
 70
     0
300
1/128" = 1'-0"
140
0.0078125
141
12.0
290
     0
  0
SCALE
  5
45
102
{ACAD_REACTORS
330
42
102
}
330
42
100
AcDbScale
 70
     0
300
1/64" = 1'-0"
140
0.015625
141
12.0
290
     0
  0
SCALE
  5
46
102
{ACAD_REACTORS
330
42
102
}
330
42
100
AcDbScale
 70
     0
300
1/32" = 1'-0"
140
0.03125
141
12.0
290
     0
  0
SCALE
  5
47
102
{ACAD_REACTORS
330
42
102
}
330
42
100
AcDbScale
 70
     0
300
1/16" = 1'-0"
140
0.0625
141
12.0
290
     0
  0
SCALE
  5
48
102
{ACAD_REACTORS
330
42
102
}
330
42
100
AcDbScale
 70
     0
300
3/32" = 1'-0"
140
0.09375
141
12.0
290
     0
  0
SCALE
  5
49
102
{ACAD_REACTORS
330
42
102
}
330
42
100
AcDbScale
 70
     0
300
1/8" = 1'-0"
140
0.125
141
12.0
290
     0
  0
SCALE
  5
4A
102
{ACAD_REACTORS
330
42
102
}
330
42
100
AcDbScale
 70
     0
300
3/16" = 1'-0"
140
0.1875
141
12.0
290
     0
  0
SCALE
  5
4B
102
{ACAD_REACTORS
330
42
102
}
330
42
100
AcDbScale
 70
     0
300
1/4" = 1'-0"
140
0.25
141
12.0
290
     0
  0
SCALE
  5
4C
102
{ACAD_REACTORS
330
42
102
}
330
42
100
AcDbScale
 70
     0
300
3/8" = 1'-0"
140
0.375
141
12.0
290
     0
  0
SCALE
  5
4D
102
{ACAD_REACTORS
330
42
102
}
330
42
100
AcDbScale
 70
     0
300
1/2" = 1'-0"
140
0.5
141
12.0
290
     0
  0
SCALE
  5
4E
102
{ACAD_REACTORS
330
42
102
}
330
42
100
AcDbScale
 70
     0
300
3/4" = 1'-0"
140
0.75
141
12.0
290
     0
  0
SCALE
  5
4F
102
{ACAD_REACTORS
330
42
102
}
330
42
100
AcDbScale
 70
     0
300
1" = 1'-0"
140
1.0
141
12.0
290
     0
  0
SCALE
  5
50
102
{ACAD_REACTORS
330
42
102
}
330
42
100
AcDbScale
 70
     0
300
1-1/2" = 1'-0"
140
1.5
141
12.0
290
     0
  0
SCALE
  5
51
102
{ACAD_REACTORS
330
42
102
}
330
42
100
AcDbScale
 70
     0
300
3" = 1'-0"
140
3.0
141
12.0
290
     0
  0
SCALE
  5
52
102
{ACAD_REACTORS
330
42
102
}
330
42
100
AcDbScale
 70
     0
300
6" = 1'-0"
140
6.0
141
12.0
290
     0
  0
SCALE
  5
53
102
{ACAD_REACTORS
330
42
102
}
330
42
100
AcDbScale
 70
     0
300
1'-0" = 1'-0"
140
12.0
141
12.0
290
     0
  0
ACDBSECTIONVIEWSTYLE
  5
68
102
{ACAD_REACTORS
330
67
102
}
330
67
100
AcDbModelDocViewStyle
 70
     0
  3
Imperial24
290
     0
300
Imperial24
 90
        0
100
AcDbSectionViewStyle
 70
     0
 71
     0
 90
       78
 71
     1
340
55
 62
   256
 40
0.24
340
0
340
0
 62
   256
 40
0.24
300
I, O, Q, S, X, Z
 40
0.48
 90
        3
 40
0.18
 90
        1
 71
     2
340
5C
 90
       25
 62
   256
340
5C
 90
       50
 62
   256
 40
0.24
 40
0.0
 40
0.24
 71
     3
340
55
 62
   256
 40
0.24
 90
        1
 40
0.75
 90
        1
300
%<\AcVar ViewType \f "%tc1">% %<\AcVar ViewSectionStartId>%-%<\AcVar ViewSectionEndId>%\PSCALE %<\AcVar ViewScale \f "%sn">%
 71
     4
 62
   256
 62
   257
300
ANSI31
 40
1.0
 90
        0
290
     0
290
     0
 90
        6
 40
0.0
 40
1.570796326794896
 40
0.2617993877991494
 40
1.308996938995747
 40
-0.2617993877991494
 40
1.832595714594046
  0
TABLESTYLE
  5
64
102
{ACAD_XDICTIONARY
360
10C6
102
}
102
{ACAD_REACTORS
330
63
102
}
330
63
100
AcDbTableStyle
280
     0
  3
Standard
 70
     0
 71
     0
 40
0.06
 41
0.06
280
     0
281
     0
  7
Standard
140
0.18
170
     2
 62
     0
 63
     7
283
     0
 90
      512
 91
        0
  1

274
    -2
284
     1
 64
     0
275
    -2
285
     1
 65
     0
276
    -2
286
     1
 66
     0
277
    -2
287
     1
 67
     0
278
    -2
288
     1
 68
     0
279
    -2
289
     1
 69
     0
  7
Standard
140
0.25
170
     5
 62
     0
 63
     7
283
     0
 90
      512
 91
        0
  1

274
    -2
284
     1
 64
     0
275
    -2
285
     1
 65
     0
276
    -2
286
     1
 66
     0
277
    -2
287
     1
 67
     0
278
    -2
288
     1
 68
     0
279
    -2
289
     1
 69
     0
  7
Standard
140
0.18
170
     5
 62
     0
 63
     7
283
     0
 90
      512
 91
        0
  1

274
    -2
284
     1
 64
     0
275
    -2
285
     1
 65
     0
276
    -2
286
     1
 66
     0
277
    -2
287
     1
 67
     0
278
    -2
288
     1
 68
     0
279
    -2
289
     1
 69
     0
  0
VISUALSTYLE
  5
2F
102
{ACAD_REACTORS
330
29
102
}
330
29
100
AcDbVisualStyle
  2
2dWireframe
 70
     4
177
     3
291
     0
 70
    58
 90
        0
176
     1
 90
        2
176
     1
 90
        0
176
     1
 90
        0
176
     1
 40
0.6
176
     1
 40
30.0
176
     1
 62
     7
420
 16777215
176
     1
 90
        1
176
     1
 90
        4
176
     1
 62
     7
176
     1
 62
   257
176
     1
 90
        1
176
     1
 90
        1
176
     1
 40
1.0
176
     1
 90
        0
176
     1
 62
   257
176
     1
 40
1.0
176
     1
 90
        1
176
     1
 90
        6
176
     1
 90
        2
176
     1
 62
     7
176
     1
 90
        5
176
     1
 90
        0
176
     1
 90
        0
176
     1
290
     0
176
     1
 90
        1
176
     1
 40
0.0
176
     1
 90
        0
176
     1
290
     1
176
     1
290
     1
176
     1
290
     0
176
     1
290
     0
176
     1
290
     0
176
     1
290
     0
176
     1
290
     0
176
     1
290
     0
176
     1
290
     0
176
     1
 90
       50
176
     1
 40
0.0
176
     1
 40
1.0
176
     1
 90
        0
176
     1
 62
    18
420
        0
176
     1
 90
       50
176
     1
 90
        3
176
     1
 62
     5
420
      255
176
     1
290
     0
176
     1
 90
       50
176
     1
 90
       50
176
     1
 90
       50
176
     1
290
     0
176
     1
 90
       50
176
     1
 62
   256
176
     0
 40
1.0
176
     0
 90
        2
176
     1
  1
strokes_ogs.tif
176
     1
290
     0
176
     1
 40
1.0
176
     1
 40
1.0
176
     1
  0
VISUALSTYLE
  5
2E
102
{ACAD_REACTORS
330
29
102
}
330
29
100
AcDbVisualStyle
  2
Basic
 70
     7
177
     3
291
     1
 70
    58
 90
        1
176
     1
 90
        0
176
     1
 90
        1
176
     1
 90
        0
176
     1
 40
0.6
176
     1
 40
30.0
176
     1
 62
     7
420
 16777215
176
     1
 90
        0
176
     1
 90
        4
176
     1
 62
     7
176
     1
 62
   257
176
     1
 90
        1
176
     1
 90
        1
176
     1
 40
1.0
176
     1
 90
        8
176
     1
 62
     7
176
     1
 40
1.0
176
     1
 90
        1
176
     1
 90
        6
176
     1
 90
        2
176
     1
 62
     7
176
     1
 90
        5
176
     1
 90
        0
176
     1
 90
        0
176
     1
290
     0
176
     1
 90
        1
176
     1
 40
0.0
176
     1
 90
        0
176
     1
290
     0
176
     1
290
     1
176
     1
290
     1
176
     1
290
     0
176
     1
290
     0
176
     1
290
     0
176
     1
290
     0
176
     1
290
     0
176
     1
290
     0
176
     1
 90
       50
176
     1
 40
0.0
176
     1
 40
1.0
176
     1
 90
        0
176
     1
 62
    18
420
        0
176
     1
 90
       50
176
     1
 90
        3
176
     1
 62
     5
420
      255
176
     1
290
     0
176
     1
 90
       50
176
     1
 90
       50
176
     1
 90
       50
176
     1
290
     0
176
     1
 90
       50
176
     1
 62
   256
176
     0
 40
1.0
176
     0
 90
        2
176
     1
  1
strokes_ogs.tif
176
     1
290
     0
176
     1
 40
1.0
176
     1
 40
1.0
176
     1
  0
VISUALSTYLE
  5
35
102
{ACAD_REACTORS
330
29
102
}
330
29
100
AcDbVisualStyle
  2
Brighten
 70
    12
177
     3
291
     1
 70
    58
 90
        2
176
     1
 90
        2
176
     1
 90
        0
176
     1
 90
        0
176
     1
 40
0.6
176
     1
 40
30.0
176
     1
 62
     7
420
 16777215
176
     1
 90
        1
176
     1
 90
        4
176
     1
 62
     7
176
     1
 62
   257
176
     1
 90
        1
176
     1
 90
        1
176
     1
 40
1.0
176
     1
 90
        8
176
     1
 62
     7
176
     1
 40
1.0
176
     1
 90
        1
176
     1
 90
        6
176
     1
 90
        2
176
     1
 62
     7
176
     1
 90
        5
176
     1
 90
        0
176
     1
 90
        0
176
     1
290
     0
176
     1
 90
        1
176
     1
 40
50.0
176
     1
 90
        0
176
     1
290
     0
176
     1
290
     1
176
     1
290
     1
176
     1
290
     0
176
     1
290
     0
176
     1
290
     0
176
     1
290
     0
176
     1
290
     0
176
     1
290
     0
176
     1
 90
       50
176
     1
 40
0.0
176
     1
 40
1.0
176
     1
 90
        0
176
     1
 62
    18
420
        0
176
     1
 90
       50
176
     1
 90
        3
176
     1
 62
     5
420
      255
176
     1
290
     0
176
     1
 90
       50
176
     1
 90
       50
176
     1
 90
       50
176
     1
290
     0
176
     1
 90
       50
176
     1
 62
   256
176
     0
 40
1.0
176
     0
 90
        2
176
     1
  1
strokes_ogs.tif
176
     1
290
     0
176
     1
 40
1.0
176
     1
 40
1.0
176
     1
  0
VISUALSTYLE
  5
39
102
{ACAD_REACTORS
330
29
102
}
330
29
100
AcDbVisualStyle
  2
ColorChange
 70
    16
177
     3
291
     1
 70
    58
 90
        2
176
     1
 90
        2
176
     1
 90
        3
176
     1
 90
        0
176
     1
 40
0.6
176
     1
 40
30.0
176
     1
 62
     8
420
  8421504
176
     1
 90
        1
176
     1
 90
        4
176
     1
 62
     7
176
     1
 62
   257
176
     1
 90
        1
176
     1
 90
        1
176
     1
 40
1.0
176
     1
 90
        8
176
     1
 62
     8
420
  8421504
176
     1
 40
1.0
176
     1
 90
        1
176
     1
 90
        6
176
     1
 90
        2
176
     1
 62
     7
176
     1
 90
        5
176
     1
 90
        0
176
     1
 90
        0
176
     1
290
     0
176
     1
 90
        1
176
     1
 40
0.0
176
     1
 90
        0
176
     1
290
     0
176
     1
290
     1
176
     1
290
     1
176
     1
290
     0
176
     1
290
     0
176
     1
290
     0
176
     1
290
     0
176
     1
290
     0
176
     1
290
     0
176
     1
 90
       50
176
     1
 40
0.0
176
     1
 40
1.0
176
     1
 90
        0
176
     1
 62
    18
420
        0
176
     1
 90
       50
176
     1
 90
        3
176
     1
 62
     5
420
      255
176
     1
290
     0
176
     1
 90
       50
176
     1
 90
       50
176
     1
 90
       50
176
     1
290
     0
176
     1
 90
       50
176
     1
 62
   256
176
     0
 40
1.0
176
     0
 90
        2
176
     1
  1
strokes_ogs.tif
176
     1
290
     0
176
     1
 40
1.0
176
     1
 40
1.0
176
     1
  0
VISUALSTYLE
  5
32
102
{ACAD_REACTORS
330
29
102
}
330
29
100
AcDbVisualStyle
  2
Conceptual
 70
     9
177
     3
291
     0
 70
    58
 90
        3
176
     1
 90
        2
176
     1
 90
        0
176
     1
 90
        0
176
     1
 40
0.6
176
     1
 40
30.0
176
     1
 62
     7
420
 16777215
176
     1
 90
        2
176
     1
 90
        2
176
     1
 62
     7
176
     1
 62
   257
176
     1
 90
        1
176
     1
 90
        1
176
     1
 40
179.0
176
     1
 90
        8
176
     1
 62
     7
176
     1
 40
1.0
176
     1
 90
        1
176
     1
 90
        6
176
     1
 90
        2
176
     1
 62
     7
176
     1
 90
        3
176
     1
 90
        0
176
     1
 90
        0
176
     1
290
     0
176
     1
 90
        1
176
     1
 40
0.0
176
     1
 90
        0
176
     1
290
     0
176
     1
290
     1
176
     1
290
     1
176
     1
290
     0
176
     1
290
     0
176
     1
290
     0
176
     1
290
     0
176
     1
290
     0
176
     1
290
     0
176
     1
 90
       50
176
     1
 40
0.0
176
     1
 40
1.0
176
     1
 90
        0
176
     1
 62
    18
420
        0
176
     1
 90
       50
176
     1
 90
        3
176
     1
 62
     5
420
      255
176
     1
290
     0
176
     1
 90
       50
176
     1
 90
       50
176
     1
 90
       50
176
     1
290
     0
176
     1
 90
       50
176
     1
 62
   256
176
     0
 40
1.0
176
     0
 90
        2
176
     1
  1
strokes_ogs.tif
176
     1
290
     0
176
     1
 40
1.0
176
     1
 40
1.0
176
     1
  0
VISUALSTYLE
  5
34
102
{ACAD_REACTORS
330
29
102
}
330
29
100
AcDbVisualStyle
  2
Dim
 70
    11
177
     3
291
     1
 70
    58
 90
        2
176
     1
 90
        2
176
     1
 90
        0
176
     1
 90
        0
176
     1
 40
0.6
176
     1
 40
30.0
176
     1
 62
     7
420
 16777215
176
     1
 90
        1
176
     1
 90
        4
176
     1
 62
     7
176
     1
 62
   257
176
     1
 90
        1
176
     1
 90
        1
176
     1
 40
1.0
176
     1
 90
        8
176
     1
 62
     7
176
     1
 40
1.0
176
     1
 90
        1
176
     1
 90
        6
176
     1
 90
        2
176
     1
 62
     7
176
     1
 90
        5
176
     1
 90
        0
176
     1
 90
        0
176
     1
290
     0
176
     1
 90
        1
176
     1
 40
-50.0
176
     1
 90
        0
176
     1
290
     0
176
     1
290
     1
176
     1
290
     1
176
     1
290
     0
176
     1
290
     0
176
     1
290
     0
176
     1
290
     0
176
     1
290
     0
176
     1
290
     0
176
     1
 90
       50
176
     1
 40
0.0
176
     1
 40
1.0
176
     1
 90
        0
176
     1
 62
    18
420
        0
176
     1
 90
       50
176
     1
 90
        3
176
     1
 62
     5
420
      255
176
     1
290
     0
176
     1
 90
       50
176
     1
 90
       50
176
     1
 90
       50
176
     1
290
     0
176
     1
 90
       50
176
     1
 62
   256
176
     0
 40
1.0
176
     0
 90
        2
176
     1
  1
strokes_ogs.tif
176
     1
290
     0
176
     1
 40
1.0
176
     1
 40
1.0
176
     1
  0
VISUALSTYLE
  5
41
102
{ACAD_REACTORS
330
29
102
}
330
29
100
AcDbVisualStyle
  2
EdgeColorOff
 70
    22
177
     3
291
     1
 70
    58
 90
        2
176
     0
 90
        2
176
     0
 90
        0
176
     0
 90
        0
176
     0
 40
0.6
176
     0
 40
30.0
176
     0
 62
     7
420
 16777215
176
     0
 90
        1
176
     0
 90
        4
176
     0
 62
     7
176
     0
 62
   257
176
     0
 90
        1
176
     0
 90
        1
176
     0
 40
1.0
176
     0
 90
        8
176
     2
 62
     7
176
     0
 40
1.0
176
     0
 90
        1
176
     0
 90
        6
176
     0
 90
        2
176
     0
 62
     7
176
     0
 90
        5
176
     0
 90
        0
176
     0
 90
        0
176
     0
290
     0
176
     0
 90
        1
176
     0
 40
0.0
176
     0
 90
        0
176
     0
290
     0
176
     1
290
     1
176
     1
290
     1
176
     1
290
     0
176
     1
290
     0
176
     1
290
     0
176
     1
290
     0
176
     1
290
     0
176
     1
290
     0
176
     1
 90
       50
176
     0
 40
0.0
176
     0
 40
1.0
176
     0
 90
        0
176
     0
 62
    18
420
        0
176
     0
 90
       50
176
     0
 90
        3
176
     0
 62
     5
420
      255
176
     0
290
     0
176
     1
 90
       50
176
     0
 90
       50
176
     0
 90
       50
176
     0
290
     0
176
     1
 90
       50
176
     0
 62
   256
176
     0
 40
1.0
176
     0
 90
        2
176
     0
  1
strokes_ogs.tif
176
     0
290
     0
176
     1
 40
1.0
176
     0
 40
1.0
176
     0
  0
VISUALSTYLE
  5
38
102
{ACAD_REACTORS
330
29
102
}
330
29
100
AcDbVisualStyle
  2
Facepattern
 70
    15
177
     3
291
     1
 70
    58
 90
        2
176
     1
 90
        2
176
     1
 90
        0
176
     1
 90
        0
176
     1
 40
0.6
176
     1
 40
30.0
176
     1
 62
     7
420
 16777215
176
     1
 90
        1
176
     1
 90
        4
176
     1
 62
     7
176
     1
 62
   257
176
     1
 90
        1
176
     1
 90
        1
176
     1
 40
1.0
176
     1
 90
        8
176
     1
 62
     7
176
     1
 40
1.0
176
     1
 90
        1
176
     1
 90
        6
176
     1
 90
        2
176
     1
 62
     7
176
     1
 90
        5
176
     1
 90
        0
176
     1
 90
        0
176
     1
290
     0
176
     1
 90
        1
176
     1
 40
0.0
176
     1
 90
        0
176
     1
290
     0
176
     1
290
     1
176
     1
290
     1
176
     1
290
     0
176
     1
290
     0
176
     1
290
     0
176
     1
290
     0
176
     1
290
     0
176
     1
290
     0
176
     1
 90
       50
176
     1
 40
0.0
176
     1
 40
1.0
176
     1
 90
        0
176
     1
 62
    18
420
        0
176
     1
 90
       50
176
     1
 90
        3
176
     1
 62
     5
420
      255
176
     1
290
     0
176
     1
 90
       50
176
     1
 90
       50
176
     1
 90
       50
176
     1
290
     0
176
     1
 90
       50
176
     1
 62
   256
176
     0
 40
1.0
176
     0
 90
        2
176
     1
  1
strokes_ogs.tif
176
     1
290
     0
176
     1
 40
1.0
176
     1
 40
1.0
176
     1
  0
VISUALSTYLE
  5
2A
102
{ACAD_REACTORS
330
29
102
}
330
29
100
AcDbVisualStyle
  2
Flat
 70
     0
177
     3
291
     1
 70
    58
 90
        2
176
     1
 90
        1
176
     1
 90
        1
176
     1
 90
        2
176
     1
 40
0.6
176
     1
 40
30.0
176
     1
 62
     7
420
 16777215
176
     1
 90
        0
176
     1
 90
        0
176
     1
 62
     7
176
     1
 62
   257
176
     1
 90
        1
176
     1
 90
        1
176
     1
 40
1.0
176
     1
 90
        8
176
     1
 62
     7
176
     1
 40
1.0
176
     1
 90
        1
176
     1
 90
        6
176
     1
 90
        2
176
     1
 62
     7
176
     1
 90
        5
176
     1
 90
        0
176
     1
 90
        0
176
     1
290
     0
176
     1
 90
       13
176
     1
 40
0.0
176
     1
 90
        0
176
     1
290
     0
176
     1
290
     1
176
     1
290
     1
176
     1
290
     0
176
     1
290
     0
176
     1
290
     0
176
     1
290
     0
176
     1
290
     0
176
     1
290
     0
176
     1
 90
       50
176
     1
 40
0.0
176
     1
 40
1.0
176
     1
 90
        0
176
     1
 62
    18
420
        0
176
     1
 90
       50
176
     1
 90
        3
176
     1
 62
     5
420
      255
176
     1
290
     0
176
     1
 90
       50
176
     1
 90
       50
176
     1
 90
       50
176
     1
290
     0
176
     1
 90
       50
176
     1
 62
   256
176
     0
 40
1.0
176
     0
 90
        2
176
     1
  1
strokes_ogs.tif
176
     1
290
     0
176
     1
 40
1.0
176
     1
 40
1.0
176
     1
  0
VISUALSTYLE
  5
2B
102
{ACAD_REACTORS
330
29
102
}
330
29
100
AcDbVisualStyle
  2
FlatWithEdges
 70
     1
177
     3
291
     1
 70
    58
 90
        2
176
     1
 90
        1
176
     1
 90
        1
176
     1
 90
        2
176
     1
 40
0.6
176
     1
 40
30.0
176
     1
 62
     7
420
 16777215
176
     1
 90
        1
176
     1
 90
        0
176
     1
 62
     7
176
     1
 62
   257
176
     1
 90
        1
176
     1
 90
        1
176
     1
 40
1.0
176
     1
 90
        0
176
     1
 62
   257
176
     1
 40
1.0
176
     1
 90
        1
176
     1
 90
        6
176
     1
 90
        2
176
     1
 62
     7
176
     1
 90
        5
176
     1
 90
        0
176
     1
 90
        0
176
     1
290
     0
176
     1
 90
       13
176
     1
 40
0.0
176
     1
 90
        0
176
     1
290
     0
176
     1
290
     1
176
     1
290
     1
176
     1
290
     0
176
     1
290
     0
176
     1
290
     0
176
     1
290
     0
176
     1
290
     0
176
     1
290
     0
176
     1
 90
       50
176
     1
 40
0.0
176
     1
 40
1.0
176
     1
 90
        0
176
     1
 62
    18
420
        0
176
     1
 90
       50
176
     1
 90
        3
176
     1
 62
     5
420
      255
176
     1
290
     0
176
     1
 90
       50
176
     1
 90
       50
176
     1
 90
       50
176
     1
290
     0
176
     1
 90
       50
176
     1
 62
   256
176
     0
 40
1.0
176
     0
 90
        2
176
     1
  1
strokes_ogs.tif
176
     1
290
     0
176
     1
 40
1.0
176
     1
 40
1.0
176
     1
  0
VISUALSTYLE
  5
2C
102
{ACAD_REACTORS
330
29
102
}
330
29
100
AcDbVisualStyle
  2
Gouraud
 70
     2
177
     3
291
     1
 70
    58
 90
        2
176
     1
 90
        2
176
     1
 90
        1
176
     1
 90
        2
176
     1
 40
0.6
176
     1
 40
30.0
176
     1
 62
     7
420
 16777215
176
     1
 90
        0
176
     1
 90
        0
176
     1
 62
     7
176
     1
 62
   257
176
     1
 90
        1
176
     1
 90
        1
176
     1
 40
1.0
176
     1
 90
        0
176
     1
 62
     7
176
     1
 40
1.0
176
     1
 90
        1
176
     1
 90
        6
176
     1
 90
        2
176
     1
 62
     7
176
     1
 90
        5
176
     1
 90
        0
176
     1
 90
        0
176
     1
290
     0
176
     1
 90
       13
176
     1
 40
0.0
176
     1
 90
        0
176
     1
290
     0
176
     1
290
     1
176
     1
290
     1
176
     1
290
     0
176
     1
290
     0
176
     1
290
     0
176
     1
290
     0
176
     1
290
     0
176
     1
290
     0
176
     1
 90
       50
176
     1
 40
0.0
176
     1
 40
1.0
176
     1
 90
        0
176
     1
 62
    18
420
        0
176
     1
 90
       50
176
     1
 90
        3
176
     1
 62
     5
420
      255
176
     1
290
     0
176
     1
 90
       50
176
     1
 90
       50
176
     1
 90
       50
176
     1
290
     0
176
     1
 90
       50
176
     1
 62
   256
176
     0
 40
1.0
176
     0
 90
        2
176
     1
  1
strokes_ogs.tif
176
     1
290
     0
176
     1
 40
1.0
176
     1
 40
1.0
176
     1
  0
VISUALSTYLE
  5
2D
102
{ACAD_REACTORS
330
29
102
}
330
29
100
AcDbVisualStyle
  2
GouraudWithEdges
 70
     3
177
     3
291
     1
 70
    58
 90
        2
176
     1
 90
        2
176
     1
 90
        1
176
     1
 90
        2
176
     1
 40
0.6
176
     1
 40
30.0
176
     1
 62
     7
420
 16777215
176
     1
 90
        1
176
     1
 90
        0
176
     1
 62
     7
176
     1
 62
   257
176
     1
 90
        1
176
     1
 90
        1
176
     1
 40
1.0
176
     1
 90
        0
176
     1
 62
   257
176
     1
 40
1.0
176
     1
 90
        1
176
     1
 90
        6
176
     1
 90
        2
176
     1
 62
     7
176
     1
 90
        5
176
     1
 90
        0
176
     1
 90
        0
176
     1
290
     0
176
     1
 90
       13
176
     1
 40
0.0
176
     1
 90
        0
176
     1
290
     0
176
     1
290
     1
176
     1
290
     1
176
     1
290
     0
176
     1
290
     0
176
     1
290
     0
176
     1
290
     0
176
     1
290
     0
176
     1
290
     0
176
     1
 90
       50
176
     1
 40
0.0
176
     1
 40
1.0
176
     1
 90
        0
176
     1
 62
    18
420
        0
176
     1
 90
       50
176
     1
 90
        3
176
     1
 62
     5
420
      255
176
     1
290
     0
176
     1
 90
       50
176
     1
 90
       50
176
     1
 90
       50
176
     1
290
     0
176
     1
 90
       50
176
     1
 62
   256
176
     0
 40
1.0
176
     0
 90
        2
176
     1
  1
strokes_ogs.tif
176
     1
290
     0
176
     1
 40
1.0
176
     1
 40
1.0
176
     1
  0
VISUALSTYLE
  5
31
102
{ACAD_REACTORS
330
29
102
}
330
29
100
AcDbVisualStyle
  2
Hidden
 70
     6
177
     3
291
     0
 70
    58
 90
        1
176
     1
 90
        2
176
     1
 90
        2
176
     1
 90
        0
176
     1
 40
0.6
176
     1
 40
30.0
176
     1
 62
     7
420
 16777215
176
     1
 90
        2
176
     1
 90
        2
176
     1
 62
     7
176
     1
 62
   257
176
     1
 90
        2
176
     1
 90
        1
176
     1
 40
40.0
176
     1
 90
        0
176
     1
 62
   257
176
     1
 40
1.0
176
     1
 90
        1
176
     1
 90
        6
176
     1
 90
        2
176
     1
 62
     7
176
     1
 90
        3
176
     1
 90
        0
176
     1
 90
        0
176
     1
290
     0
176
     1
 90
        1
176
     1
 40
0.0
176
     1
 90
        0
176
     1
290
     0
176
     1
290
     1
176
     1
290
     1
176
     1
290
     0
176
     1
290
     0
176
     1
290
     0
176
     1
290
     0
176
     1
290
     0
176
     1
290
     0
176
     1
 90
       50
176
     1
 40
0.0
176
     1
 40
1.0
176
     1
 90
        0
176
     1
 62
    18
420
        0
176
     1
 90
       50
176
     1
 90
        3
176
     1
 62
     5
420
      255
176
     1
290
     0
176
     1
 90
       50
176
     1
 90
       50
176
     1
 90
       50
176
     1
290
     0
176
     1
 90
       50
176
     1
 62
   256
176
     0
 40
1.0
176
     0
 90
        2
176
     1
  1
strokes_ogs.tif
176
     1
290
     0
176
     1
 40
1.0
176
     1
 40
1.0
176
     1
  0
VISUALSTYLE
  5
3F
102
{ACAD_REACTORS
330
29
102
}
330
29
100
AcDbVisualStyle
  2
JitterOff
 70
    20
177
     3
291
     1
 70
    58
 90
        2
176
     0
 90
        2
176
     0
 90
        0
176
     0
 90
        0
176
     0
 40
0.6
176
     0
 40
30.0
176
     0
 62
     7
420
 16777215
176
     0
 90
        1
176
     0
 90
        4
176
     0
 62
     7
176
     0
 62
   257
176
     0
 90
        1
176
     0
 90
        1
176
     0
 40
1.0
176
     0
 90
       10
176
     2
 62
     7
176
     0
 40
1.0
176
     0
 90
        1
176
     0
 90
        6
176
     0
 90
        2
176
     0
 62
     7
176
     0
 90
        5
176
     0
 90
        0
176
     0
 90
        0
176
     0
290
     0
176
     0
 90
        1
176
     0
 40
0.0
176
     0
 90
        0
176
     0
290
     0
176
     1
290
     1
176
     1
290
     1
176
     1
290
     0
176
     1
290
     0
176
     1
290
     0
176
     1
290
     0
176
     1
290
     0
176
     1
290
     0
176
     1
 90
       50
176
     0
 40
0.0
176
     0
 40
1.0
176
     0
 90
        0
176
     0
 62
    18
420
        0
176
     0
 90
       50
176
     0
 90
        3
176
     0
 62
     5
420
      255
176
     0
290
     0
176
     1
 90
       50
176
     0
 90
       50
176
     0
 90
       50
176
     0
290
     0
176
     1
 90
       50
176
     0
 62
   256
176
     0
 40
1.0
176
     0
 90
        2
176
     0
  1
strokes_ogs.tif
176
     0
290
     0
176
     1
 40
1.0
176
     0
 40
1.0
176
     0
  0
VISUALSTYLE
  5
37
102
{ACAD_REACTORS
330
29
102
}
330
29
100
AcDbVisualStyle
  2
Linepattern
 70
    14
177
     3
291
     1
 70
    58
 90
        2
176
     1
 90
        2
176
     1
 90
        0
176
     1
 90
        0
176
     1
 40
0.6
176
     1
 40
30.0
176
     1
 62
     7
420
 16777215
176
     1
 90
        1
176
     1
 90
        4
176
     1
 62
     7
176
     1
 62
   257
176
     1
 90
        7
176
     1
 90
        7
176
     1
 40
1.0
176
     1
 90
        8
176
     1
 62
     7
176
     1
 40
1.0
176
     1
 90
        1
176
     1
 90
        6
176
     1
 90
        2
176
     1
 62
     7
176
     1
 90
        5
176
     1
 90
        0
176
     1
 90
        0
176
     1
290
     0
176
     1
 90
        1
176
     1
 40
0.0
176
     1
 90
        0
176
     1
290
     0
176
     1
290
     1
176
     1
290
     1
176
     1
290
     0
176
     1
290
     0
176
     1
290
     0
176
     1
290
     0
176
     1
290
     0
176
     1
290
     0
176
     1
 90
       50
176
     1
 40
0.0
176
     1
 40
1.0
176
     1
 90
        0
176
     1
 62
    18
420
        0
176
     1
 90
       50
176
     1
 90
        3
176
     1
 62
     5
420
      255
176
     1
290
     0
176
     1
 90
       50
176
     1
 90
       50
176
     1
 90
       50
176
     1
290
     0
176
     1
 90
       50
176
     1
 62
   256
176
     0
 40
1.0
176
     0
 90
        2
176
     1
  1
strokes_ogs.tif
176
     1
290
     0
176
     1
 40
1.0
176
     1
 40
1.0
176
     1
  0
VISUALSTYLE
  5
40
102
{ACAD_REACTORS
330
29
102
}
330
29
100
AcDbVisualStyle
  2
OverhangOff
 70
    21
177
     3
291
     1
 70
    58
 90
        2
176
     0
 90
        2
176
     0
 90
        0
176
     0
 90
        0
176
     0
 40
0.6
176
     0
 40
30.0
176
     0
 62
     7
420
 16777215
176
     0
 90
        1
176
     0
 90
        4
176
     0
 62
     7
176
     0
 62
   257
176
     0
 90
        1
176
     0
 90
        1
176
     0
 40
1.0
176
     0
 90
        9
176
     2
 62
     7
176
     0
 40
1.0
176
     0
 90
        1
176
     0
 90
        6
176
     0
 90
        2
176
     0
 62
     7
176
     0
 90
        5
176
     0
 90
        0
176
     0
 90
        0
176
     0
290
     0
176
     0
 90
        1
176
     0
 40
0.0
176
     0
 90
        0
176
     0
290
     0
176
     1
290
     1
176
     1
290
     1
176
     1
290
     0
176
     1
290
     0
176
     1
290
     0
176
     1
290
     0
176
     1
290
     0
176
     1
290
     0
176
     1
 90
       50
176
     0
 40
0.0
176
     0
 40
1.0
176
     0
 90
        0
176
     0
 62
    18
420
        0
176
     0
 90
       50
176
     0
 90
        3
176
     0
 62
     5
420
      255
176
     0
290
     0
176
     1
 90
       50
176
     0
 90
       50
176
     0
 90
       50
176
     0
290
     0
176
     1
 90
       50
176
     0
 62
   256
176
     0
 40
1.0
176
     0
 90
        2
176
     0
  1
strokes_ogs.tif
176
     0
290
     0
176
     1
 40
1.0
176
     0
 40
1.0
176
     0
  0
VISUALSTYLE
  5
33
102
{ACAD_REACTORS
330
29
102
}
330
29
100
AcDbVisualStyle
  2
Realistic
 70
     8
177
     3
291
     0
 70
    58
 90
        2
176
     1
 90
        3
176
     1
 90
        0
176
     1
 90
        2
176
     1
 40
0.6
176
     1
 40
30.0
176
     1
 62
     7
420
 16777215
176
     1
 90
        0
176
     1
 90
        0
176
     1
 62
     7
176
     1
 62
   257
176
     1
 90
        1
176
     1
 90
        1
176
     1
 40
1.0
176
     1
 90
        8
176
     1
 62
   257
176
     1
 40
1.0
176
     1
 90
        1
176
     1
 90
        6
176
     1
 90
        2
176
     1
 62
     7
176
     1
 90
        3
176
     1
 90
        0
176
     1
 90
        0
176
     1
290
     0
176
     1
 90
       13
176
     1
 40
0.0
176
     1
 90
        0
176
     1
290
     0
176
     1
290
     1
176
     1
290
     1
176
     1
290
     0
176
     1
290
     0
176
     1
290
     0
176
     1
290
     0
176
     1
290
     0
176
     1
290
     0
176
     1
 90
       50
176
     1
 40
0.0
176
     1
 40
1.0
176
     1
 90
        0
176
     1
 62
    18
420
        0
176
     1
 90
       50
176
     1
 90
        3
176
     1
 62
     5
420
      255
176
     1
290
     0
176
     1
 90
       50
176
     1
 90
       50
176
     1
 90
       50
176
     1
290
     0
176
     1
 90
       50
176
     1
 62
   256
176
     0
 40
1.0
176
     0
 90
        2
176
     1
  1
strokes_ogs.tif
176
     1
290
     0
176
     1
 40
1.0
176
     1
 40
1.0
176
     1
  0
VISUALSTYLE
  5
3E
102
{ACAD_REACTORS
330
29
102
}
330
29
100
AcDbVisualStyle
  2
Shaded
 70
    27
177
     3
291
     0
 70
    58
 90
        2
176
     1
 90
        2
176
     1
 90
        1
176
     1
 90
        2
176
     1
 40
0.6
176
     1
 40
30.0
176
     1
 62
     7
420
 16777215
176
     1
 90
        0
176
     1
 90
        4
176
     1
 62
     7
176
     1
 62
   257
176
     1
 90
        1
176
     1
 90
        1
176
     1
 40
1.0
176
     1
 90
        8
176
     1
 62
   257
176
     1
 40
1.0
176
     1
 90
        1
176
     1
 90
        6
176
     1
 90
        2
176
     1
 62
     8
420
  7895160
176
     1
 90
        3
176
     1
 90
        0
176
     1
 90
        0
176
     1
290
     0
176
     1
 90
        5
176
     1
 40
0.0
176
     1
 90
        0
176
     1
290
     0
176
     1
290
     1
176
     1
290
     1
176
     1
290
     0
176
     1
290
     0
176
     1
290
     0
176
     1
290
     0
176
     1
290
     0
176
     1
290
     0
176
     1
 90
       50
176
     1
 40
0.0
176
     1
 40
1.0
176
     1
 90
        0
176
     1
 62
    18
420
        0
176
     1
 90
       50
176
     1
 90
        3
176
     1
 62
     5
420
      255
176
     1
290
     0
176
     1
 90
       50
176
     1
 90
       50
176
     1
 90
       50
176
     1
290
     0
176
     1
 90
       50
176
     1
 62
   256
176
     0
 40
1.0
176
     0
 90
        2
176
     1
  1
strokes_ogs.tif
176
     1
290
     0
176
     1
 40
1.0
176
     1
 40
1.0
176
     1
  0
VISUALSTYLE
  5
3D
102
{ACAD_REACTORS
330
29
102
}
330
29
100
AcDbVisualStyle
  2
Shaded with edges
 70
    26
177
     3
291
     0
 70
    58
 90
        2
176
     1
 90
        2
176
     1
 90
        1
176
     1
 90
        2
176
     1
 40
0.6
176
     1
 40
30.0
176
     1
 62
     7
420
 16777215
176
     1
 90
        1
176
     1
 90
        2
176
     1
 62
     7
176
     1
 62
   257
176
     1
 90
        2
176
     1
 90
        1
176
     1
 40
1.0
176
     1
 90
        8
176
     1
 62
   257
176
     1
 40
1.0
176
     1
 90
        1
176
     1
 90
        6
176
     1
 90
        2
176
     1
 62
     7
176
     1
 90
        3
176
     1
 90
        0
176
     1
 90
        0
176
     1
290
     0
176
     1
 90
        5
176
     1
 40
0.0
176
     1
 90
        0
176
     1
290
     0
176
     1
290
     1
176
     1
290
     1
176
     1
290
     0
176
     1
290
     0
176
     1
290
     0
176
     1
290
     0
176
     1
290
     0
176
     1
290
     0
176
     1
 90
       50
176
     1
 40
0.0
176
     1
 40
1.0
176
     1
 90
        0
176
     1
 62
    18
420
        0
176
     1
 90
       50
176
     1
 90
        3
176
     1
 62
     5
420
      255
176
     1
290
     0
176
     1
 90
       50
176
     1
 90
       50
176
     1
 90
       50
176
     1
290
     0
176
     1
 90
       50
176
     1
 62
   256
176
     0
 40
1.0
176
     0
 90
        2
176
     1
  1
strokes_ogs.tif
176
     1
290
     0
176
     1
 40
1.0
176
     1
 40
1.0
176
     1
  0
VISUALSTYLE
  5
3A
102
{ACAD_REACTORS
330
29
102
}
330
29
100
AcDbVisualStyle
  2
Shades of Gray
 70
    23
177
     3
291
     0
 70
    58
 90
        2
176
     1
 90
        2
176
     1
 90
        3
176
     1
 90
        0
176
     1
 40
0.6
176
     1
 40
30.0
176
     1
 62
     7
420
 16777215
176
     1
 90
        2
176
     1
 90
        2
176
     1
 62
     7
176
     1
 62
     7
176
     1
 90
        1
176
     1
 90
        1
176
     1
 40
40.0
176
     1
 90
        8
176
     1
 62
     7
176
     1
 40
1.0
176
     1
 90
        1
176
     1
 90
        6
176
     1
 90
        2
176
     1
 62
     7
176
     1
 90
        3
176
     1
 90
        0
176
     1
 90
        0
176
     1
290
     0
176
     1
 90
        1
176
     1
 40
0.0
176
     1
 90
        0
176
     1
290
     0
176
     1
290
     1
176
     1
290
     1
176
     1
290
     0
176
     1
290
     0
176
     1
290
     0
176
     1
290
     0
176
     1
290
     0
176
     1
290
     0
176
     1
 90
       50
176
     1
 40
0.0
176
     1
 40
1.0
176
     1
 90
        0
176
     1
 62
    18
420
        0
176
     1
 90
       50
176
     1
 90
        3
176
     1
 62
     5
420
      255
176
     1
290
     0
176
     1
 90
       50
176
     1
 90
       50
176
     1
 90
       50
176
     1
290
     0
176
     1
 90
       50
176
     1
 62
   256
176
     0
 40
1.0
176
     0
 90
        2
176
     1
  1
strokes_ogs.tif
176
     1
290
     0
176
     1
 40
1.0
176
     1
 40
1.0
176
     1
  0
VISUALSTYLE
  5
3B
102
{ACAD_REACTORS
330
29
102
}
330
29
100
AcDbVisualStyle
  2
Sketchy
 70
    24
177
     3
291
     0
 70
    58
 90
        1
176
     1
 90
        2
176
     1
 90
        2
176
     1
 90
        0
176
     1
 40
0.6
176
     1
 40
30.0
176
     1
 62
     7
420
 16777215
176
     1
 90
        2
176
     1
 90
        2
176
     1
 62
     7
176
     1
 62
     7
176
     1
 90
        1
176
     1
 90
        1
176
     1
 40
40.0
176
     1
 90
       11
176
     1
 62
     7
176
     1
 40
1.0
176
     1
 90
        1
176
     1
 90
        6
176
     1
 90
        2
176
     1
 62
     7
176
     1
 90
        6
176
     1
 90
        0
176
     1
 90
        0
176
     1
290
     0
176
     1
 90
        1
176
     1
 40
0.0
176
     1
 90
        0
176
     1
290
     0
176
     1
290
     1
176
     1
290
     1
176
     1
290
     0
176
     1
290
     0
176
     1
290
     0
176
     1
290
     0
176
     1
290
     0
176
     1
290
     0
176
     1
 90
       50
176
     1
 40
0.0
176
     1
 40
1.0
176
     1
 90
        0
176
     1
 62
    18
420
        0
176
     1
 90
       50
176
     1
 90
        3
176
     1
 62
     5
420
      255
176
     1
290
     0
176
     1
 90
       50
176
     1
 90
       50
176
     1
 90
       50
176
     1
290
     0
176
     1
 90
       50
176
     1
 62
   256
176
     0
 40
1.0
176
     0
 90
        2
176
     1
  1
strokes_ogs.tif
176
     1
290
     0
176
     1
 40
1.0
176
     1
 40
1.0
176
     1
  0
VISUALSTYLE
  5
36
102
{ACAD_REACTORS
330
29
102
}
330
29
100
AcDbVisualStyle
  2
Thicken
 70
    13
177
     3
291
     1
 70
    58
 90
        2
176
     1
 90
        2
176
     1
 90
        0
176
     1
 90
        0
176
     1
 40
0.6
176
     1
 40
30.0
176
     1
 62
     7
420
 16777215
176
     1
 90
        1
176
     1
 90
        4
176
     1
 62
     7
176
     1
 62
   257
176
     1
 90
        1
176
     1
 90
        1
176
     1
 40
1.0
176
     1
 90
       12
176
     1
 62
     7
176
     1
 40
1.0
176
     1
 90
        1
176
     1
 90
        6
176
     1
 90
        2
176
     1
 62
     7
176
     1
 90
        5
176
     1
 90
        0
176
     1
 90
        0
176
     1
290
     0
176
     1
 90
        1
176
     1
 40
0.0
176
     1
 90
        0
176
     1
290
     0
176
     1
290
     1
176
     1
290
     1
176
     1
290
     0
176
     1
290
     0
176
     1
290
     0
176
     1
290
     0
176
     1
290
     0
176
     1
290
     0
176
     1
 90
       50
176
     1
 40
0.0
176
     1
 40
1.0
176
     1
 90
        0
176
     1
 62
    18
420
        0
176
     1
 90
       50
176
     1
 90
        3
176
     1
 62
     5
420
      255
176
     1
290
     0
176
     1
 90
       50
176
     1
 90
       50
176
     1
 90
       50
176
     1
290
     0
176
     1
 90
       50
176
     1
 62
   256
176
     0
 40
1.0
176
     0
 90
        2
176
     1
  1
strokes_ogs.tif
176
     1
290
     0
176
     1
 40
1.0
176
     1
 40
1.0
176
     1
  0
VISUALSTYLE
  5
30
102
{ACAD_REACTORS
330
29
102
}
330
29
100
AcDbVisualStyle
  2
Wireframe
 70
     5
177
     3
291
     0
 70
    58
 90
        0
176
     1
 90
        2
176
     1
 90
        0
176
     1
 90
        0
176
     1
 40
0.6
176
     1
 40
30.0
176
     1
 62
     7
420
 16777215
176
     1
 90
        1
176
     1
 90
        4
176
     1
 62
     7
176
     1
 62
   257
176
     1
 90
        1
176
     1
 90
        1
176
     1
 40
1.0
176
     1
 90
        0
176
     1
 62
   257
176
     1
 40
1.0
176
     1
 90
        1
176
     1
 90
        6
176
     1
 90
        2
176
     1
 62
     7
176
     1
 90
        3
176
     1
 90
        0
176
     1
 90
        0
176
     1
290
     0
176
     1
 90
        1
176
     1
 40
0.0
176
     1
 90
        0
176
     1
290
     0
176
     1
290
     1
176
     1
290
     1
176
     1
290
     0
176
     1
290
     0
176
     1
290
     0
176
     1
290
     0
176
     1
290
     0
176
     1
290
     0
176
     1
 90
       50
176
     1
 40
0.0
176
     1
 40
1.0
176
     1
 90
        0
176
     1
 62
    18
420
        0
176
     1
 90
       50
176
     1
 90
        3
176
     1
 62
     5
420
      255
176
     1
290
     0
176
     1
 90
       50
176
     1
 90
       50
176
     1
 90
       50
176
     1
290
     0
176
     1
 90
       50
176
     1
 62
   256
176
     0
 40
1.0
176
     0
 90
        2
176
     1
  1
strokes_ogs.tif
176
     1
290
     0
176
     1
 40
1.0
176
     1
 40
1.0
176
     1
  0
VISUALSTYLE
  5
3C
102
{ACAD_REACTORS
330
29
102
}
330
29
100
AcDbVisualStyle
  2
X-Ray
 70
    25
177
     3
291
     0
 70
    58
 90
        2
176
     1
 90
        2
176
     1
 90
        1
176
     1
 90
        1
176
     1
 40
0.5
176
     1
 40
30.0
176
     1
 62
     7
420
 16777215
176
     1
 90
        1
176
     1
 90
        0
176
     1
 62
     7
176
     1
 62
   257
176
     1
 90
        1
176
     1
 90
        1
176
     1
 40
1.0
176
     1
 90
        8
176
     1
 62
     7
176
     1
 40
1.0
176
     1
 90
        1
176
     1
 90
        6
176
     1
 90
        2
176
     1
 62
     7
176
     1
 90
        3
176
     1
 90
        0
176
     1
 90
        0
176
     1
290
     0
176
     1
 90
       13
176
     1
 40
0.0
176
     1
 90
        0
176
     1
290
     0
176
     1
290
     1
176
     1
290
     1
176
     1
290
     0
176
     1
290
     0
176
     1
290
     0
176
     1
290
     0
176
     1
290
     0
176
     1
290
     0
176
     1
 90
       50
176
     1
 40
0.0
176
     1
 40
1.0
176
     1
 90
        0
176
     1
 62
    18
420
        0
176
     1
 90
       50
176
     1
 90
        3
176
     1
 62
     5
420
      255
176
     1
290
     0
176
     1
 90
       50
176
     1
 90
       50
176
     1
 90
       50
176
     1
290
     0
176
     1
 90
       50
176
     1
 62
   256
176
     0
 40
1.0
176
     0
 90
        2
176
     1
  1
strokes_ogs.tif
176
     1
290
     0
176
     1
 40
1.0
176
     1
 40
1.0
176
     1
  0
DICTIONARYVAR
  5
C63
102
{ACAD_REACTORS
330
C5D
102
}
330
C5D
100
DictionaryVariables
280
     0
  1
1:1
  0
DICTIONARYVAR
  5
C5F
102
{ACAD_REACTORS
330
C5D
102
}
330
C5D
100
DictionaryVariables
280
     0
  1
STANDARD
  0
DICTIONARYVAR
  5
C5E
102
{ACAD_REACTORS
330
C5D
102
}
330
C5D
100
DictionaryVariables
280
     0
  1
STANDARD
  0
DICTIONARYVAR
  5
C60
102
{ACAD_REACTORS
330
C5D
102
}
330
C5D
100
DictionaryVariables
280
     0
  1
Imperial24
  0
DICTIONARYVAR
  5
C61
102
{ACAD_REACTORS
330
C5D
102
}
330
C5D
100
DictionaryVariables
280
     0
  1
Imperial24
  0
DICTIONARYVAR
  5
C65
102
{ACAD_REACTORS
330
C5D
102
}
330
C5D
100
DictionaryVariables
280
     0
  1
1
  0
DICTIONARYVAR
  5
C66
102
{ACAD_REACTORS
330
C5D
102
}
330
C5D
100
DictionaryVariables
280
     0
  1
15
  0
DICTIONARYVAR
  5
C64
102
{ACAD_REACTORS
330
C5D
102
}
330
C5D
100
DictionaryVariables
280
     0
  1
0
  0
DICTIONARYVAR
  5
C62
102
{ACAD_REACTORS
330
C5D
102
}
330
C5D
100
DictionaryVariables
280
     0
  1
0
  0
DICTIONARY
  5
1A
330
19
100
AcDbDictionary
280
     1
281
     1
  3
BUMPTILE
360
1C
  3
DIFFUSETILE
360
1B
  3
OPACITYTILE
360
1F
  3
REFLECTIONTILE
360
1E
  3
REFRACTIONTILE
360
20
  3
SPECULARTILE
360
1D
  0
DICTIONARY
  5
12
330
11
100
AcDbDictionary
280
     1
281
     1
  3
BUMPTILE
360
14
  3
DIFFUSETILE
360
13
  3
OPACITYTILE
360
17
  3
REFLECTIONTILE
360
16
  3
REFRACTIONTILE
360
18
  3
SPECULARTILE
360
15
  0
DICTIONARY
  5
22
330
21
100
AcDbDictionary
280
     1
281
     1
  3
BUMPTILE
360
24
  3
DIFFUSETILE
360
23
  3
OPACITYTILE
360
27
  3
REFLECTIONTILE
360
26
  3
REFRACTIONTILE
360
28
  3
SPECULARTILE
360
25
  0
DICTIONARY
  5
10C6
330
64
100
AcDbDictionary
280
     1
281
     1
  3
ACAD_ROUNDTRIP_2008_TABLESTYLE_CELLSTYLEMAP
360
10C7
  0
XRECORD
  5
1C
102
{ACAD_REACTORS
330
1A
102
}
330
1A
100
AcDbXrecord
280
     1
270
     1
271
     1
  0
XRECORD
  5
1B
102
{ACAD_REACTORS
330
1A
102
}
330
1A
100
AcDbXrecord
280
     1
270
     1
271
     1
  0
XRECORD
  5
1F
102
{ACAD_REACTORS
330
1A
102
}
330
1A
100
AcDbXrecord
280
     1
270
     1
271
     1
  0
XRECORD
  5
1E
102
{ACAD_REACTORS
330
1A
102
}
330
1A
100
AcDbXrecord
280
     1
270
     1
271
     1
  0
XRECORD
  5
20
102
{ACAD_REACTORS
330
1A
102
}
330
1A
100
AcDbXrecord
280
     1
270
     1
271
     1
  0
XRECORD
  5
1D
102
{ACAD_REACTORS
330
1A
102
}
330
1A
100
AcDbXrecord
280
     1
270
     1
271
     1
  0
XRECORD
  5
14
102
{ACAD_REACTORS
330
12
102
}
330
12
100
AcDbXrecord
280
     1
270
     1
271
     1
  0
XRECORD
  5
13
102
{ACAD_REACTORS
330
12
102
}
330
12
100
AcDbXrecord
280
     1
270
     1
271
     1
  0
XRECORD
  5
17
102
{ACAD_REACTORS
330
12
102
}
330
12
100
AcDbXrecord
280
     1
270
     1
271
     1
  0
XRECORD
  5
16
102
{ACAD_REACTORS
330
12
102
}
330
12
100
AcDbXrecord
280
     1
270
     1
271
     1
  0
XRECORD
  5
18
102
{ACAD_REACTORS
330
12
102
}
330
12
100
AcDbXrecord
280
     1
270
     1
271
     1
  0
XRECORD
  5
15
102
{ACAD_REACTORS
330
12
102
}
330
12
100
AcDbXrecord
280
     1
270
     1
271
     1
  0
XRECORD
  5
24
102
{ACAD_REACTORS
330
22
102
}
330
22
100
AcDbXrecord
280
     1
270
     1
271
     1
  0
XRECORD
  5
23
102
{ACAD_REACTORS
330
22
102
}
330
22
100
AcDbXrecord
280
     1
270
     1
271
     1
  0
XRECORD
  5
27
102
{ACAD_REACTORS
330
22
102
}
330
22
100
AcDbXrecord
280
     1
270
     1
271
     1
  0
XRECORD
  5
26
102
{ACAD_REACTORS
330
22
102
}
330
22
100
AcDbXrecord
280
     1
270
     1
271
     1
  0
XRECORD
  5
28
102
{ACAD_REACTORS
330
22
102
}
330
22
100
AcDbXrecord
280
     1
270
     1
271
     1
  0
XRECORD
  5
25
102
{ACAD_REACTORS
330
22
102
}
330
22
100
AcDbXrecord
280
     1
270
     1
271
     1
  0
CELLSTYLEMAP
  5
10C7
102
{ACAD_REACTORS
330
10C6
102
}
330
10C6
100
AcDbCellStyleMap
 90
        3
300
CELLSTYLE
  1
TABLEFORMAT_BEGIN
 90
        5
170
     1
 91
        0
 92
    32768
 62
   257
 93
        1
300
CONTENTFORMAT
  1
CONTENTFORMAT_BEGIN
 90
        0
 91
        0
 92
      512
 93
        0
300

 40
0.0
140
1.0
 94
        5
 62
     0
340
55
144
0.25
309
CONTENTFORMAT_END
171
     0
 94
        0
309
TABLEFORMAT_END
  1
CELLSTYLE_BEGIN
 90
        1
 91
        1
300
_TITLE
309
CELLSTYLE_END
300
CELLSTYLE
  1
TABLEFORMAT_BEGIN
 90
        5
170
     1
 91
        0
 92
        0
 62
   257
 93
        1
300
CONTENTFORMAT
  1
CONTENTFORMAT_BEGIN
 90
        0
 91
        0
 92
      512
 93
        0
300

 40
0.0
140
1.0
 94
        5
 62
     0
340
55
144
0.18
309
CONTENTFORMAT_END
171
     0
 94
        0
309
TABLEFORMAT_END
  1
CELLSTYLE_BEGIN
 90
        2
 91
        1
300
_HEADER
309
CELLSTYLE_END
300
CELLSTYLE
  1
TABLEFORMAT_BEGIN
 90
        5
170
     1
 91
        0
 92
        0
 62
   257
 93
        1
300
CONTENTFORMAT
  1
CONTENTFORMAT_BEGIN
 90
        0
 91
        0
 92
      512
 93
        0
300

 40
0.0
140
1.0
 94
        2
 62
     0
340
55
144
0.18
309
CONTENTFORMAT_END
171
     0
 94
        0
309
TABLEFORMAT_END
  1
CELLSTYLE_BEGIN
 90
        3
 91
        2
300
_DATA
309
CELLSTYLE_END
  0
ENDSEC
  0
SECTION
  2
ACDSDATA
 70
     2
 71
     8
  0
ACDSSCHEMA
 90
        0
  1
AcDb_Thumbnail_Schema
  2
AcDbDs::ID
280
    10
 91
        8
  2
Thumbnail_Data
280
    15
 91
        0
101
ACDSRECORD
 95
        0
 90
        1
  2
AcDbDs::TreatedAsObjectData
280
     1
291
     1
101
ACDSRECORD
 95
        0
 90
        2
  2
AcDbDs::Legacy
280
     1
291
     1
101
ACDSRECORD
  1
AcDbDs::ID
 90
        3
  2
AcDs:Indexable
280
     1
291
     1
101
ACDSRECORD
  1
AcDbDs::ID
 90
        4
  2
AcDbDs::HandleAttribute
280
     7
282
     1
  0
ACDSSCHEMA
 90
        1
  1
AcDbDs::TreatedAsObjectDataSchema
  2
AcDbDs::TreatedAsObjectData
280
     1
 91
        0
  0
ACDSSCHEMA
 90
        2
  1
AcDbDs::LegacySchema
  2
AcDbDs::Legacy
280
     1
 91
        0
  0
ACDSSCHEMA
 90
        3
  1
AcDbDs::IndexedPropertySchema
  2
AcDs:Indexable
280
     1
 91
        0
  0
ACDSSCHEMA
 90
        4
  1
AcDbDs::HandleAttributeSchema
  2
AcDbDs::HandleAttribute
280
     7
 91
        1
284
     1
  0
ACDSRECORD
 90
        0
  2
AcDbDs::ID
280
    10
320
72
  2
Thumbnail_Data
280
    15
 94
     1423
310
89504E470D0A1A0A0000000D49484452000001000000007208030000008B31FF2A00000300504C5445212830FFFFFF2128300000000000000000000000000000000000000000000000000000330000660000990000CC0000FF0033000033330033660033990033CC0033FF0066000066330066660066990066CC0066FF0099
310
000099330099660099990099CC0099FF00CC0000CC3300CC6600CC9900CCCC00CCFF00FF0000FF3300FF6600FF9900FFCC00FFFF3300003300333300663300993300CC3300FF3333003333333333663333993333CC3333FF3366003366333366663366993366CC3366FF3399003399333399663399993399CC3399FF33CC00
310
33CC3333CC6633CC9933CCCC33CCFF33FF0033FF3333FF6633FF9933FFCC33FFFF6600006600336600666600996600CC6600FF6633006633336633666633996633CC6633FF6666006666336666666666996666CC6666FF6699006699336699666699996699CC6699FF66CC0066CC3366CC6666CC9966CCCC66CCFF66FF0066
310
FF3366FF6666FF9966FFCC66FFFF9900009900339900669900999900CC9900FF9933009933339933669933999933CC9933FF9966009966339966669966999966CC9966FF9999009999339999669999999999CC9999FF99CC0099CC3399CC6699CC9999CCCC99CCFF99FF0099FF3399FF6699FF9999FFCC99FFFFCC0000CC00
310
33CC0066CC0099CC00CCCC00FFCC3300CC3333CC3366CC3399CC33CCCC33FFCC6600CC6633CC6666CC6699CC66CCCC66FFCC9900CC9933CC9966CC9999CC99CCCC99FFCCCC00CCCC33CCCC66CCCC99CCCCCCCCCCFFCCFF00CCFF33CCFF66CCFF99CCFFCCCCFFFFFF0000FF0033FF0066FF0099FF00CCFF00FFFF3300FF3333
310
FF3366FF3399FF33CCFF33FFFF6600FF6633FF6666FF6699FF66CCFF66FFFF9900FF9933FF9966FF9999FF99CCFF99FFFFCC00FFCC33FFCC66FFCC99FFCCCCFFCCFFFFFF00FFFF33FFFF66FFFF99FFFFCCFFFFFF0000000D0D0D1A1A1A2828283535354343435050505D5D5D6B6B6B787878868686939393A1A1A1AEAEAEBB
310
BBBBC9C9C9D6D6D6E4E4E4F1F1F1FFFFFF0000000000000000000000000000000000000000000000000000000000002E4550F1000000CE4944415478DAEDDA310E83300C0550EE7FDFBFB7158D2AD13603480CF9EF0D5029935DC758846D03000000000000AECBCBB8BF7F57C5BF5F3E819725618FF518728ACA7F9296DAF0
310
3B4A60BED31B12706175A1EE776E5509AC5F010525908BEBAB27A0BE02DA7B40FD53A06114CEC9295917AC790EA63C01CBF7811885EA136016320CC534549F804CF647C5ABE1BFEFC57B8E067E25A1EB68E8FBDFEE3A1F7C469BC2EE376D78750938C69CC20C8C53E2DE1AD83F1118DF48549640BAF7000000000000000000
310
00000000709707FFC3954DD3B258A00000000049454E44AE4260825AFFEDF2A768EFFBF312A7B7FEC33EDF1CC0C35A9BDEA488042490C3C650BA0CDC5E213A44D0D502B9FFFDF71947F92AD0FC4A1D6FF101F0C6F5F61127A7900000000049454E44AE426082F41360C7460E805B3B488F8E45F312202C024500C22C880037
310
9B263CF7DA9EB90C00947FEDB900F709302E947246C24D0205768A4A1707203E42434C00FD313AD27A800A476909056A9C262703281338291A10158A18B99835A8CBE628143374ED3E8F5FBC568B5BB212011E7EB1BA2D72CDBA01E0EB9651F1F9EFA80220368AFC9E25BF1B04B15748E859330F8C3B9A7E5001C20AE0E1AB
310
312A1680FC2303C1E40C430066790A7780C588577B80EF01017A022C57E67D002A2D373B01787683D48C6135144EC9D868326422A03A3C3A6B6BA30DC0D257973D0092B6F619010406E079F27C69AE805D00F07AE9E04F815D007E560B1FDF3AD009E0E5D39ED685BD0070767CF353DA0F006F0425987C1CBD7471FC7F4B3E
310
373EE7C8EA03415A8529221EA3A80000000049454E44AE426082
  0
ENDSEC
  0
EOF
